<mxfile modified="2022-07-16T14:46:26.524Z" host="app.diagrams.net" agent="5.0 (Windows NT 10.0; Win64; x64) AppleWebKit/537.36 (KHTML, like Gecko) Chrome/103.0.0.0 Safari/537.36" etag="iqPcDkv7FfWm4qmn1ZjV" version="20.1.1" type="github">
  <diagram id="Ht1M8jgEwFfnCIfOTk4-" name="Page-1">
    <mxGraphModel dx="3162" dy="1793" grid="1" gridSize="10" guides="1" tooltips="1" connect="1" arrows="1" fold="1" page="1" pageScale="1" pageWidth="1169" pageHeight="827" math="0" shadow="0">
      <root>
        <mxCell id="0" />
        <mxCell id="1" parent="0" />
        <mxCell id="-QjtrjUzRDEMRZ5MF8oH-47" value="Title text" style="text;html=1;resizable=0;points=[];autosize=1;align=left;verticalAlign=top;spacingTop=-4;fontSize=30;fontStyle=1" parent="1" vertex="1">
          <mxGeometry x="340" y="64.5" width="130" height="40" as="geometry" />
        </mxCell>
        <mxCell id="DTonXnH4k2QmNZUPgTjZ-1" value="" style="swimlane;startSize=0;" vertex="1" parent="1">
          <mxGeometry x="-450" y="290" width="880" height="530" as="geometry" />
        </mxCell>
        <mxCell id="DTonXnH4k2QmNZUPgTjZ-16" value="" style="edgeStyle=orthogonalEdgeStyle;rounded=0;orthogonalLoop=1;jettySize=auto;html=1;" edge="1" parent="DTonXnH4k2QmNZUPgTjZ-1" source="DTonXnH4k2QmNZUPgTjZ-4" target="DTonXnH4k2QmNZUPgTjZ-5">
          <mxGeometry relative="1" as="geometry" />
        </mxCell>
        <mxCell id="DTonXnH4k2QmNZUPgTjZ-18" value="" style="edgeStyle=orthogonalEdgeStyle;rounded=0;orthogonalLoop=1;jettySize=auto;html=1;" edge="1" parent="DTonXnH4k2QmNZUPgTjZ-1" source="DTonXnH4k2QmNZUPgTjZ-4" target="DTonXnH4k2QmNZUPgTjZ-5">
          <mxGeometry relative="1" as="geometry" />
        </mxCell>
        <mxCell id="DTonXnH4k2QmNZUPgTjZ-4" value="" style="shape=image;verticalLabelPosition=bottom;labelBackgroundColor=default;verticalAlign=top;aspect=fixed;imageAspect=0;image=data:image/png,iVBORw0KGgoAAAANSUhEUgAAAQAAAAE7CAYAAAAyz18IAAAABGdBTUEAALGPC/xhBQAAACBjSFJNAAB6JgAAgIQAAPoAAACA6AAAdTAAAOpgAAA6mAAAF3CculE8AAAABmJLR0QA/wD/AP+gvaeTAAA4ZElEQVR42u2deXxTZfb/P+cm3ejC1jbJTYEiCGrBDXFAQNkUkE2QfSnbqKM44+yLzqpfZ77qqL/RcWZUdFTKLoIsiht8nXEDRHG0LMpAgeYmoextoUtyz+8PCqah0CU3yU1y3q8XrxdNm+c+9zzn+dzznPssBCFuaNeuXVarVpZc1CrtQdTeT9QeQHtAb09MSUTcFgCYKBlAetDXmZiPAwAzVQM4RUAlA0cIOAygjKz6ESD5SGpq6uE9e/ZUi8VjHxITxA69gKRSm627xWLpysz5BHQGc2coyAcjH0BmhKrCYLhBvA9ACQMlRCgBUGKx+HccPHhYk9YSARBCwGaz5VosfBV05Som9CSgJ4ACAMkxUP0jIHxBTF8y6V8yK1+kp6d/KVGDCIBw4Q5/iZWoP4j7Mag/gMvjrH18AL4A6ENi/sDH/L7X6z0kLS8CkJDk5eVcquvKCIBuAXM/gNokoBm+Bvh9hrKhurr63aNHj54UzxABiNMOn5em67X9oNNQEEYDuEKsUg8/gO0grGOmtW63+zMALGYRAYj1Tj+UmCYyMB7nZ96FC3MQoFUgWqFp2ociBiIAMUF+fn5qTc3pm+s6/W2IXGY+njkA0GoRAxEA02K32wsUYCYIdwBoJxYJG7tB+Keu40WPx1Mm5hABiBrt2rXLSklJmULgOwH0EotElGoQ1gD8nKZ535OoQAQgkk/7KxSiHwE8Vcb1JoCxh4meqa2tfeHw4cPlYhARgLCgqmp/QP8FGCPFdqbkJEAvgejPmqYdFHOIABiBVVVtk8D0EwDXijlighoGllos+uOlpYf+I+YQAWgJitNuv50J/wOgm5gjRgcHhPVElt+4XK7tYg4RgCbZRFVto8DKQwBfJeaIC3QQVgLKbzRN2y3mEAG4wBjfNgY6PQTClWKNuMQHwiJm+p3b7d4v5hABqOv46mXE+hMMjBBrJEaOAKB/1NTW/jrR3xoktADk5eW10/3+3wF8DwCr9IuEyxBoTPQHt9u9AIAuApA4WB0Ox70E/i2AttITEj4O3qzo+EGpx7NFBCDun/q5V7JfWcBAb/F8ITAeIPDz1bX+nybSsIASp+Pnpem67xdg/AqxsauOEKVhARRlvqZpq0UA4gSHwzGAwM8BuEw8XGhiz1ih65gf7wuO4loA8vLy0nSf71EQ5kPeeAjNpwzE8zTNu1YEIMaw2+0FCtEimcwjGNBJFvp0vtvr9VbG270p8dheDoftPoWwTTq/YExaADMtCn2qqmrcrQWJqwggJyfHnmS1vgLwzeK2QhioAeMBzeN5HHGy/0DcCIDD4biOwCsBdBQ/FcIcEqxNTk0tLCkpOS4CYI7OfyeBn4a83hMix9c6Y7zH4ykWAYgS+fn5qTXV1X8FeJ74oxAFKogx1+XxrIjVG7DEasXz8vKcvtqadwGMFD8UokQyCBOyMjOTyysqNkkEEKnOb7P11BVaJ+N9wUQdaSVZrDNLS0tPiwCEEVXNvRlQVoDRWtxOMFlv+sTv57GxdOahElud3zYPUNZL5xdMCaOPVaGPVVXtLgJgME6H42EwLQAjSTxNMK8G4BKw/kGezfYdGQIYVEenw/YEg34o7iXEEJUgvk3TvO+KALQci2q3PwfCXPEnIQapBvEkTfOuMW0HM3PndzjsLxJhtviREKNYAbo9KyNjV3lFxQ4RgCZSUFCQnGS1vkrAZPEhIcaxgDA+Myv9v+XllV+KADShTkkWSxEIt4vvCHGCAtBtmVnpu8vLK4tFAC4MqQ7HcyDMFJ8R4k4EiMZmtUr/vLyy8mvTdDgzdX6Hw/43Ar4nviLEMaeJMdLl8Zhi6rBp5gGoqv0R6fxCApDGhHUOh2OARAB1OBy2XxHoj+IbQgJxDKTcoGnaroQWAKfdPokJSxCf25MJwsXY5/PrfQ8dOuRNSAFQVbU/WH8HQKr4gpCgfOrXeWC0NhyN2lO3Q25uF7D+mnR+IcG5zmKhpYjSG7moXFRV1WwG/g+EDtL+goBumVkZ6eXlFW8nggAomRnpK0G4XtpdEM5xQ1ZGxv7yiortcT0EUO32PwIYJu0tCPVhwt8jffZARJOAqmobC6ZVkGO6BOFClJBiuc7lch2JqwhAVdXuYHpFOr/5yMzMhM1mR0ZGhhgj+uSzri+J1PA8Ip3RZrOlWxT6FHI6r2m4+pprMKtwFm4aeBNsNvu5zw8ePIh33nkbLyx4ASUl+8RQUYIYv3V5PA/FhQCoDsfzAH9XmjX6pKen4+GH/4gJEyeC6MLNX1tbiycefxxPP/0UmFkMF3l0nTHY4/G8H86LhD3MUFX1NoAflfaMPhkZGVi2bDmGDB160c4PABaLBf3790ebtm2waeNGMV4UggAi3JSUnPzP06dPV8ekAHTokK2yTm8AaCXtGX2eePJJDBo8uFnfueaaa1Gybx927twpBow8bZOslrzyiopVsTgEIKfDvp6BEdKO0adv3754deVrLfpuWVkZ+vb5Dk6fPi2GjE5CYLqmeReHo+iwvQVwOBz3Sec3D/Pv/X6Lv5uTk4NJk2V3tigqwN9UVe0QMwJgt9vzCfyQNJw56JSfj5tuuimkMubMmdto3kAIE4zWxPqzMSMACvGzAOSlskmYPWs2FCW0pr700kvRp29fMWbUNAAjVNU2xfQC4LTbZwN0izSZOUhNTTUsfJ9VOEsMGlUVoKftdnuOaQVAVdVsJjwmLWUexo0bjzZt2hhS1ohbb4XdbhejRo9sRTG2fxkbAej6XwFkSzuZh5mFhYaVZbVaMW36dDFqdMcCs86ckG0yAXDa7YNAcpCHmbi2Vy9cddVVxgrKjJmwJsn5rNEVAeWpXjDmkFyjBECR0N98hGPMnmuzYdgwWc0dZS7THLZ7TCMADofjDgC9pF3MQ7t27TB6zJiYERaheRDod6qqZkddANq1a5dF4N9Lk5iLqVOnISUlJSxl9+vfH5ddJgs7o0xbQP9D1AUgJSX5dwAkNWwiFEXBjJnhPV1t+owZYuio5wJwV57N1jNqAuBwODoRcK+0hLkYPGQIOnbsGNZrTJo0GZmZmWLs6GLRLfSnqAkAAb8GkCztYC5mzZod9mtkZGTgtnHjxNjRjwJGOm22PhEXALvdng9wobSAuejUqRMGDhwYkWvNmTNXDG4GDVCUByMuABbCg/L0Nx8zZxaGPO+/qXTv3h3XXy+7u5tAAm622+03RUwAnE5nNwamiuHNRXJycsSX7c6aPVsMbwIUwv9ETABY138PwCpmNxe3jRuH9u3bR/Sao0aOqrepqBA1+jtttsFhF4C6sf9Esbf5iETyLxhrUhImT5EZ4ObIBdDPwy4AFqIfytPffPTo0QNXX3111PIOVqu4hAkY5nTmXhU2AWjXrl0Wg+eInc3HvHnR23VdVVUMHTpUGsEMUQArPwybAKSmJt8NIEvMbC5at24dtnn/TR5+SDLQLEx3Op15hgtALyAJjPliX/Mxddo0pKWlRbUOAwbciC5dukhjRD0EQBLr+nzDBcCt2iYA6CAWNheKomCmAfP+N2/eHNL3iQgzZZWgWVTgzry8vDRDBQCgO8Sw5mPgwIHIz+8cUhnHjh3DXXfeEfK+/5MnT0arVnIGjAlo5/f7xxsmAB1yc7uAMVDsaj6MePW3YvlylJWVYc2a10MqJysrC7fdJusDTBEZgu8wTAD8inIn5Fhv0+F0Opt91FdDLFly5tCZhQsXhlzWnLnyksgcqQDc5HA4LjdCAKxQMFNMasKn/+zZsFhCO97x448/xtdffw0A+Pyzz/Dll1+GVN4VVxSgV6/rpHFMAFHjr+wbFQCHwzEWDIeY01wkJydj8uTQz4lYvKio3s+Lgn5uqTAJpggD5nTt2jUlJAEgZkntmpAxY8YgOzu0LeGOHTuG9evX1/vstZUrUV5eHvW6CYaQfepU+S0tFoB27dplgXCz2NGE4b9Byb/q6vpHz1dWVmL16tUhlZuUlIQpU2SxqCmGAYxJLRaAtOTkcQBSxYzmoqCgANf2Cn0T5rPJv2BeefnlkMsunDUr5PyEYMQogMZebE7ARQVAp4urhxAd5swNfSeeTz755FzyL5gdO4rx+WefhVS+0+nE4MFDpLGiT6bf7x/ebAHo2LFjWwJkhYfJyMrKwtixt4VczqKii7/yM+KVoCQDzTIM4MnNFgCfr3ocZMsv0zF5ypSQZ9udPHkSb7zxxkX/5vXXV+PEiRMhXWfgwIG45JJLpNGirgAYpapqq+YNAXQaK5YzWTsSodCA+fbLli5FVVXVRf+mqqoKr766IuT6Tp8u5weYgHTAP6TJAlBQUJAMwiCxm7m48cYbDXmiXij5d94w4JVXwMwhXcsMKxUFAKDhTRaA48cPDwAgpz6YDCPG1Js3b8bu3bub9LfffPMNtmzZEtL1WrdujTFjJJiMOowRTRYAZhouFjMXTqcTQ4eGPiWjseRfMEULXwn5mnPnzZMGjD6dnU5nt6blAC6gFkL0mDFzZsjv1ZuS/Atm7dq1OHz4cEjXjeZ+hcK36LpvRKMCULedUIGYyzwkJSVh6tRpIZezbNmyZq/5r62txYrly0MfvkRhx2IhKAvQQB7g/AjA75fZGyZj1KjRyMnJCbmcJYsXteh7C4sWQtf1kK4djTMLhPO4sReQdFEBYOJ+YidzYUTyb8uWLU1O/gWzv6QEH374QUjXj8apRcJ5tHLZ7Vc3kgOgG8RO5uGKKwrQu3fvkMtpbvLvvCjAgJmBkTy3ULjAMICo3wUFID8/vw2Ay8VM8fX0P3ny5HnLfpvLWxs2wOv1hFRGJE8uFi4EX1gAfFVVNyCEE4MFY8nMysL48eNDLmf58mUhb/jp8/mwbOmy0AVNkoHRjQCA/hcUAA4KD4ToMnmSMbvsLlm82JD6FBUthN/vD6mMwUOGoGPHjtK40cNus9kuaVgAgN5iH/Mwbfr0kMvYsmULdu3aZUh9XC4X/m/TppDKUBQFM2bKFpPRxGLB9Q0KAMBXiXnMwYABN6J79+4hl2PEHn+BGJEMnDp1GlJSUqSRozUMYKXneQKQm5trA5Ar5jEHhbNCX/V38uRJrF+3ztB6bdz4HkpLS0Mqo127dhg9erQ0cpRg4ivPEwCrFVeKacyBzWbHLTeHPu9/xYrlISf/gvH7/Vi6dEnI5UgyMJoKgPMFgHRFBMAsT//CQliTkkIuZ/GiRWGp36JFi+CrrQ2pjGt79cKVV4rLRYkOda/8vxUAVtBT7BJ9rElJmDot9B11t27daljyL5hDXi/eefddUwxzhJalAWpqanrUEwCwLAAyAyNvHQmbzW7AU7oorPU0YpnwuHHj0aZNG2n0aCgAc5AAALJ5mwkwaubfurVrw1rP999/H/v27Q2pjNTUVEycJBtPRyUNwNz5nABkZ2dnAmgnZoku3bp1w/XXXx9yOeFI/jXgQFiyOPRk4JzZc2R9QDRQkH9OAFJTlc5ikegzZ85cEIV+CPPSJUsjUt8lSxajpqYmpDI65edjwIAB0vgRHwLg2whA10kEIMpkZGRgnAHz/j/9dCt27CiOSJ2PHj2KN998I+Ry5PyAKAwBEBABMJ/5QYgeEydOQmZm6PuwFhUVRbTeRswMHDr0ZnTo0EGcILLkZGdnZ54dfHUSe0QXI+bHl0cg+RfMxx99dMEjxpqKxWIxZN2D0Gy7d1IAgKDYxRzR44Z+/XDZZZeFXM6KV1eEPfnXEIsXhz7haPr0GUhOloOoIisAsJ+NAOQw9ygy26BpsUuXLIlK/ZctXRqy8LRv3x4jR44SZ4gs7esEgGW3xiiRa7Nh2LBhIZezbdunKC4ujso9GDXvQJKBEUanbIkAoszMGTMNmfcf6eRfMEYkA3v37o2ePWVGehQiAEgEEAWsVqshya/ykyexds2aqN7Ltm2f4quvvgo9FzBDNguJGETtlfz8/FQA6WKNyDNs+HDY7aHnX/cfOGDIBKJQMWL9wfjx45GZlSXOERmylcrKyjZih+gwZ/YcQ8rp0aMHNrz1Ni699NKo3s9rK1eioqIipDLS09MxaaKsD4gEDG6jWK1W2ZspClx66aXo07evYeV16dIF69a/gVtvvTVq91RRUYHXX3895HIKZ80yRUQT9yMARopisfjk5WsUmD17juFOnpGRgeeeX4D7H3ggagtsXn7pnyGX0bVrV/Tr11+cJOwKgBSltlaRCCDCpKen4/YJE8LTpkSYP/9evPzKwqistS8uLsb27dsNiQKEcA8BkKxYLBaJACLM7RMmGDLv/2IMHjwYb7/zLq66KvIbPRcZ8Epw2LBhcDgc4ixhDQAoRSHySQQQYWYVRubp5nQ6sWr165g8eUpE72/16lU4ceJESGVYrVZMnz5DnCW8MUCKouuWJDFE5OjTpw8uuzxyxy+mpKTgiSefxCOPPoakpMg09enTp/HaaytDLmf6jBkRq3OCkqKcGQoIEXv6R2m664wZM7Di1ZXItdkicr2XX3op5DJyc3MxYsSt4jThGwPoikXXa8QSkSHaDt27d2+88867uKFf+I+A/Oabb7B169aQy5FkYDhHAKhW2GqtFktEhmnTp0c9pM3OzsaSJUsxf/69Yb+WETsH9+3bN6JDpgSjWvH7/RIBRACr1YoZJpnnbrVacf8DD+Dpvz6DtLS0sF1nzZo1OHLkSOhRwMxCcaDwDAGqFatVBCAS3HLLLaZ7rTV+/Hi8vmYtOnUKz4ZQNTU1WPnqqyGXM2HixLC/Nk3QIUCNoutJMgSIAGZd615QUIA33tyAgQMHhqX8l19+Gcyh5ZnT09Mx/vbbxYmMDwGqFQCnxRDhpXPnS0w9tbVNmzYoWrQ4LFOIS0r24aMPPwy5HKO2TBcCIwCuUjRNOwZAF2uEj9lzZhvivMuWLcWrBoTUDT4L6qYQL3jhBcPD7VcMSAZeeuml6NOnjziTsRxWAPgBnBBbhIe0tDRMNGh564svvID7fvB9/OLnPwv5dN4LMWzYcLy5YYMhm5SeZcOGDTjk9YY+jJIjxY1FwZG6eI8OizXCw+23347WrVuHXM72zz8/t+NOUVERJk+ehMOHw9NsnTtfgjVr12H0mDGGlOerrcWy5ctCLmfErbcasoGKcG4MUCcAxEfEGOFhhkGvsBYtqr/19ieffIIRw4fhP//5T1jqnZ6ejn/841k88uhjhuxZuPCVV+D3+0Mqw2q1Yuq0aeJUBg8BAEAEIAwYtcllRUUF1qw5f6MNTdNw+/hxWL9uXfgEbMYMLFu2HDk5OSGV43K58K9//Svk+hTOLDREkASAWTk7BIAMAcKAUa/+LrbV1qlTp3DXXXfijw8/DF0PTy63T58+eHPDW7i2V6+QyjFiZmCuzYZht9wizmWIAPDRMycDMbnEHMZi5EEXjZ28w8x45pm/YlbhTJw8eTIs9+NwOLBy5WuYMaPlS3TfeecduFyhu5okA40hSddLz5wODOwXcxjL9BnGHHW1fft2fPnll036240bN+LWESNCPqvvQiQnJ+ORRx/DX556Gqmpqc3+vt/vx7KloR9d3q9/f3Tv3l2cLDT8WTk5B89EAEQlYg/jsFgsmDbNmMMuFzdzq+19+/Zi9KiR2LBhQ9jub8KECVj9+poWnei7sGghfD5f6LmJmXJ+QIi4iouLaxQAUJTafWIP47j5ZmOOu66srGzRLrsVFRX47ry5Yc0L9OzZE2+8uQEDBtzYrO8d8nrx3nvvhnz9SZMmIyMjQ5yt5ZQAgAIArVvn7ofMBjSMQoPGqKHss382L3D33d/DqVOnwnKf7dq1w6LFizF//r3NmuloxJ6BGRkZuG3cOHG2lkLYd04AiouLawB2i1VCJz+/MwYMGGBIWUactLNu7VqMGT0a+/eHJ81jsVhw/wMP4IUXX2zyiT6bNm3C/pLQR51z584ThzMiAjgjCLRHbBI6s2fPNmRBzRdffNHk5F9j7Ny5A7eOGI5///tfYbvvYcOGY/36N9CtW7cmRSdLDUgGdu/eHddff704XYsixDP9Xfn2A/xHzBIaqampmDjJmHn/ixcZe9rv8ePHMX3aNDzzzF/Ddv9dunTB2nXrMXLkyEb/dsmSxag1YD2DHCne0sjN/5/6AkD0pZglNMaPv92QwzhamvxrDL/fjz8+/DDunT8fVVVVYbFBRkYGnn3uedz/wAOwWCwX/LuysjJsePPNkK83cuSokGcpJiC+1NSs3fUEQNF1EYAQmVlozLz/VatWoby8PGz1XLXqNYwdMxqlpaVhKb+ppxMtLAo9GZiUlCTrA5rbPsCuPXv2VNcTAB/wJeRNQIvp1es6XHnllYaUtciAjtEYX331FW4dMRwff/RR2K4xaNAgvPPue7j66qsb/P1HH36IvXv3hi68MwthtVrFCZs6/gedG+6fEwCv11sJxl4xT8swavvqHTuKw7bCL5gjR45gypTJeOGFBWG7hqqqeG3VakyZMvV8R2RGkQFip6oqhg4dKk7Y5BDg22hfqR+64QuxTvNp164dRo8ebUhZL7/8cmQHgz4ffvub3+AXP/+ZIUm5hkhJScHjTzzR4OlEy5ctQ3V16NtSSjKw6Sh6AxHAGUXGJ2Ke5jNt2nSkpIR+xGJlZSVeX706KvdQVFSEiRNux6FDh8J2jYZOJzp27BjWGbCcecCAG9GlSxdxxiaMANhi2dxwBGDRPxT7NFNNFQXTZxhziOXq1avDmvxrjK1bt2LE8GHY/vnnYbtG79698e6779U7nciIZcJEhJlyfkBT2OlyuY40KABpaVmfAagSGzWdIUOGomPHjoaUFYnkX2N4PB6MG3cbli9bFrZrtG/fvt7pRFu2bMGunTtDLnfylClo1aqVOOXFhBL8QeDP9V7UHj161J+ZmTEcQEcxVdN48KGH0Llz55DL2bGjGI899pgp7snv9+Ott85s5Dlo4CAoF3mfH0rkNODGG3HJJZdg06ZN0HXG4CFDQs41HDxw0LAZlHEpAExPlVdUfNFgBHBmhAAZBjSRTvn5uOmmmwwp65VXXjHd/RUVFWHKlMmGHO91IcaNG481a9di69Ythixamj1njjjmxYRXrz/MP18AFBYBaCKFMwsNmfd/6tQprF61ypT3+PHHH2P06FHYtWtX2K5xxRUFWLZ8BbxeT8hlFRQUhLx1WRzjOXjo0H8vKgA1Nf7/A6FWbHVxUlNTMXnKFEPKWr16VVSTf42xv6QEY0aPCuvmo23atEHnzpcYUpZsGXbB8f95GzGcJwCHDx8uJ8ZHYq6LM3bsbWjbtq0hZS0qKjL9/VZWVoZ981GjGDNmDLKzs8VJg9ChbGhUAACACW+KuRoJ/w2a+bdz5w5s3749Ju753OajswrDtvmoESQnJzc48zDR+7+u6+80SQAURRcBuAhXX3PNBee3NxczJv8aY+N77+HWESPwzTffmFqgLWF4exGrMPCp1+s91CQBKC099B8AB8VsDTPboDHm6dOnTZv8a4x9+/Zi1Mhb8dZbG0xZP6fTiUGDB4uznh3/ExpsqIuksOktMdv5tG7dGqMMmve/evUqU4fSjVFRUYF5c89sPsrMpqufJAMDBUBvngAozKvEbOczbfp0pKWlGVJW8Hl/MRlaRmDz0ZYyaNAgw94sxHj8r7lchzY3SwBsHs87kDMDg1SUMH26Mfv979y5A59/9lnc2GbtmjUYM3o0Dhw4YKr2mmHQOo2Y7v/Ey3CBvT4uKADbgFqAVku3D3iiDB5s2BNl4cKFcWefSGw+2lymTptmWMQWqyg6ll/wd41I6HLp9t9iVPKvqqoKq157LS5tdOzYsbBvPtocWrdujdFjxiSy2x50eb2bWyQAmqZtBHBIuj6Ql5eHgYMGGVJWrCf/GiMSm482h3nzvpvA41YsBcAtiwAAH0OSgcCZHWeMeq8cD8m/pnB281EjTgQOhR49ehg2byPmxv988Si+0ZUsFh3/TPTOn5ycjEmTJhs2Tv5s27aEsd1XX32FEcOH4eOPP46ugCfgK0ECvnK73Z+GJAClXu9mgLcnsgCMGTvWsLnlRTEw799ojhw5gqlTJmPx4kVRbUOj1m7EzNOf+PnG/qZpa1kJLyayAEjyL3Rqa2vxs5/+NKybj14MI1dvxghVipJUZIgAJCenLQRwKhEdt0ePHrjm2msNKev111fjxIkTCT2cisTmoxeisHCWIfs3xMjzf2VpaelRQwSgpKTkOIET8tE1Z+5cw8paVLQIQsDmoxFeBdmpUycMHDgwIWysMDXpsIcmyyGT5dlEc9SsrCyMHXubIWXt2rkT27Z9Kr2/Do/Hg/Fh3ny0IRIkGbi71ON531AB0DTtAxA2J5KTTp4yReb9h5Hq6mr86Ec/xEMPPQi/3x+Raw4aPBgOhyO+g3/Qk7jIu/8WCUBd0U8minMSEQoLjdn0o6qqCitXvio9/gL84+9/x+RJE8O6+ehZLBYLhg0fHs/mLLNYLE3eZKJZAqBp3ldB+G8iOOWNdVtWG8HaNWsSPvnXGB9//DHGjB6N3bt3h/1agwfF8T4BjGdKS0tPh0UAAPiZ+elEcEgjt5dOxHf/LaGkZB9GjxqJ9evXh/U6l3brFq8mPK0Df2vOF5r9TkTXsQBxvkzY6XRiyBBjTpvdtWsXPv10q/TuJlJZWYm77rwDf/7zY2HbZKRNmzZxOm7FSx6PpyysAuD1eitBzVOZWGNmYaFh8/4XS/Kv+VEsM5584gkUFs5EeRgWTXm93njs/LUWn/54c7/WolkRqaerHwdwLB6dLzk5GVOnTjOkrKqqKrz66grp0S1k43vvYcyY0di3b6+h5RpxDqH5VJNeDj70I2wCsPfYsRPEiMs3AiNHjjJs3v+6tWsl+RciX3/9NW4dMQKbNm0yrMw334yzTa8JtX5d/2NLvtrieZE1fv+TAMrizeFmz5ltWFlFRQulBxvAyZMnMXPGdDzx+OMh5wX2l5TgzTffiDcTPe/1evdFVADKysoqQHg8nqxYUFCA667rbUhZu3fvxtatkvwzMi/w+ON/xvx77sHp06dbVIau63jggftRU1MTT6apIrL8qaVfDmllhN/PfwXgiRdLzppt3Ks/Sf6Fh9dfX40xo0dj7969zRaQP/z+94YOJUwhjOC/u1yu0paPHkJEVW3z0MSFB2YmKysL2z77HK1atQpdkquq0Ovaa3D8+HHpsWEiIyMDDz70ECZNmgyii7tx+cmT+MlPfhz2+QVR4Cgplm4ul+tI1AQAgOJ02D9hoHcsWzLXZsP1119vTKscPYqPPpRT1iPB1ddcg/vuuw8DBw5CcnJyvd+VlpbitddW4rlnn8WxY3H40ooxX/N4Qnolb4QAQFVzbwArHxhVniA0l8ysLHTv1h25uTkoL6+Ay1Xa7GFCjLFDc3uuAuCLugCcEQH7MjAmiSsKQiQe/jTc7XaHfHyfgdujKD9Fgu4aJAgR7v1rjOj8AGDY+cnl5eUnszIzCYAcySoI4eOURddvO1lZaUhSw9AN0lxu9yMAPpc2EoTwQKDftGTKb0QEAIBPZ9wFwC9NJQiGx/7bXW73U0aWaDG6ihUVFVpGZkZrAvpKgwmCcQ9XkGVUeXm5ZmShYdkjmUj5TaLsHCQIEQr9H9M0zfDhdVgEQNO0U6TjDlzgTHJBEJpFcVJKyoPhKNgSrhqXV1SUZGZkpIPQT9pPEFpMNSn6iIMHw3PCaliPSXF4PL9mYIu0oSC0DAb90uU69EX4hhZhJi8vp6vut3wOIEOaUxCa1f3f1tze4WjiHv+mGgKc5eTJU0ezMjKOgzBSGlQQmszhpFr/sBOnTpWH8yKWSNxJeUXFpxmZGT0IuELaVRAaRdcZE12HDoV9Ul3Ejkr1+fxzABRL2wpCI+Nyxu89Hk9ENi6M6PJdp9PZjdm/BYzW0syC0GCPXKdpnrGI0Cv0iB6W7nK5vga4EGFMaghCzMLYk5ycOhMRnD9jifQ9lpdX7s7KzEwBMEBaXBDOcRqKMuLgwYMlkbyoJRp3Wl5RsSkzM/1KgC6XdhcE6Aya6na7I75jqRKtG1YsSdNB+ETaXpBhP/3M7Xa/Fp1rRxG73Z6jAB+B0FXcQEjMzs/Pudzeu6J3/SjjcDguJ/CHANqKOwiJ1fnxpsvtGYMQN/aMxSHAOdxu907SeQKAanEJIYH4tMbnnxTNzm8KAQAAl9e7EcSTQagVvxASgN0+vz6qrKysItoVsZjFIuXllbuz0jN2gnC7WYRJEMIQ9//XYvUNdLvLTHGknsVMtimvqNiRlZFxAISxkENGhPij1K/zYE0rO2iWClnMZqHyiortmVnpRwEaIf4ixBFlDBri8Xi+MVOlLGa0VHl55ZaszMyTAG6RSECIeRiaDgzxeDw7zVY1i1ltVl5R8UlGZqZGwEgRASGG2a9Y/YM17dBuM1bOYmbLVVRUfJaZlf41iMaava6C0AC7Qcogl8tbYtYKxsST1WmzjWKFVgBIFZ8SYoQdFqvv5oMHD2tmrmRMvG5zeb3rQPoYACfFr4QY4N+KxTrA7J0/ZgQAADTt0Dt+nfsBOCD+JZgVBl5VLNZhpaWlR2OhvjGXXOuUne2oTbKuBdBL3E0wWXd6SnO7f4QYOhAn5mbc7T982O3X+SYw1orDCSbBR6C7Nbf7PsTYaVgxmVmvrKysLa+oWJ6VmZ4FUB/xPyGKHCaFb3NpnhWxWPlYfrXG5RWVb2Vmpe+umzWYLL4oRJjP/Trf7HZ7P4vVG4j5RTea5l0KUq4DsFP8UYjYaB9YqFis/bxe774Yv4/4IDs7OzMlyfoSA+PFPYUwUs3gX7jd3r/Ew83Ezey6U6dO1ZRXVKzIzMioAOEmAFbxVcFgdoGUkW63Z3UcRTLxh91uL1CAxSBcKT4rGBXy+3S+2+v1VsbZfcUn+fn5qTXV1Y8A/H3IYiKh5RwG8Xc1zft6nApbfKOqttFgeg6AXXxZaCZvWay+ubEwpVcE4OLRQJva6tOPMOgOiQaEJnCMQb90u93PI86PsUuozuBwOAYQ+HkA3cXHhQv0iBV+P9/r9XoPJcbtJhh5eXlpuu77Axg/grwpEL5lv8K4p9TjeSOx9C5BUVX1Mmb9cQJuFd9PaE6D8VSNz/fw4cOHyxMv4ElwVNU2FEx/AXCF9IWE8/51uo7vezyeksQ1gYBeQJLmsN1DRH8Ao7VYJO75jEE/dLvd/xYNFM7hdDrbM/u/D8aPAWSKReKOXcT4k8vjWQTAL+YQAWiQulOLfwLCDwCkiUVinv0M+qPb7X4RUT6LTwQgtiKCPF33P0DAXMhy41ikBMQPOzTvy9sg506KALSQ3Nxcm9Wq3A3GvQDai0XMDm8npiftHs8S6fgiAIaRk5OTYbVapxH4x5DJRGbs+B+C8IimedchzmfwiQBEF4vTbh/PwF0gDBY7RtWDTwBYrOt4xuPxFItBRAAinidg9k8H4x4AHcUiEWMbg57TdX1RvC3RFQGITayqqo4C9Hlg3AJJGobDW93MvJSZFng8nh1iEBEAU5Kfn9+mtqpqDCuYCGAYGElilRZzlID1TLxC07xvQl7jiQDEEqqqZjPzeAImAHwjgBSxSuNPejCvA2G5pnk3QSbtiADEA2dWItb2g05DQRgNWX9wFj+A7SCsY6a1brf7M0gWXwQg3nE6nd2Y/bdAR38Q+gHIS5Bb9wH4AqAPGXi/urr63aNHj8rBryIAiY3D4egEoD8R3wDmG0BUECf5g2MAbwXTR2ThD2pq9M1lZWUV0uIiAMJF6AUkefNyL9d16gGdriTClQz0ANDBpFWuAWMXiL8E0Ze6jv9YLJYvXS5XqbSmCIBgYC7B5/N1tgL5OtAZCvKZkU+EDtDRHgpywrCs2QfgCIAjBJQxYR90lBCwTyfaR0Qlmqa5EGOHY4oACPGKNScnJ9tisbQnovZEejKzkqkwW1lhK7NSb7kzka6TTifqfjzFClcrfpQjST+SXOkr23vs2AkxqSAIgiAIgiAIgiAIgiAIgiAIgiAIgiAIgiAIgiAIgiAIgiAIgiAIgiAIgiAIgiAIgiAIgiAIgiAIgiAIgiAIgiAIgiAIgiAIgiAIgiAIwsVo0dFgNpst3WKxpGmadjhaFbfb7Tkej+cYzpxZF9Nt4HQ6nbqu24goFfCnMSvVAE7pun40MzNT27NnT7W4qtCYDzFzLpEvhZnSibiSfFThIypPTk4+ceDAgZMA/CELgNNpG8I6vQ4gDYxfah7PYxG+WYvqcKwEeCwIbiJ9hMt16ItQCnTa7ZOY8POzPzN4odvt/Uu4bkBV1X7M+ngCDwbocgApjXzFC0IJmL4i5p2sKJtbtWq11UhhsNvtVyjAkm89g7ya232L0Y6qqrZfADS2GceenwbhBDN2K4zNp2tqNhw9evRkOB1MdTgWA9zt21rrP9C0Qx+ZqMNbnE7bQOgYxcBAgLoBaNXId/wAXABKGLwTUD5n5reszb0y6/QogPQ6+fhDx44dFxw4cOBYpO5cVdUhYH1sXU91MJSV+fn515WUlBxvaZmsIBeMXt/6Pm0MR90dDsflBP15sN6Pmqe/NjBsAH+HCQDrOFVZcdrpdF7tcrm+NqRnErUC+MpvjcJaGO5/PJj/1PwGAggYyQSkpiRXOhy2IkWxPuByuY6Ex8v0ywG6+txPutLaLD3fabdPZMIfWMflzRUNAB0BdCTQjQCDFJ6nNKeEPLv9egDXBnyUVltbOyuSBmBmW5BzdKmpqnoFJj/pWFXV/gTeDFA/gwZv1rS0tP2xFanqVxtQSDqB7mLdv6POHxMFq6ra/8aE5UCzO3+DKDrtbVYEoCu4Gxzkh8zzAfzljE5HLZMx2ulw/Mjldj9hxpbLzs7OBOuLAWQG/eokGP8HBbsBHCGmE0z6CdIpSSdKJebWRKwykVrX6JedC5117IzB3AAFifceKPi8ke+0AuMSAJcFfT9XJ37L6XR+x6goyMw4HY4HmfnuBn7lAWgjQy8GlP0Kcw0rXAMgjVnJUpgzAbRiIBcKOoPRGUBnAGm6ojRdAPLz89vUVFdNaqBJuzpttkEur3djNA3E4EdUVd2iadoHZmu85GTLRDA6BFaXQL8li+Xx0tLS000tp6CgIPnYsWMFpOs9WeHaOPDrDZrm+X6TxkA2W2eLhX4LxuwA52vDuv5XALfEc+e32+0FDP75+Xkh/qGmeVeggeReY+Tk5NjLyjzeJgtAbXX1nKBEA59VZF2huwFsjLKdrGB9iaqq10Tz7cQFHnzDguRqgcvt+Z/mllJcXFwD4PO6fwmF1+vdB2CO6nB4AP5lgC1vdjqd3eI5ClCAwrox/FmO+nXuW2eTFlFWVuapK7tpHszguwJ+LiXwooC47rYOHbJVE9gqD7q+NMhY0YfZWT9aUTZAaBFt27X73ZmwN9C8/riOAJgwsH7QTU+G0vmDxKUJ4w+nbTCA7gE1eAEK/y3w6av7kuZGyT7FAPSAug1xOhy/MpmG1xv7Eukp0pVb2NjFxTVA0Fsavd7wKu4gQK0vCLTJwOiicXSdvhf4IzP90+U69DHA2wPG4HdG48lL4A9BeCgoH/AHVc292URtuD8oYTFRunIojc71XzsT6fF9w1zvAaIovvKICUBOTo6dCGMDPnrb7Xbvr+t9LwZ83kFVbSOjYR5N8zwI4K1698VKkUmGJWBgfZAHj1NV2y+lJ7d0RIXOQYIQ528BaG/QA7kgYgKQbLHcEThri0ELzv4/9XTNKwBOBQjV3VGykK4zZgLsCvgsV/dZFwOwRrv53G73MgK+ChL1P6kO+5t5eTmXSpduOh06ZKsEDA74qCapxhffORU67wHyAzQ9fxeSAFiYMC/gZ6/qdq85+8PeY8dOgLAi4PfD8vJyukbDRh6Pp4x0TAChNuDJe5PT4XjQBE3oY1ImAgh+OzFc91u+dDocD+fn57eR7t0oVt1nXQAgNSC8Ktp/+LA7rvs/WRYAKA+45z6q3f4XI0TgogWoqm0UgE4BF355GxD0/ll/LrCuus/y3WgZyuX1fgIdDwTlA36pqrax0W5ETdN26YyBYOwJ+lUKg++vqa7a73Q4HlZVNVv6eUO+qF6jOuybGBgR8PHXqdXVP473e3e5XEcYNBuBk+0I96oO27/qcl0tzr1ZG8k9fK/+j/TS+Y596COnw/4VAz3qKjYvPz//9yUlJVVR6Wgez59Vh60vQOPOmYrpnzabrZdRr05CiFKK8/Pze9dUVz8G8DzUn9mWxeD7wXyfw2F/NrnW9+d4f7KBMMjpsD17cRekNmD0BOvB0193Khb/mL3Hjp1IBAF0u92vqXb790H4f9/2W+oHprdVh/0kgK8BOn6RUXI56XjU5fV+0iQBsNlslyBghhUB72tu986GG4mfB9PZ1XPZNTWnxwNYHK0cUXJK2tza6qqrGLik7rO2ikJLCwoKBtRNpokadYuW7lBV9SVi/WEGbgr6k3QCflybZL3b4bD9w+/nRw4dOuSNU78uYDSS0Gp4gnkFMeaXlpbtSaQoSPN4nnHa7ZVM+GfQr7IAXHfx2fgEVnAdziwIanwIYCG6M/D3OpBms9lyGwwjrCkLAZwOUIS7o97JFH18YJ0IuP740aOPmqYxNe1Dl9szEKQMIOD9Bv4kjUA/slqUvarD8ZdO2dkOGQicI4MJG1WH4+0OubldEuGGu3btmqKq9j8z4fmQYq6m5AAKCgqSQZgT9M3rLQo+y7PZvhP89wcOHDjGqJcM7J9ns/WM7rjp0Bdg/DQoH3Cf026fYCpV17QPXG7PQNJ5NAFbG/iTVgD/oDbJ+o3DYbu/F5q8jj4WOARgW+P/eDuAUgRO+DrTojf7LfSpqqr94rnz5+fnp56qrFwHxk8aiNp9IPy3cRvSOwya3qQcwNGjRycS0MDTnpy6gvdV1XaPpnlfrPcbUp4D64XnIgYL3QXg3iiHTH9zOmx9GTTj2+AEL6qq+pWmabtMlejxetcBWOdwOIYR+NcA+p8/NKCH3ap9ipMsE+Ji7jtjueZp2mIgAHA6ne2ZfdPB9FsA7es8rw3Yv87hcFx9bn5KnFFTU/U4gKFBD+StOuh/dV1/y+v1Vra0bOUCo4XvBX0QOPUwBUwvqHb7U4FPI03TPsSZablnG3dmTk5ORtSN59PvBhCYu8gE9OV5eXlpJk32vKW5PQN0xkAA/26g0/Rk3bfZabP1SbS43+VyHdE071M647q6iOCsg7Yh6E/G4z3b7fYCML4X5ANPu9yePm63+7VQOn+DAmC3268IfPowsEXTPENA+CXqz7n/vtth35iTk2MPCLEDxydZVqt1WrQNWFZWVuHXeRLqTVhCT91f+xczN7zH43lfc3tuAvFUAAeDJLoNK7T2QjmZeMfj8ZSAlHlBNhnrcDg6xdu9KgpmB/ZTArZqHs8Pzx8OGSQAioL5QYZdAIA1zfMI6TwWQOB+bP2TrMqnZ/MCKSlpLwd2NALuMYMRvV7vVyC+I+i+7nDa7bNM3v6sad6lfp0vB+HloN9lKwr9AgmKpmlvA9hXz3WZB8Xdjeqol99g4ueM6vznCUBOTk4GGDMCPqqorq5eFjhOVSz6gPqGJ6eu0PuqaptbUlJynICVAdW9qqGkYXQcxrsYXG/tApjwjN1uLzC7D3i93kpN88xh4NX6IzMajUSG60+v5qBXXHEBwV7/A4uhuat6AmC1WqfjzDvFs1dfGrwDa2npof+QYundUF7A6bA9C51fqidglui+EgwkOTV1PupvppGuEF7jM9smmd/dQf8b9FGnRO7/REFJbAVVcXeTjHor/xRdzwqbABD07wVdbMGFkjFt27YfTuDn6teV7mSFfoczr3fOfjjJ6XS2N4MtS0pKqhSLf3LQMKYbAT+PCV9gDt4FtyaR+z8H7mJ8xkIH41DkXPVHBLguLALgdOb2DdwKGYQvS73ezRf6YnFxcY3L7b2LQXcFLsABcCPqv0JMg66bZqxdWlr2DTGC1itQm1hwBkvQrEECShK1959Zp0KBOy35/X68F3cBAPG/gmTvzkvatm1tuADouvK9oEs3acaR2+1+jpmG1Hvqn38T98BE23a7PJ4VYDwdOWdVb8nNzbWFUkZeXk5XJvxv/YgAbyRi57fZbJ0BClpDQOu8Xu+h+Ltby2LUS/qRsyolZWXHjh3bGlG6FQA6duzY1ldbEzhDrkpRkhY1tRC32/1vm83W16rQ6+cWBdUfG3RxOm2DXS6vaRTa4fH8xO1w9AL4hnBeJy8vL033+1ZbLUqq6rBvO5M7UT6qra395OzGjBfD6XS2Z79/ru7n+wEERiqn/cz/SLCOn6somEqg34LRLuBX1aQoYRvGWYCMUDqcz+er1jTtVEu+q2naAVW1Pw7GzwJCvyG+mpqvnA7Hn/3MRR6Pp6wZ/tiOa2uvZqJrFav1RSsA+Gtq5oICd/zllaWlpUebU1Gv17s3Jyenb5JVeSVgJV7A4IXuBswTom0DalWiKWD+DEDYluD6fL6BCuHspKPrwLgO0JFktUB12I+A8A0xvmHGcSIq16FXEFNrKLCB0YN1/zUgWM4LoIjvjfbqxtAHuCh0Ouy3Ni0URhoY9gYiSZ0YheGcGcmE5b7amlDu8+8I4ZV4q1YZvzlVWfGduuH12TJVBj+hEB5XHfYdDOysy4FUAjhFTK2ZuA0xtSZCawZyAHTR/b62Z7eoZK793AqAmOiuwJVECtOCllS0rKysAsAEp8PxEIN/FdhYDIwqKChIjvZqvCB1Pei022czYW24higK6u/oGkR7MNoz0AcEMBgEOlOTCy/sqgHx/OCp2LGR0CJf0H1lcb23ThfrhQ1+eJyhzNU87lUG19RUB87u2bOnumvXrrdUVlY8R2e2CA9KBaGAgIJ6Lkw450sXciVdV3oqqpo7FOCAbanom1KP5/0Q6qu73O4H6mawBYY9x4uLi013mIXL41kP0CNBH+80TGQ8nl8x6EaAnkL9iSvNfhABvMqvcy9N8y5ADKLr2ARjTpA6DcZfSbH2dLuN7vwAOOpnXDQoAm63Z1bA6tFQ7egn4rZWYksXJg5YyaevNqKRNM27LC8vd6fuVx4FOIOh3G9Q4+8P3IZMZ2VbyHV1u3+jqnYLgOHMeMeteRYa6fdut/vfODOv/z6n05nH7LuRWLmewd1BuBSMTjh/YRYTsI8ZXzHxRiLLKk3TDoSvc+pHrAqKvr24ctToa3g8nvedNtsYJhoHBU2fe6HDD6CMiA7pwKdE9C/N3bIxdRPzQ7/WHA43MX8HihE7XfNnBkatHwAYeMaP/LdBRz8QX3aRU6Z9AHtBdJAZXxOhmJm+qK2t/ejw4cPlpj5QM5GoWziVoShKq5SUlGMHDhwoP9N4gtA08vLy0nw+XwYzZ6b6/ae5VauqAwcOnMBFpg7/f8/fg3OPqmKQAAAAJXRFWHRkYXRlOmNyZWF0ZQAyMDIyLTAzLTIzVDA2OjM3OjI5KzAwOjAwcAjt5QAAACV0RVh0ZGF0ZTptb2RpZnkAMjAyMi0wMy0yM1QwNjozNzoyOSswMDowMAFVVVkAAAAASUVORK5CYII=;" vertex="1" parent="DTonXnH4k2QmNZUPgTjZ-1">
          <mxGeometry x="400" y="200.5" width="142.22" height="175" as="geometry" />
        </mxCell>
        <mxCell id="DTonXnH4k2QmNZUPgTjZ-5" value="" style="shape=image;verticalLabelPosition=bottom;labelBackgroundColor=default;verticalAlign=top;aspect=fixed;imageAspect=0;image=data:image/png,iVBORw0KGgoAAAANSUhEUgAAAqYAAAKlCAYAAAAZ7y4xAAAACXBIWXMAAC4jAAAuIwF4pT92AAAgAElEQVR42u3d35WqbHvA4V2CJViCJVhBlgXkgBIswRIsgRJcqYASKMGTnNPBRL+FO7y+6PjnAe4HroNrJXmzZ4ZBkN/ALfz5+fn5AwAAU7MSAAAQpgAAIEwBABCmAAAgTAEAEKYAACBMAQAQpgAAIEwBABCmAAAgTAEAEKYAACBMAQAQpgAAIEwBABCmAAAgTAEAEKYAACBMAQAQpgAAIEwBABCmAAAgTAEAEKYAACBMAQAQpgAAIEwBABCmAAAgTAEAEKYAACBMAQAQpgAAIEwBAECYAgAgTAEAQJgCACBMAQBAmAIAIEwBAECYAgAgTAEAQJgCACBMAQBAmAIAIEwBAECYAgAgTAEAQJgCACBMAQBAmAIAIEwBAECYAgAgTAEAQJgCACBMAQBAmAIAIEwBAECYAgAgTAEAQJgCACBMAQBAmAIAIEwBAECYAgAgTK0EAACEKQAACFMAAIQpAAAIUwAAhCkAAAhTAACEKQAACFMAAIQpAAAIUwAAhCkAAAhTAACEKQAACFMAAIQpAAAIUwAAhCkAAAhTAACEKQAACFMAAIQpAAAIUwAAhCkAAAhTAACEKQAACFMAAIQpAAAIUwAAhCkAAAhTAACEKQAACFMAABCmAAAIUwAAEKYAAAhTAAAQpvDMf//X/24ujhcr6wMAhClMGabbi5+L5mJvnQCAMIWpw/Smvv436wYAhClMHaY3p4u1dQQAwhSmDtObg/lTABCmECFMb/OnhfUFAMIUpg7Tm8r8KQAIU4gQpjel+VMAEKYQIUxvl/fNnwKAMIXJw/TmfLGzLgFAmMLUYdqdP91YpwAgTGHqMO3On7q8DwDCFCYP07/zp9YvAAhTmDpMu/OnW+sZAIQpTB2m3fnTtfUNAMIUpg7Tm6P5UwAQphAhTD3eFACEKYQJ05va/CkAwtRKgAhhenMyfwqAMAUihOmNx5sCIExBmIYI09vtpcyfAiBMQZiGUZk/BUCYgjCNpDR/CoAwBWEahcebAiBMQZiGcp0/3XnNABCmIEwjzZ9uvHYACFMQplF4vCkAwhSEaaj5073XEQBhCsI00vzp1usJgDAFYRpp/nTtdQVAmIIw/fF4UwAQpiBM/z1/WniNARCmIEyjqM2fAiBMQZhGcjJ/CoAwBWEa6vGm5k8BEKYgTCPdXsr8KQDCFIRpqNtLmT8FQJiCMA2jdHkfAGEKwjTU/KltAgBhCsI00vzpzrYBgDAFYerxpgAIUxCm9DiaPwVAmIIwjTR/ure9ACBMQZhGmj/d2m4AEKYgTD3eFABhCsKUHh5vCoAwBWEaav60sC0BIExBmEZRmz8FQJiCMI32eFPzpwAIUxCmcR5vav4UAGEKwtTjTQEQpiBM6WH2FABhCsJUmAIgTEGYIkwBEKYgTIUpAMIUhCnCFABhCsJUmAIgTEGY8nGYtvc9dXN+Zmu7/Z/i4mxdgDAFYZpHmLo5P3MM0u1FdfFzZZ2AMAVhmk+Yujk/cwnS1UV5C1JhCsIUhGm+YXpTXWxsq2QWpYeL5j5KhSkIUxCmeYfpTenyPhkE6e46R9oXpMIUhCkI0/mE6d/5U9stAYN0050jFaYgTEGYzj9Mu/OnbkFFlDnS4ytBKkxBmIIwnWeYdudP3V6KqaJ0/2iOVJiCMAVhurwwvTmaP2Xk2z+d3w1SYQrCFITpMsL0Nn+6t00zYJCuX50jFaYgTEGYLjtMb2rzpwwwR3r4NkiFKQhTEKbLC9Obk/lTEkRp8ckcqTAFYQrCVJj28XhTPp0jrVMGqTAFYQrCVJje5k8L2zsvzpGehghSYQrCFISpML2/vZT5U57NkTZDRqkwBWEKwlSY9j3e1Pwp3TnS89BBKkxBmIIwFaYeb8qjIN2kuP2TMAVhCsJUmKZyfbzpzr6wuMv25dhBKkxBmIIwFabvzJ9u7BOzj9JR5kiFKQhTEKbCNNX8qdtLzS9Id2POkQpTEKYgTIVpyvlTjzedz+2fqghBKkxBmIIwFabfzp+6vVS+c6THSEEqTEGYgjAVpqnmT91eKp8o3U89RypMQZiCMBWmQzuaPw0dpNsoc6TCFIQpCFNhOtb8aWHfCTdHeooepMIUhCkIU2E6lNr8aYg50kMuQSpMQZiCMBWmQzuZP50kSovIc6TCFIQpCFNhOuXl/YP509HmSOscg1SYgjAFYSpMx769lPnT4eZIy5yDVJiCMAVhKkynur2U+dO0c6TNHKJUmIIwBWEqTD3eNM8o3eVw+ydhCsIUhKkwzWr+1L72VpBuoj1GVJiCMAVhKkzn5Dp/urPP/XrZvpxrkApTEKYgTIVpxPnTjX3vX1E6qzlSYQrCFISpMM2Jx5v+5PMYUWEKwhSEqTCdu+v86X7Bt3+qlhSkwhSEKQhTYZrL/Ol2IUF6nSM9LjFIhSkIUxCmwjS3+dP1jKN0v5Q5UmEKwhSEqTCdi1k93nQOjxEVpiBMQZgK0yVrcn+8aTtHehKjwhSEKQhTYToPdW7zp53HiApRYQrCFISpMJ3p403XGURpYY5UmIIwBWEqTJdxeT/k/Gk7R1oJT2EKwhSEqTBd3u2liiBBul7CY0SFKQhTEKbClMCPN13SY0SFKQhTGCtMV+38ntARpjnPn65GDNLd0h4jKkxBmMIUZ04rkSNMc54/HThIN+ZIhSkIUxg3UIt2hk/sCNNc5093A9z+yRypMAVhChNe3hdKwnTxjzf1GFFhCsIU4gTq+uIkcoRpxo6fzJ+2t38yRypMQZhC0PnTWuQI04znT/dv3P7JHKkwBWEKGQTqvj3Iix1hmp03bgElIIUpCFPIaP70KHSEqTBFmIIwhUjzp24vJUyFKcIUhCmEmj91eylhKkwRpiBMIUygHsyfClNhijAFYQqR5k893lSYClOEKQhTCBOoG/OnwlSYIkxBmEKkQN2ZPxWmwhRhCsIUIl3eX/r8qTAVpghTEKYQ7PZSpTAVpsJUmALCFCLdXqoWpsJUmApTQJhClEAtFnR5X5gKU4QpCFPIZP5UmApTYSpMQZgCYeZPT8JUPApTYQrCFIg0f3oWpghTYQrCFIgSqPuZzZ8KU2GKMAVhCpnPnx6FKcJUmIIwBSLNn1bCFGEqTEGYAlECNefHmwpTYYowBWEKMwzUHB9vKkyFKcIUhCnMeP60FKYIU2EKwhSIdHupSpgiTIUpCFMgSqAWwedPhakwRZiCMIWFXd6POn8qTIUpwhSEKSz09lInYYowFaYgTIFI86e1MEWYClMQpkCk+dNGmCJMhSkIUyDS/KkwFabCVJiCMAXCzJ9WwlSYClNhCsIUiDR/ehamwlSYClMQpkCUQN2PNH8qTIUpwhSEKfDS/GkpTIWpMBWmIEyBKIG6GXD+VJgKU4QpCFPg7UDdDTB/KkyFKcIUhCnwcaCmfLypMBWmCFMQpsDXt5cqhakwRZiCMAUi3V6qEqbCFGEKwhSIEqjFh/OnwlSYIkxBmAKD3F7qIEyFKcIUhCkQaf70JEyFKcIUhCkQaf60FqbCFGEKwhSIEqjPHm8qTIUpwhSEKTD6/OlRmApThCkIUyDS/GklTIUpwhSEKRBp/vQsTIUpwhSEKRDmEr8wFaYIUxCmQC7xKkyFqTAFYQogTIWpMBWmIEwBhKkwFaYgTAGEqTAVpsIUhCmAMBWmwhQQpkDMT+4/uDk/wnQuzhdb+zsIUyCfQL2/OT/CNHfNxd7+DcIUyDdQd+3N+UWlMM1ZebGyT4MwBeYze9oIS2GamepiYx8GYQrMc/60FJfCNJM50p39FoQpMP9A3Zg/FaaB50gP9lMQpsDyArUwfypMg82Rru2bIEyBZV/eN38qTKeeI3X7JxCmAP+4vZT5U2E69hxpYf8DYQrwKFC3F7UAFaYDO7j9EwhTgHfmT13eF6apncyRgjAFlhOU13nR0/XSfML5U0EqTL9VmyMFYQosM0x/2rOd1/99leB7rtvYFabC1GNEQZgCvB2mN9fbQRWJvvfW7aWE6RuO5khBmALCtC+orjfU3yb6Gfslz58K05du/2SOFIQpIEx/nQktE13ev86fHoWpML27/ZM5UhCmAC+H6d/500Q/b3GPNxWmHiMKwhQgXZh25093iX7ubinzp8L0X48RNUcKwhTg6zDtzp9uEv78RpjOPkyvc6Qb+xwIU4DUYXpzTDh/WgrT2c6R7uxrIEwBhg7T2/zpPtGybOc4f7rQMG08RhSEKcDYYdqdP011e6liTvOnCwzT0u2fQJgCTBmmN6kfb9oI06zmSN3+CYQpQJgwvfF40+WE6fWyfWF/AmEKEDVMb/OnRaLlvM6f1sI0HHOkIEwBsgjTmzrx/GkjTCd3MkcKwhQgxzDtPt401fzpUZhOojZHCsIUYA5h+vfxpgnnTythOtoc6d4+A8IUYE5h2r29VMr507MwHczRHCkIU4A5h+kQjzfdR5w/zThMK3OkIEwBlhSm3fnTWT7eNMMw9RhREKYAiw7Tv/OniX6vTZT504zC9D+PEbVfgDAFEKb/nD/dJfr9dlPPn2YSpqU5UhCmAML0+fzpOuHv2QjT3jnSjX0BhCmAMH3NMeHtpUph+neOtLAPgDAFEKafzZ/uE/3O2zHnT4OFaeMxooAwBYRpzMebnhcUpqXbPwHCFBCm6Z0SPt70MPMw9RhRQJgCwnQEKR9veppZmDbmSAFhCgjT8edPi0TrY9uOC+QepuZIAWEKCNOJby+Vav402eNNRw7TkzlSQJgCwjSOMuH86TGTMD2bIwWEKSBM417eTzl/WgUN0+sc6d62DAhTQJjGl/LxpttPbi81YJgezZECwhQQpnnOn24SrrNmwjCtzJECwhQQpvOYP01xeX/16uNNE4bpdY50Z7sFhCkgTOc1f5rq8aab3+ZPE4Tpfx4jansFhCkgTOc9f7pNtB53j+ZPvwzT0hwpIEwBYbocVeLHmzYJwrRy+ydAmALCdLmOCW8vVX4YpmePEQWEKSBMGeTxpi+G6d5jRAFhCghTMdqnTjV/CiBMAYRpCqcU86cAwhRAmKaS5PGmAMIUQJimur2UDyYBwhRAmIa6vZT5U0CYAgjTeT3eFECYAgjTVLeXOtiWAGEKIEwjzZ/ubFOAMAUQppHmTze2LUCYAgjTWT3eFECYAsKUVPOne9sZIEwBhGkItjNAmAIIU2EKIEwBYYowBYQpgDAVpgDCFBCmCFNAmAIIU2EKIEwBYYowBYQpgDAVpgDCFBCmCFNAmAIIU2EKIEwBYYowBYQpgDAVpgDCFBCmCFNAmAIIU2EKIEwBYYowBYQpgDAVpgDCFBCmCFNAmAIIU2EKIEwBYYowBYQpgDAVpgDCFBCmCFNAmAIIU2EKIEwBYYowBYQpgDAVpgDCFBCmwlSYAsIUQJgKUwBhCiBMhSkgTAGEqTAFEKYAwlSYAghTQJgKUwBhCiBMhSmAMAWEqTAFEKYAwlSYAghTQJgiTAFhCiBMhSmAMAWEKcIUEKYAwlSYAghTQJgiTAFhCiBMhSmAMAWEKcIUEKYAwlSYAghTQJgiTAFhCiBMhSmAMAWEKcIUEKYAwlSYAghTQJgiTAFhCiBMhSmAMAWEKcIUEKYAwlSYAghTQJgiTAFhCiBMhSmAMAWWFaYrcSpMAWEKEClQ1xeVkBSmgDAFiBKo24uzoBSmgDAFiBKo+4tGWApTQJgCRJk/PYpLYQoIU4AogboxfypMAWEKEClQd+ZPhSkgTAEiBerB/KkwBYQpQJQ4vd5eqhSewhQQpgBRAnVr/lSYAsIUIFKgFuZPhSkgTAGixKnHmwpTQJgChJs/PYlSYQoIU4BI86e1MLUtAMIUIEqgLvrxprYBQJgCxJs/PQpTAGEKEGn+tBKmAMIUINL86VmYAghTgCiBOvvHm3qdAWEKkNf8aSlMAYQpQJRA3cxx/tRrCwhTgHwDdTen+VOvKSBMAfK/vD+L+VOvJyBMAeYRqOvc50+9joAwBZhXoGb7eFOvHyBMAeYZqEVul/e9boAwBZj//KkwBRCmAGHmT0/CFECYAkSaPz0LUwBhChAlUPcR50+9NoAwBVju/OlRmAIIU4BI86eVMAUQpgBRAnXyx5t6HQBhCkA3UCd7vKn1DwhTAPrmT0thCiBMAaIE6nbM+VPrHBCmAPwWqMUY86fWNSBMAXj18v6g86fWMyBMAXgnUAd7vKn1CwhTAD6dP62FKSBMAYg0f9oIU0CYAhBp/lSYAsIUgDDzp5UwBYQpAJHmT8/CFBCmAEQJ1P0786fWGSBMARh6/rQUpoAwBSBKoG5+mz+1ngBhCsCYgbp7NH9q/QDCFIApAvVfjze1XgBhCsBUcbruzp9aJ4AwBWDqQL3eXqqyLgBhCgAAwhQAAGEKAADCFAAAYQoAAMIUAABhCgAAwhQAAGEKAADCFAAAYQoAAMIUAABhCgAAwhQAAGEKAADCFAAAYQoAAMIUAABhCgAAwhQAAGEKAADCFAAAYQoAAMIUAABhCgAAwhQAAGEKAADClOw3oj9/Nhfbi5X1AQAI03yj7hp0P3e2v3zNW/9+hN+h6ixLc1F88D1e+p2u3/vi1P6cnx7ndnmOF2vbGAAIU5YbpleH1GF6PRt7UT+I0V62LwAQpgjTIcL0rSi9nlG1fQGAMEWYJg3T9vJ9b3y2P/umG6+V7QsAhCnC9JD4+5c9v/P+yb9fXz+QZfsCAGHKxGHazmNev+/uGol3Xvr0fPvv9ndfW7T/ff1qmLaRuLv7HqsHP69r9eT711+s79u66f5e+2frvPM1fcu27n7Yq3OHgm03jtv/Xvy2HgBAmDKbMH1wdrHP8cmn3psXvn7zJBzLNr7OD762vo+yX36nf33/D4P0t3Vz7jsT2/Ma3QK9uh8buFvWcxvl9ZNRhMJ+AADCdK5henzjA0LHF5bl10+894TjK8ovwvTwQZTWXyzbtidge9fHh+tia18AAGEaNUz3PZe2u55F3P7NKFp/cLa1SRCm5xHDtPwmFl8J9i/Xxcm+AADCNGqYfhNRt5nOTc/P2n97yfx+dvKXGGvaKDy+cNZ1yDBtekYJdp2zqX3jC+WLr1FzN1Pbty6q9jVZtU5ubQUAwnT2YfrCzzs/+aDSRwHY9+Gk+9nJvigeI0zbDx09nI99MgJRvfAaHXpmZavfZnn7vp99AQCE6RLDtHojTJs2vjaffs9XY2zAMH0pAtszmu+E6XqodQEAwpRIYVr23Oap69cwfXC7p8MvZ0yPv1yyLm+XwGcYptt3wnTISAcAYcpcPpW/eXKbpt7L0R98ev0kTIUpAAhTYfpbxJ3fHAPoC6ei5wM693bCVJgCgDAVpr3//sEHfapXL+U/+fBQ+cuZ1rHDtJp6xlSYAoAwFabPw3T77F6hiT95P2WYNq8+zvPVDy71zO4KUwAQpsJ0qDBt73H67MNPm0efwO+ZPR0zTA8PHmta9Dx84PaBr+OT7326e979tuc+pqdEYVr23FKqFKYAIEznHqbrBwFXPflQ06NP5d++7tHXFiOG6fqDW2jVna9/NC9b9wRp3+/3TZi+8vM8+QkAhKkPP73w1KJHt45ajRWmT86avvqY0PWTAO1TfXrp/cNHku7sCwAgTOcYppsnEdb0nD3shmnzYpQWqecqX7w36+7N8F7frZdXovHYc+l9yDDd2w8AQJhGCdNVz5zk6oWYffjv2zOE+zZCb5/KLzrPau9+7brnU/hF+zVl53L+3+/x4JP7D7/no9/znd+p598e2oi8Ld+pc+eB7ZMnM216vvb2u61ffY3enDG9LdfpblnX9gEAEKYw1B8aH99zFQCEqZUAwhQAhCkIUwBAmIIwBQBhCsIUABCmMHSYNu3/LH+79RcAIEwBABCmAAAgTAEAEKYAACBMAQAQpgAke9P+82d7UVxvRdaqepw6//99+zUb6w8QpgB8E6LrNjDru3vkfqpub2V2jdu1dQwIUwBeOTNaJYrRZw7WNyBMAegL0lV7Kf5nJDvrHRCmANxH6aZ9ctjPiLbWPSBMuZ8fWzTbAt4LJonSq5X1DwhTunNkP0tnW8Dl+0mi1L4HCFOEqYMj/ON9oJpo36usf0CYIkyFKUR4Dzh5DQBhijAVpjD12VK3igKEKcJUmMI/PvA05b5XeB0AYYowFaZw3f+PE+97bhUFCFOEqTCF/+z/54n3vbXXARCmCFNhin1/lXg/atp51VN7f+Cy/b+vavsdIEwRpsIUht7361cvybcxfP25ex98AoQpwlSYwm3f3yeKUk9uAoQpwlSYwlf7/sGMKIAwFabCFCLs++W3Z0utR0CYIkyFKaTY97+9sX5pPQLCFGEqTCFCmPrwEiBMGeSWMduBJfnU75BsCwhTYQpgJSzjAPhtmFbWIwhTAGGKMAVhKkwBYYowFaYgTAGEKcIUhKkwBYQpwlSYgjAFEKYIUxCmwhQQpgjTiGF6fezi3e2lDne6/7/Vgl7X663GdoGXrRjw+2/uXveiZ7soIm8bSwnTu9dg98v+u17Ye3PYffiF/W7feQ13U+1jd7dc7G5f+/a/bXSAMEWYfvvGt28f11h/s8wXxzZOVjN7Pbft+mna33UbaNmuB4ZT53VYffnHyKF9Hasvt4euc/v9bgfUlTBNF1md16v58t7Jp1u4zvA9eXf3SNp1sOVbd/7Ye/e1PLfbwHqg977b8eHd/ec05B/LCFNmFKbtm+CxfUMb6ulS1VCR2r55f7JM+zd/TvFgHW0HWLbtm0Gyf3fZeg6CxwSxNvn2kdET16pE++4+4R8NjzRtjOwGeg/6dD/ZvbmfjLUPrz4M0TLx+/Dxm32qPVFxSPy+cM7pLLUwRZiOGKbtX79jh0jTvtGtAhzUDi8ezA6/nLEoAi/bswPu0H+MTLJ9ZBSmhwRn7adY7vMM9+HUYboL9EdF/c7l9M7Z5Gbg5Sr1gTBFmHbfEE8TH5TPqS4RfnFQq375vvsX35wPAyxb+eWB9tezwsGjrXn3jPYSwrTdd8tAr1Ex8T6caj9JvQ+Xv1zdqCd4rda/nBkdI0bFqTBFmPb+NdzM4axRgoNa/eYl+4eXy8aK5g+W7TDgjOUoB64PLovOMkzb174J+HtU3549Db6ffLJsTc8Z7qlPBtQPRhvq3I8BCFMyDdMv3vxD/9X8ze/Vc9agSvn6fLFsfQe2OvEZpVMmAVe/Ez4ZhWnxxu9UZnCGexNgH/50POk0wLJtPgjkwSPwzTPJY1lrBWHKwsI0gwNbOVFwr9s36uMQr8+3B9x22cpoyxZ5+8jod9rOZN/9Ok6/3BZX9pO3XqOIZ91PWkGYsqAwbf9qz+FNcz/BQe2Y4o068LLVv4x15HRQ3S8tTDOK0q/iNMB+cl5ImEbmrKkwZQlh2l5OyunNaZPjiEKmy7bJMHpWMwrTzQsfvssxMM4fzAXbhznqBWHKMsL0nNmbU5VjmD76az/yATeziHvn9kBZ/C4z+4Pyq0uzwpRnV3cQpswkTDN+Q91m+HtuAy/b5sm6q+d21nQmYVrNIDS29mGGfDABwpSMwrT9MECT6ZtTlWGY7nI74Gb2yfyXP82ee5i2nyyfQ2SchSlDnpRAmJJXmBaZv0GtMzuoHQIvWzGzs+qnGYRpPfOzpW89MjTIdrgXpvnf1xphStwwTXmJtmk/+brru9TSnp3dpvqE+7uf0BemX908vPjlQyxV+8nwQ/thnG3H6snTibbt9nIY4Kxs88Jl8Fd8/UnuN37WvePIs6Xn9nU49DgmWh8fz5rah/EBKGHKjMO0DYOkN2R+c4TgOOQZpYAHjibw2Zbm2VmrNiCbNkwObUxuBtgHVonXxSbBMlXRzu4k2ne6r/3hzasPuwHO2K4z2Yd3wjS/D78iTMkjTFPdZqb44ndOMUqwCh6m59/CfeJlKwLuC6nmJ3czDdNUd9Eov/kgSecPllHeR6beT4Ltw90/FIvOFYpi4vvanjtXT7pXTvYJr9AJU2HKTMM0xaXTfYAD/zZomL4cfZGXbcL94fAnwCxatDBNeKWjTLQ8m0RxerIPv7Q8xxcfurD5M84HW5v2WFK8eNa7FKbCFGE61FmXOuGBbfAD/4gHtebdGBlx2cIH6d1l/cln0QKGaRHtwJ7oDPc52D5cBNmHb7P70R4qcvr0vSTKsQdhSqAwTXTQLxL+7uehz/yMcFBr3p21zWHZJt4nTlMHWMAwTbGtbAd4rVLMnK7sw/+/7X77Hpv4cwQfzSMPta40gzBlfmG6/TPSbOeLy1MO/XsPfFArv3mzHmHZVpnuEwdhmnx56oFeq93QwRx5P0m4bGXKPxzGmrEde1vRDMIUYfrxTbFHeFM/Txh/dYqDyEDLVg3xyXlhmn2YHgO/hxUT7ScR9uHzt2ciB3pNjgMs01aYClOEabgDfsq5uQnir0nxwa8Bl62YyT6xE6bJ3yd2A75e9ZDrKvJ+Eu09NeH2shWmCFNhusQw3WYUpqfUl8YTXwZczWif2ArT+KEx1rqKvJ8IU2EqTBGmwnTsMG2GOqhHXjZhKkxHmhUfI0wj78PCVJgKU4SpMI1x77zIyyZMhemI2/HBPixMhakwRZgKUwc1YSpMhakwFaYIU7IN01CEqTAVpsLUPixMEaYIU2EqTIWpMBWmwlSYClOEqTAVpsJUmApT+7AwRZgiTIWpML0t++Z6T9f2ed5VgntZJr15ujAVpsJUmCJMEabCdMZh2j6D+9g+rSbytiFMhakwFaYIU4SpMJ1jmF5vSt4GaS7bhjAVpsJUmCJMEabCdG5h2l6yP2e2bQhTYSpMhSnCFGEqTOcUpm2UNhluG8JUmApTYYowRZgK07mEaXv5vsl02xCmwlSYClOEKcJUmM4oTE8ZbxvCVJgKU2GKMEWYCtOZHNS2mW8bwlSYClNhijBFmArTmRzUTsJUmApTYSpMEabCVJgK00mXrZ0t/RGmwlSYClNhijAVptHDtMpw/TqovbdMhTAVpsJUmApThKkwFabCNEKYpryRftMG3rtqYdFAb94AAAWASURBVCpM7cPCVJgKU4SpMBWmVYJt8hq36wkPYMJUmApTYYowRZgK0xmEaTN1kAnT7ML0JEyFqTAVpghTYSpMq2DbYxPkACZMxw3TSpgKU2EqTBGmwlSYRgvTkzAdLEy/PZO9H3A7PgtTYSpMhSnC9JMw3UY4IyZMYy5bgu3jIEwHC9Nvl6ccaBteDx1B9mFhKkyFKcL0mbUwFabCdPQwPUX8o/J6JlaYClNhKkwRpp+GaYqbp++FqTAVpqOHaYqHYxQBL+P/2IeFqTAVpiw0TBPNqp2F6WzDdPPtbaKE6WBhmuJqx3XfXwWL5do+LEyFqTBl2WGa5D6VE6yn1SdjBA5qo26PlTAdLExTPSq2ThGnCZ8QdrQPC1NhKkxZdpgeEh1QDiOsm227vNWnn/p2UBt9e1x/GV+HBGf1ZxemCf+ovJ053X3xGpUJnw62sw8LU2EqTFl2mG4SHlTOqebW2uXa3YXo1x/gcFAbfWaw+vCAlTJ25hqm+4Tr6Lb/7l/48NGq3TfLxD+/sQ8LU2EqTFl4mKb6wELfcrRv0of2DajPrvNvyvZrzkOekXNQm+SsXN1e6l09OUAV7TbQDLEtzjRMVwOsq/szqVVHPfDPK+3DwlSYClOEacrL+VPYCdNBw3SIbaMeKEAXFabtcpUZ77sf/ZFpHxamwlSYMv8wXY0cCikdhOmgYbqdQfDMOUzXM4nS0j4sTIWpMEWYzuGsaSVMBz+oNcI0ZpjO4IrHbWRgbR8WpsJUmCJM78+annM8qAnTwQ9qpTANHaa57rsfPaTDPixMhakwZQFhmvllW2dbhj2obYRp3DDtvEY5ntl2yzdhKkyFKcJ01FvQhPoAlIPax8t2Eqbh7/NbZPa6fHRzf/uwMBWmwpQFhWmml26PDmqDL9s641nTRYRpZnH68ROn7MPCVJgKUxYWphmeOa0c1IZdtiDRUwvTWVzWL795DKp9WJgKU2HKAsO088aRxYcqHNSGD9MJz6ZX7RnbQpi+9YGoaOMXTYonw9mHhakwFaYsNEw7B7iot6O5RvPxeobIQW2cMB359kRV94D4xZOOFhemneXeBfnj8quzpPZhYSpMhSnCtG/G8BDgEuHtUacbB7VpwnTgs+lNGzGbBz+3FqYfB2o1wRnS47uPDbYPC1NhKkyJFabVl44jHeTKEc7EnNvLkYdUb4zt5eCQ6zfysj05m75PsB3cYnT3ws/cT7Fe2sD65rUpgry/rDvrcKh99qXX0j483rIlOK5sBlimzbfLpRmEKTw60G3beCzbN4z6jYPY7U2mbL9HMcRf54zygZtD+1qef/kAU9V5rTfW36Sv27YN1UNnX3zlqkh9t9/uUp8ZBYQpAAAIUwAAhCkAAAhTAACEKQAACFMAAIQpAAAIUwAAhCkAAAhTAACEKQAACFMAAIQpAAAIUwAAhCkAAAhTAACEKQAACFMAAIQpAAAIUwAAhCkAAAhTAACEKQAACFMAALASAAAQpgAAIEwBABCmAAAgTAEAEKYAACBMAQAQpgAAIEwBABCmAAAgTAEAEKYAACBMAQAQpgAAIEwBABCmAAAgTAEAEKYAACBMAQAQpgAAIEwBABCmAAAgTAEAEKYAACBMAQAQpgAAIEwBABCmAAAgTAEAEKYAACBMAQAQpgAAIEwBAECYAgAgTAEAQJgCACBMAQBAmAIAIEwBAECYAgAgTAEAQJgCACBMAQBAmAIAIEwBAECYAgAgTAEAQJgCACBMAQBAmAIAIEwBAECYAgAgTAEAQJgCACBMAQBAmAIAIEwBAECYAgAgTAEAQJgCACBMAQBAmAIAIEwBAECYAgAgTK0EAACEKQAACFMAAIQpAAAIUwAAhCkAAAhTAACEKQAACFMAADLwf/S9SI8oXOViAAAAAElFTkSuQmCC;" vertex="1" parent="DTonXnH4k2QmNZUPgTjZ-1">
          <mxGeometry x="640" y="174.5" width="227.34" height="227" as="geometry" />
        </mxCell>
        <mxCell id="DTonXnH4k2QmNZUPgTjZ-15" value="" style="edgeStyle=orthogonalEdgeStyle;rounded=0;orthogonalLoop=1;jettySize=auto;html=1;" edge="1" parent="DTonXnH4k2QmNZUPgTjZ-1" source="DTonXnH4k2QmNZUPgTjZ-6" target="DTonXnH4k2QmNZUPgTjZ-4">
          <mxGeometry relative="1" as="geometry" />
        </mxCell>
        <mxCell id="DTonXnH4k2QmNZUPgTjZ-6" value="" style="shape=image;verticalLabelPosition=bottom;labelBackgroundColor=default;verticalAlign=top;aspect=fixed;imageAspect=0;image=data:image/png,iVBORw0KGgoAAAANSUhEUgAAAwoAAAHMCAIAAAD6dMj2AAD7hElEQVR42uydd5wUVfb2760O05MDDEPOCEhGQXBAEESCSFAQFIywhh8qKiu467vKrquurmsGUTEuukiSIEoSCTqSQaIwAkNmMhN7OlSd94+qunWre6Y6NzNwvh+Xnem+XVMd79MnPIe6XC6CIAiCIAiCqAj4ECAIgiAIgqA8QhAEQRAEQXmEIAiCIAiC8ghBEARBEATlEYIgCIIgCMojBEEQBEEQlEcIgiAIgiAojxAEQRAEQVAeIQiCIAiCoDxCEARBEARBeYQgCIIgCILyCEEQBEEQBOURgiAIgiAIyiMEQRAEQRCURwiCIAiCICiPEARBEARBUB4hCIIgCIKgPEIQBEEQBEF5hCAIgiAIgvIIQRAEQRAEQXmEIAiCIAiC8ghBEARBEATlEYIgCIIgCMojBEEQBEEQlEcIgiAIgiAojxAEQRAEQVAeIQiCIAiCoDxCEARBEARBeYQgCIIgCILyCEEQBEEQBOURgiAIgiAIyiMEQRAEQRCURwiCIAiCICiPEARBEARBUB4hCIIgCIKgPEIQBEEQBEF5hCAIgiAIgvIIQRAEQRAE5RGCIAiCIAjKIwRBEARBEATlEYIgCIIgCMojBEEQBEEQlEcIgiAIgiAojxAEQRAEQVAeIQiCIAiCoDxCEARBEARBeYQgCIIgCILyCEEQBEEQBOURgiAIgiAIyiMEQRAEQRCURwiCIAiCICiPEARBEARBUB4hCIIgCIKgPEIQBEEQBEF5hCAIgiAIgvIIQRAEQRAE5RGCIAiCIAjKIwRBEARBEJRHCIIgCIIgKI8QBEEQBEEQlEcIgiAIgiAojxAEQRAEQVAeIQiCIAiCoDxCEARBEARBeYQgCIIgCILyCEEQBEEQBOURgiAIgiAIyiMEQRAEQRCURwiCIAiCICiPEARBEARBUB4hCIIgCIKgPEIQBEEQBEF5hCAIgiAIgvIIQRAEQRAE5RGCIAiCIAjKIwRBEARBEJRHCIIgCIIgKI8QBEEQBEFQHiEIgiAIgqA8QhAEQRAEQVAeIQiCIAiCoDxCEARBEARBeYQgCIIgCILyCEEQBEEQBOURgiAIgiAIyiMEQRAEQRCURwiCIAiCICiPEARBEARBUB4hCIIgCIKgPEIQBEEQBEF5hCAIgiAIgvIIQRAEQRAE5RGCIAiCIAjKIwRBEARBEJRHCIIgCIIgKI8QBEEQBEFQHiEIgiAIgqA8QhAEQRAEQXmEIAiCIAiC8ghBEARBEARBeYQgCIIgCILyCEEQBEEQBOURgiAIgiAIyiMEQRAEQRCURwiCIAiCICiPEARBEARBUB4hCIIgCIKgPEIQBEEQBEF5hCAIgiAIgvIIQRAEQRCkFmGuzScHAPgMXWFQSvFBQBAEQVAeBSaD2M/ePyBXhjCSf+B1EmomBEEQBOVRNeoHALx/qEk5IXVRFfHCiP+BUgoAHuIJQRAEQa4iecSropqQJEmSJPazt05C6pw8ohyCIAiCwH6meqrVVQiCIAhyBcqjmlSRrIREUeT/FUXR7XbzOkmSJI/jIHVFGDFtxFSRyWQym80mFUEQ5H89pBLqJARBEOSKlUfewkhScbvdshJyuVwul0v+uaKy6nxecXFJeUWl/WJ+yekLhWUVDlEUa4sw8n+nhmBvDqH9XZ+HijqCQG1Wa/20hFZN6icmxiUlxDeol5SelmS1Ws1ms8VisVgssmAym82CCp96Q5GEIAiCRHW3d7lc0RRGLDgkSyKn01lVVXUx/9KJ0xezT108d6HwzMXC0rKKiImhILdYr62Z+pQe/D0IaGcP+oZ+HtP7rtV8baTklcViaZie2qppetcOLVo3b9gwPcVms1mtVl4qySElj2ASiiQEQRCkDssjvs6aCSO32+12u51Op8PhqKqqupBXvPvgiZ37sk+ezXVypyFQajIJZmtMTEysxWq1xMRf9kfJSypRPxJ9EJQmC+5WAR2ZuyuUiafIBpoAwGEvc1ZVOR12URLl0jL5KqvF0rJZxg3d2/Xs1LpRg1SbzRYTEyMHlmSd5CGSUCEhCIIgdU8e8ZXUcuUQCxfJsSK73X7i9MUfNu3ZcyjHXlUl73Umk8litcYnpcbExttsida4RCC4DV6ZiG5nVUWJy1lVfinPbq8URaX6PjbW1vPaVsMH9mjdvGFsbCyLJ8kiSa5eqtYXAEEQBEFqtTzig0aswMjtdsvhooqKikPHTq/dsm//0RyXSyRATBZTXGxCcr2GcUn1BLOVElCiJnLyCggQVElXuFSqLC0sLbpYWVkuiiIAsVrMXTq0GNq/e6drmsfHx8vBJDmSxNckKS9ffHEgCIIgtVweMW0kB41YKk0WRtknzy9Zs23/kROSBAIVrFZzSv1GSWmNzNZYAkAoBS2fBHxqidaWCmMkgrhdVWVFFy8VXnA4nLINUreOre8cdkO7Vo1lkcTSbR7dbaiQEARBkFoqjzwqjeT6a7nGqLKyMq+gaOWGXRuz9lc5nAKlMTG2eo2axyfXN5ksqiwCVQh5HlieCqd2LyFXOJLoKi8pKLiQ43Q6AIgtxjroxq63D76uQf20uLg4uSbJwwUAFRKCIAhSG+WRd0JN7kqz2+3l5eUHjuZ8vvinsxcLKCUWi7leg6YpGS2JbJIMoOXOgAAlBCglBCihgKVHVzXFuTlFeefkgv3GDes/NO7mzu1bJCQkxMbG8iXbskhChYQgCILULnnkoY1EUZRLsCsqKkpKStds2bt87fbKqipKhdR66fUatjJbY5XcGVVjRuqvAJSqYSRZLKk/UEywXYW4nfbCizmXivIkCWJt1jG39hl2U/fk5CQ50Sbn2lAhIQiCILVOHnloI7k9zeFwVFRU5OUXfrVy69YdhwBIjNWS0bRdQkoDIESODcmKSKswoiyzpl6mqz7S1BFEoN8dqc1UlObnns52OJ2E0n7XXzt5TL96qSmxsbGxsbFyXxsqJARBEKTWySMPbVRVVVVeXp6bV/DJ4p92H/iDEpKQmNSweQezNdYrWQYUKAhEKckGogSP2O/qvyyShOro6sTtqLx4+vfy8jIAuK5L2wkj+jRplJ6UlBQXF4cKCUEQBKld8sjD8lHuUCsrK7uYm//Joo17D58QKE2r3zC9WQe91aFSbiQXGAELHOkUEeHWqz+pESTAZrarkvyzR4sKLkoS1EtJmDgys0/PDsnJyXK9NiokBEEQJLwEOXON7+H30kY/7j100mQS6mc0TWvUWjEv0tymVQUEhKi1RrJpM/V0PaL6v8jpK1BKkpCrh/Sm7c1mS0HeucJL5Z8t2QSE9O3Zgc27NZvNhBBZIcm+APiIIQiCIFGVR94lR3K9UW5e/ieLN+49dNJsNjVo1CI5vTmL8SjNaHKPPlFHWQClOhlEidKwxm6mL1EihEjy1keJNqsUuVpIbdhaMJkLc8/YHY7PFm8UKO3TswMLGlksFhxeiyAIglw2ecTiRnIPv2xuVFxc/NWKn/cePGEShAaNmiWnNydcckxuUxOo4oOtFGgTkH+Rf1cCRKqKUlr9Cah+kYp4Ym1sgGm2q4/k9Oa2uKSLZ45VVlZ+tnRTQlxMt05tmUuk3MuGASQEQRAkRIQghJFHObbdbi8pKVmzeW/WnqOU0tT0hsnpLdhyAkBALrxWppBSQoBQUPJpOkdIqoSXiJo/U3v+lZwb625T/6Woja46YuJTGrfsZLVYKiqrPl26+ez53IqKCofD4Xa7RVGUX5zEj4nBCIIgCBIeecS2HGZxJJccHfz95KofdxOA+ITE9CbXgDYyjSq212pHv6qHtH+YjCJqWZEiiLTAEFUrj4C7iVa1hNvg1YbFFt+oRXtBoHkFlxZ+l1VcfKmyslJWSHJQE7URgiAIEj15xKfVWMnRhdz8L5dvrXI4rVZLw5YdCYv6aBZGrENfFjjq1kU5NyOgQAmhcvAIZAdtUMSUd7hIaXlTS7qRq464pPr1GzShlO4+eOLHrP2lpaVVVVUYQEIQBEGiLY/4imw5dGS320tLS1dv3J2bf0kQhIbNrrFYYgmouTBCJSW7xh1DCxqxi4FdTlXtJOsqqt6EUkoIJbKAItVOZ0ONdNVRr3HbhIREQsjqTftOnb0op9hcLpccPUJthCAIgkRDHnloIzl0dOzEmZ93HSWEpNRLj0uuD/qaWMpUkJIpo5RrZmPXUkIIAKUAqq0RixGBVocNLHSk6i/gqo8AJdJVSEbz9haLuaKyauWGXaWlpZWVlS6XS06xYQAJQRAEibg88jA6kkNHl0pKlq/f5XS5rVZLvYat5BYztbYIlDmzlFBCKFDKSSZ1sgjI3WiqiZFqagTK7bXKbcUwSY5FyZeq+TWmiUBXmoRcDVhi4tPqN6KU7j1y6rcjOXyNNlYgIQiCIBGXR97N/OXl5Tv2ZR89cYFSWq9BU5M5BliNkZIXI6x4WmlgY3EhAspQEUpZ3TWRtNspwkeNLSm5NyBUqfqm6iAS7vwoZyqJXDWkNGgeExMjSbBiw+6i4kt2u93pdPL5NRRJCIIgSGTlEV91dKmkdP3PBwiBGFtMcnpzvjUflIIjtVZIYA5HWixIdTSSZMtIKgeQ5M5+FoGiLCen+iURpr3Uym3grCeV88Sn9Wp6BZss6Y1aCpSeyy3afeB4RUWF0+mUK5AwgIQgCIJEUB7xXkcul8vpdFZWVh7JPn0ut5AQWi+jhcdiqnoUAVAgFORUGnA9awD6XJsslfhWNtknUsmgKcdhrkhAtN44XaETQafIq5CE1IY2m40A/LzraFlZmd1ud7lcfAsbgiAIgoRfHvFVR263u6qqqry8fOuu3wmhMVZLQmpD0DruVZmiWEDKTf6qEba6RI4waT3+VJcSY25Hcq+aIoFYREkOGlEKnjdQ5RHlDAWQq4O0jOaU0lPnC46fuiDLI1agjSIJQRAEiaA84jNr53MLsnNyKSUp9Rur9UCaPxGoY0RkhUP1ddTaqDRKuDJuwoJKVNVPauhInVkL/ARbUOqzgWuQY04ABEuQri7ik+tbLGZJgm2//cEKtDG5hiAIgkRKHrHv33LoSJ6wtv/IKYfTZTGbktIa6UbK8o38lBVl6yJHSuc/ZZaOSo2RLIcoIZJyGKDAtBbrg5PjUWqESJsyQr0MtIHPvCFX+OvYZElOyyCE/H78wqWSUpZfQ4WEIAiCREQeMZHEWvodDsfRkxcIobbYeMESo0oQpRCbqiEcqgZ02GBZte8fuPogIESgAFpRN1G9suU0mnI8zQqJEqV/jbD5tpT9Xcq0kqy7JMC5bFcLsQkpVKCXSivPXSxyOp0eDtoIgiAI4j9mP7URCyA5nc7yisrcghJCIDY+mWrzPTQZQrXiau0YSl+/RNRefq3Jn6XY5FkihALljqMck4WmgFA5Pyf/bcVCSTFQUk6Dsvm2hEjRzLNddVtx7bFSsMUnmwTBLYmnzuV37tCKn7+mFMIFNX7m0qVLixYt2rp16969e4uKiuLj4xMSEq677roRI0aMGjXKbDbXlWeqoKBg8+bNWVlZR48ezc3NraiosNvtDofDbDY3adKkadOmnTp1Gjhw4E033SQIQoTOIScnZ/v27bt27dqzZ8/Fixc9rk1JSWnbtm3Xrl27d+/evXv3evXqRfQBKSkp2bVr186dO3fu3JmdnZ2fny8IQkxMjM1mi4uLq1+/fqdOnTp27Ni5c+frr7++Dj3RCIKEZ3dzuVw+tRELGpWWlhYUFOzYc2jewp8opS3adYuNT5GVC3hlsiivkOQefKok05Q+NVXygKBqK1UeAeEH04JsKklB9gjQ/RFluSy5KFe6pMgiNb4U7kptkC0qASTJQSkIVIwxV8UnixYbmMwgmIggUOU+EELl7UbQPUL8FuSWyKWSKskNnGikrNJdkY+SMphO+Z3dOYnKelGLx1HO7ECRr1TtKQSPkXX8VDz5MgmASNqdJEQbDSNH9ySRgEQlt+B2WwVqI9RMiEkwWahgkse/UEoJpdHPbZ4/8VtJcVHrZvUfv3doo0aNUlNT4+LirFaryWQSBCFQeVReXv7CCy/Mnz/fbrdXu6B169YvvfTSXXfdVZvf4Tt27Fi4cOFPP/106NAhfwJpTZo0mThx4uTJkzt37hzGc/j6669XrFhx9uxZ/2/VrFmzPn363H333cOGDbNYLGE5k4MHD27ZsmXnzp07duzIzs72M7KYkpIybty4KVOmXH/99WF8arZv356Xl5eUlNS1a9fU1NTa8GopLi4+ePCgLJ179uzZokWLWvIyzsnJ2b9/v9lsvv766xs0aBCxb7dQXFxcVlZWqeJQEQQhJSUlLS0tJSUlNTU1MTHx8j4goihmZWXt2bMnMTGxXbt2/fv3D+PB7Xb7sWPHqqqqCCFut7tevXodOnSI9D06d+7c4cOHz549W1ZWpvvea7O1aNGiQ4cOEX015ubm5ufnZ2RkpKen+yuP+KBRVVVVSUnJxYsXv12TtT7rsMVibds5U9lFKdXvsMS7wZ6qzkRUW8ibR3r35SvVSUz4KKJJM5IEQgTVDVINR1HdAT0uDcP7R3JbzWXNWkjJqa5GGe6UJJraQKRJoskGsSaTQARZS1SJ7jLJGdiXe4fdIYqUEElSAmOqjAEie2bKwoWqYgWIJGs0ILoSdzmyJl8hKbpJGc9CACR1BWju5Kpzp1YFL6l9hRJRpRLhgn3ySgncbnBXgbuKul3UWSZUFlscJTGuynh7aZwgJJssNkEwUUGgVIjOR0Zp0fnzOcfibJY/TxneqmXz+vXrJyQkWK1Ws9lsMpkCkkdbtmy5//77/dnOH3744ffff5/WssnIoiguX7787bff3rZtW3BH6Nq167333jtx4sSGDRsGd4SqqqpPP/107ty5R48eDeW+pKenT5gw4YEHHujWrVvQB1m3bt0bb7zx008/hXImnTt3njJlyj333JOWlhbKcTZt2vT//t//2759u/xrUlLStGnTZs2aFR8ff7leMG63+5///Of7779fUlKifP5SOnDgwFmzZg0ePPgyvpIPHDjwwAMP7N+/n10ydOjQjz/+uFGjRqHHUw8cOHD48OGjR49mZ2dnZ2efP3/eZ7xAJjU1tV27dm3atGnbtm1mZuaNN94YGxsbtcdk06ZN999///nz59klffr0efPNN3v16hXKC2DHjh0bNmzYsGHDzp073W43f23v3r0///zzdu3ahfFeFBQUfP/997t3796/f/+hQ4eKi4uN1yclJXXu3Llr1669e/e+7bbbQnwPMpYtW/bKK69kZ2cnJiaWlZU1b978tddeGzFihF/ySC45cjqdFRUVxcXF58+ff+/LNTlnC9IaNE5vco0sVoBS5lkNOgGkF0taObYa+1HGiwAR5G1f+U1do0oh0O8+WokRUEpYcEmLk+iCWRC6nTYQsJgqrulQNvxGa+O2pFJyXXCWFbvt5U6XRECUqvsOGuBfY1XmTKMQ3SxfUHzFQZU+hEiqTmLxHapqHFD/UzSUGm1SZRCwSnbW/AcikdQQEQtGyX+VtyeXhZF2rSazgJoopUQSwVkhlpwXCrJjKwoamE3pJqtNMFmoHE+LqCZwOY4f3iGK4pQ7M2/o2Sk9PT05OTkmJsZisQQkjzZv3jxq1KjKyko/10+dOnXu3Lm1RyGtW7du2rRpOTk5oR8qNjb2pZdeeuKJJwLKuImi+Mknn/zzn/+8cOFCGO/XxIkTX3311aZNmwb0ob948eI33niD319DJC4ubsaMGX/+85/j4uKCiE88+OCDX331lfdVw4cPX7Zs2WXJ4rnd7smTJy9dutT7KkEQFi5cOHbs2MvySv7tt98yMzMdDofH5RkZGd9991337t0DPaDD4di6devatWt//PHHgwcPhqswMTY29pZbbrn99ttHjBiRkZER0cdk4cKF999/vyRJHpebzeZVq1bdcsstQUTm5s2b9/nnnxcWFhosy8jI+OGHH7p06RLi+V+6dGnp0qVLlizZtGmThwjzH7PZfNNNN40dO3bs2LGhPOAvv/zyvHnzXn/99bFjx9pstsrKyiVLljzzzDN/+ctfZsyY4VseyQ1rTqezvLy8oKAg59Tp1z5aXVnlbNK8XUJaY607DPQmjdXs/5RljBTxov6fql7UsJAir1iUiM/MeYWbtPwdZdNq1Romfj0V2NzaAN8SZlN5v34l/W+hJWA/Zy+rEF16kRe+0K4aAgKJE00SS22xoI6ijYgkd/dRSY0BUaZslOMoP0vyoyQxJUM4gaRoLNBHjyiAJtS0/6kRKUU5AXDyDZTolLJaMFFnhXThEMk7lG4yN7HaEgSzNdIi6eThX6uqHLf0bT/m1r4ZGRkpKSk2m43l1/w5QnZ2dq9evSoqKgL6uy+99NJzzz132YVRRUXFrFmzPvzww/Aetm/fvvPnz7/mmmv8Wbxx48YZM2YcPHgwEncwLi5u5syZM2bMsNlsxisrKys/++yzt95669SpU5E4k2bNmr366qsTJkwI6FYffvjh448/XtO1s2bN+uc//xn9l8277747Y8aMmq612WwHDx6MfqJNkqS+ffvu2bOn2ms7duy4b98+/1X71q1bP//882+//dYjdxNeKKWZmZnPPPPMyJEjI/F9qaKiokOHDt51ezKtWrU6ePCg1Wr182jr169/77331q5d6y22qqVXr15ZWVlBn3x+fv6///3vjz/+uLy8PFwPSExMzOTJk//85z+3bds20NuuXbv2vvvu27dvX35+/u7du00mU2Ji4u23337kyJFbb7110aJFfskjufCorKwsLy9v977Dc//3k8lkatGuuzUukSrmj+pUED6rxQ8RoVyiSC6V0SJJWnc+qxNiB6OUL16qRg55HF2OY7GCJCDsxIJ6f4LYsWPehAnkLLl0obKcRLgKWQnKSIRPC/IKBICyIXYiYSNVgIVyKABI6u+SnBuTK+KBz73xwSF1sRp1Ai15pytXklStxr5wqRk6lvwDSSuf5yQouJ1wcisUn2wWm9jIYksQzObIKaSLpw4WFxa0a17/0XuGNG7cOIjyo4kTJ1b7NdoYm822b9++Nm3aXEZt9Ntvv02YMOH48eOROLjNZps9e/ZTTz1lMplqWnP8+PGZM2euXLky0ve0W7duK1eubNy4cU0LtmzZcu+99/LZhwgxefLkOXPm+B9Gat++/YkTJwzE3/Hjx+vXrx/Nl43T6WzVqlVeXp7BmgceeODjjz+O8ut5+fLl48ePN1iwaNEin2Etp9P5zTffvPvuu/v27YvmyXfq1GnWrFl33XWXwfslCN56662ZM2caLJgzZ87DDz/s8zi7d++ePn06S+/6z+bNm2+88cYgVN0777zzxhtvREibCoIwduzYf/zjH35+hZMZMmTIzTff/Ne//nXSpEnbt29v37793r17R48e/cEHH7z00ksHDx4UfIaC2TgRt9vtcrkulVUQQgRKrbEJRIvHEC1PozXzaykZlt8iSuE1b5Sthowop5NAEwh8YY0ybY27GSFa0xqzP1LrjZgy0pci+/k9gDhGj8y7437XXsf5C/Zy9V5FCkWRqCKemWdS/lpQQksSIVTik2OyTRRIkhYKUg5LNUEjt3Dp5I38yErqUZiVOZBq2vAkXZO8+gsw/eR1XCWNZ7KQdoOF5jeeLCs6UlVeILockWu2j41PIYSUVVS5XK4grI9yc3OD292rqqr+8pe/XEZttHfv3iFDhkRIG8l38Lnnnuvfv39N9Vhvvvlm165do6CNZCHYr1+/w4cPVxtyeOWVV2699dYoaCNCyIIFC/r27Xvs2DF/Fp8/f95AG8kRryVLlkT5lbN27VpjbUQIWbJkSU0NCpGj2hSkR6DXeMGbb77Zpk2bhx56KMraiBBy6NCh++67r2fPnkEX/1XLrl27jBf4vKcA8NJLL2VmZgahjWRdFdB6URTnz5/fsWPHF198MXJxO0mSli5det11173++ut+JuxEUfz1118feugh+ddRo0atXr36ySef/P333wkh48aNW7dunb+2kMz0qLTcTggxmS3a/DPgx6Vx7U5EKZvm9ybKDZVlN9UGkhCd47U8aI0q0kmuctKartQONbU9SxlqK0ecqKa/qOYrqRzMn70SnOPGFzTrXb6vONftX+AxJG0k3wvK6Qu5H1DJVhHNQ1wVNFzoh8pmUmpKDpQ8mqR2t4H2pAC3hA8UadVOfLE20VJqrDNO+VdJ2zHhxW7FjkD5knEAyOhgbT+0sKzgiL0kX3RHSiGZLVZBEOwOt8PhDGKuyH//+18/azO9WblyZYTyOP5oo6FDh/qsbQydnTt3Dh48+MyZM/yFJSUl48aNmzVrltPpjNpdPnPmzE033bRp0yb+wry8vNtuu+3FF18URTFqZ3L48OG+ffv6U/TtTybom2++ifKLZ9GiRT7XlJeXf//999E8q5KSkh9++MHHm92wTuu1116bNWtWTXmoqL02BgwYMH369ECT9SF8zQbjR1WOsgT9BikoKPB/8blz5wYPHvzYY4+FtwbR4Cvc888/f+ONNx44cMDnYrvd7nQ6WUH9//73v+uuu+6VV16Ri7LNZnN5ebm/I2nl6JHb7T5zvogQEmOTD0qZDAGPyiCWHwK1g51tyXIpEdEkj1LnokV/WCmNEk8Bvfu2koOiSu6HsiAKqNaS2ssEPGWIVjdEa5ai4s0DCxt1c5youBSt17QaFJJPTC4iUoNuoAVj1AQc7wgFXG02MAdOwoshLRQEmnqlWnsa0aXoQBc4kg9LwSMYyB1YAi34xN0h7rkiIBEQIbVFTKubSkvyjlWVFUqiCyIwF89siREEWlZRVVRSLopioM6Qn332WdB/WhTFefPmRf8j+MCBA9HRRjInTpwYNGjQ6dOn2bfVXr16rVixIvp3vKSkZNSoUezb+ebNm6+//voNGzZE/0xKS0tHjx7tM05Qr149n/1Nv/zyS0D2ByFSWVm5atWqcKmoMLJixQrvimwPmjVrVtNVq1ev/tvf/kZqAZIkzZ079+abb87NzY20+jFecOTIkb59+65evTqUE/DfVWH9+vW9evX65Zdfov9dsV+/fuvWrTNelpCQ0K1bN6b2MjMz77nnHlEUBw4cKGcD09PTA0iuyQGkotJKQoicWdO1Vyl7OGVJKGDd6dSzD0sNIqmBJ2YQRIBZYjPzHr7TjRc1+l45qgaJQLVI4u222aFAL9+qDeS4evU922+omF1SGJ1OJEn0PB1gaUvQ9ZEpOkbipqyAPu4Gam2R2kAIEtfFry85ktvaFEkmAV9VpBNCEqg13eoNtXAUa2LTRJg6IE93VkQihAJIpHGXuHptC0rzcxyVJRCBr/iWmDhKqARwqbSSZdb8VEj5+fl+ZkkM1JVsFhI1Ll68OGrUqKhpI5mcnJxBgwadOnXqyy+/7N+//8mTJy/X3mO328eMGZOdnf3+++8PHTo0Ol9SDc7EOLlpsVhGjhzp8yM3mvm1VatW+RnY+P777yNa1OzBwoULjRfYbLahQ4fWdO1XX31Vq+zy5T3bZzYwLGqs2su//fbbzMzM0E9AVg8+z2H27NkjR47Mz8+/LI92ZWXl2LFjFy9ebLxs+PDhX3zxhWwZ0KlTpxkzZjzyyCP/+te/5LTspEmTBH90KJ9fczhdlBCz2cp7FgFfSATM/ZoIajMb6At3QK25VuWNHAQCQihlU2lBnwUDOcREQWuQA2aGBKowoKDPDgFhHtzcZBLuX69a3Y4di+4eF3ewPD8KpoZKwEhgtVlMygCo1yqPJ/Bt/Kydn7I2NgC+b1/VphJwcTRV0RBNmwIwzyPd5XzcCHhxC+DV90+8ooac2wAvoVUbgPa3JruqTlcWX3C77ABhTlwKJousC+1VDlkeSX7nRv3v5K+JwsJCnx/r4eXRRx+NZrCBcerUqczMzClTpkRZDlb7mPfv3//pp5+OZkKtpjMZM2aM8QNyzz33+DxONPNr/v+tqqoqP+NMoZOXl7dx40bjNSNHjkxKSjKIcZJaRk5OzoABA0I0mAguevTyyy9PmDAhdHU7dOjQTp06+dRGDz300MsvvyxFvijFAKfTOXny5Pnz5xusmTJlyoIFC7Kysj744IO///3vsiqSTQe+++676dOnm/15PvgAEqv+AS6iw2I9VAnRyJUy8mavWmVzER/Wsw+shht4j0jNJIDzTwKtQ41o9d9MbVE1qURZZz9VPJO006REm49LPeeeEEIIVA4fLv566YLd5YqGjY2n9KCUz50BX/fMFfdwheqq/RFXVMTGrahxI13izFMb8VZL1QTUALiqJf5YTEdpVkmet9Q9ndyxzTG0aS84s/1sTEKayWIzmSJgGkkJP06E/RuF53TOnDkPPPBAdD4CvvrqqxBD5aEQlmRBuHRJLTmT33///YUXXnj99dcNNpj69esbF3Ds2rXr5MmTrVq1ivTZXrp0ae3atf6vX7RokT/yLnSWLl3qU+xOmjTJ4NqgJ9I0aNAgJSVF+yChVFBxu905OTmhlKjn5+cPGTJk+/btLVu2jNSW4iWPZs2a9eabb4Z+5BYtWvh0DJEkacqUKT5r6r2xWq2ZmZnDhg0bMGBAy5YtWbtfZWXlH3/8kZ2dvXfv3rVr1wbk5SZJ0mOPPVZcXPzss8/WdI+WLl06fPjwMWPGPPLII/Xr179w4cKCBQu++eab1atXN23a1OznY+2RodAyXNpOyXQS6GQTVWNCqkrRj4jlVRZvmK25ZHPpMzUcBNyQDLkQWyt1Uf6n+ksqo0nYxBGdiTbl/joQQkjLtpVCmqOixBnpfRS8mvvUUBDVVURrMSXC+Tiy1cB0E1XdGpWQmsTrGU+FxBSR3iSJezqA62LzeCWwC7TBI0Rf76X+znkgATcfRQLSvHfKia159tL8mLhkwWaKgK02lSTwVkjGZGRkWCyWoEuzZfbt25eVlRVE72ugFBQU/PnPfyZILeOdd94ZPXp0ZmZmtddaLJZx48b5rFH75ptvomCjtXz58oCq6detW1dcXByF+Sc+Q7D16tUzyKwRQgYMGOCz+kR+Oq699tqeKp07dzb2aACA06dPHzlyZOvWrRs3bty7d2+gMcuioqJ77rln69atwTX8Bxo9eu+990LXRvHx8Xfddddrr71m/NRLkvSnP/1pwYIF/h+5efPmI0aMGDp06M0331ytZXxKSkrjxo1vuukm+dfffvtt2bJl//vf//xP6P/1r38tLi5+5ZVXqr22R48emzZtevPNN2+77TbZWWPo0KE///yz7A9u9v9ZkQNIWuaE8FMvNBMiZpTD+VfrXBQ9DbWpR8BBGzJG1UpsykdMeEdIWQBRLs3GQlNUzbVRQuWwAWg23do5yxNwVa1wXVdnjqMkOnEjiZMbTPxQFpIBnR+jRAmVtDXEw1mbz2Yp4T2WUtMdVZEsTDzJff+KrRHwhWS6BBrzrFLlj+QRjqou9gReP7L/syWaU5qJlfm58SkNzTFxkfHYlEBnWukbm8122223LV++PPQAUhTk0csvvxxQFwkSHeRN4sCBAzXtf5MmTaol8ijQRLDL5Vq+fPmDDz4Y0bM6ffr0r7/+arxm/PjxxmP4pk2b9tFHH9XUSSq/0ydOnDhs2DCf/qK6zYrSFi1atGjRYtiwYfKIusWLF8+fP3/v3r3+H2Tnzp3vvvvu008/Hennd9euXTUFToxJTk6+4YYbOnbsKE9l7tKliz/jbp544okvv/zSzz8RFxf3/PPPP/300wGNU+zWrVu3bt1mz569bNmyZ5991qOFtib+/e9/9+zZc9y4cdVe26FDh48++qjaq/ztXON/o0TXmqRu0FyWjVLd7ghUK0jxKNqlXns86/vX11HrgyxyTEjTTZRZKQFheT2qVSip/XGE63WXnYUEdi6UkMqW3d0VDlfEP0HB2zuRZSVV5aQGiURJm+zBZsfyLlOKVSNrHyNUc9f2DOoQkGe6eTy3oIu/cR39hDdMIp422vpAoK5kqZqwE9/xL7mgSbcEe1mhw14iia5IPch+x40YjzzySOh/+dtvv4206c65c+eib9OH+El2draB8ujTp4/PxNnBgwePHDkS0ZPMzc31sEXwhyjURS1evNjne9Y4syYHPDZt2uRRKCMIwuDBgz/55JNz584tXLhwzJgxAWkjb1JTUx9++OEdO3Zs2bIloHHFs2fPDsvMH4PN2ul0Tp06NaDgVlpa2tSpU9evX3/x4sXVq1e/8cYbDz74YJ8+ffzRRl9++WVNIsObkSNH7t+/f+bMmcGNmqaU3nnnnfv37/+///s/P23Tp02bFsRnsuD/ww0AnJ5hHo5U0AqllRgSVdNioNUIyaPcNXml3EgifF8apYQSbSg95fvDic4gki+doXzLOVX60LVGdKXeiCpOAgBA5XOkfEiEEtK8pcNkkkik2x0U9cPNAVFTaKCWZlNJkRmiWmqtPUjKrFnQWRZJbKqaMk6Wf3x470eW8AKJG82mKE0usyZxESFJbYdjok7i5p94lBaxtJpeY2khR+WuQb028ZJY5qi4JLocYS/Q9j8W7cHgwYNDd752uVyR1i6vvvqqz7Zn5DLy6quvGpSm1oYC7SVLlgRRzL5p0yafHpKRjmm1bt26T58+Po/TtGnT3bt3f/nll0888cS0adOef/75o0ePrlmz5r777jOo6Q6Ovn37/vLLL2+//XZiYqI/6ysrK6dNmxaJDzS24NVXXz106JCfhx0+fPiKFSvOnj37wQcfDBw4MNDBf4cOHTIYlcPTvHnzpUuXfvvtt6HPqElISHjnnXc2btzoz6GKioqmTp0a6HYQcM0HV0lMJCJHKrTYhMRHD0AVOh4lM14HJEQ38ws0D2fKTbnVuswo4awAdHaJnmVRsk5SnLoB+Fm1FHTnBASaNXUUuu00wtbYEtf9Lmf1WFUXl9ICVecQbUgaa9FjokOSJ4cAsPSi1rev1ySUqzdSc2NampSbIcL63XQTZzVjTV3JkT64pKsbB95iSTOw0oJatkRzfBpxVpaIrqra04JLKfXHkt8n8+fPj5xHYm5ubij+TEgUOHr0qIEDU22QR8G1WIqiGMTInYAeN5++z/6Xh5tMprvvvvvNN998++23Z8+eHbmCaDk0NW3atL179/bq1cuf9evWrQuvoTYvjw4cOPDaa6/5s37QoEFbt25duXLliBEjgovllJeX33XXXf5UrE+YMGH//v2jRo0K4/3NzMzcsWNH165dfa5cv379Bx98EBF5pBVls4wWVT2OdG7XwA+mBY/iY75uCbi/r98c9XXfVHM4Yrs/Gz6rSAYqZ6Yo99e0sAVnEqCk4UAd4Cbw494gPR0uOSP4jZxJEW0uL7D5K9w90sJn/OAOrldMIix+xO6bFkPiLH50LkTAlWMTz9kjvCEkV77N/axITO5pBG44G+FqxLwGkvCvAcp9nMSmCi5HhdvlILXJoeT+++8PMeQu2xFFbhf56KOPoulPjQSHge3KNddcc9111xnf/I8//qhpGmvonDp1Kui9OaK6zR/R5jOzdhlp0aLFmjVrevTo4c/it99+O+zRI9l/Z+rUqT5bTFq2bLl27dq1a9f6E4oz4Mknn/THLu6pp55asGCBP3m6QElLS1u7dm3nzp19rnzuueeOHj0aqegRcIXZ2rbtXWjtUbKrm+NBmbu1Z/GK/ijc9g3qVDfgnB65qSFAtM45QcvdgZKsk4fmysk/1bUS1Hpsosx5FUVX/Xqi3b9xLUEjaVZFymlTToIoCUHKeS0S6qEeAbh4ma5sS3Mv4l0TJDU/RrhcpH46Gj+DjXIeSMBPI9FXHjHHSkr5HB6bGeehuni5zErPJUhoYBGddtFVJUkRcawJLihVr169mor4AmLu3LmRuFMul8v/HD9yGVm1apXB+Cd/9vjICZFQLLCzsrIiZ7Xl8y736tUriNns0SQpKWnNmjVdunTxuXL58uVhH0MEAG+//bZPYT1lypS9e/cOGjQoxD+3bdu2//73vz6X3Xnnnf/+978j95jXr19/3bp1HTp0MF5mt9vvv/9+/w2ZgmmopjWGRjyCEZTyOzkzeNacIrkRazrfI+VSqooJqH78hOKWpFpHg1LdzIaWEM7aEFQVpZojKvoIlHInk0mMTRcjl+VhNdHAJyOpJl9Y1IfZP6oJN6WkijK/SCCSOmlFnqwiG1sTfUmWalWtjSsB3vGICx0pik3SNeYDN6IWQG1V0xWVU8/JLRIBXbjIq/IIgBsbB/HpMaLL4XZWkYjUHgX/VD766KOh//lt27YF1M/iJ0uWLAnLGCmr1dqrV6/rrrsuvBPFq8VsNnfp0mX48OH33XffpEmThg0b1rlzZz9rKsN+Jr169brtttvuvffeyZMny2cSoU7VwsJCgw4sf2a5+1OkHLkgjcEGHCFf7z179vi0da7NoSM+nvH111/HxMQYLxNFMdAiRZ+vh8LCwldffdVgQUJCwvLly+fNm5eQkBD6PfXHW6RNmzZR+EaXnp6+ePFiY18GeaSu/15xAX9CUY9IhrplCkreDbieNDVbpHVbMb2jOSZRbmisLgcDsq+R4m2kDSvRlxkxa2y2LVPF7ohNeJWllty2xo8lAbaKErCYK5NShQiJI62QSis5Z/qH/Z+mjZguYsEzRdZI2lwPbbKvpGkPbaIIS7dJ6vwQzb3KU8nK/txcTo4dixs6zMWfvGfW8hYAWgU/N6eWjxux4yfUs4qiU3Q7JEkEUovyazfccEPfvn1DP877778f9nMLyzF79eq1f//+rKysbdu27d+/P6Cmm4AYPnz4qlWrCgoK9uzZs3Llyk8++eTzzz9ftWrV3r17z549+8YbbzRp0iQ6z+mAAQMWLFhw/vz5rKys5cuXf/rpp5999pl8JnIbYOgl+d7s2LGjpqsyMjIGDx5sfPMzZ874bHEPgt9//93Yu3ns2LGXJazlU7SZzea77rqrTsQOO3To8OSTT/pcFvZBvxs2bCgpKTHQbevWrZM9fsIS6tu+fbvxmpiYmIULF4a9Fr6mx/yFF17wuey9996LlDzimrqVKbRU6QBj+S3qNV9NnUivxnjY1FQlfMLyPrwPNmEJHcpGbWhii+g63Ijc7EXZjDetd0uRVEApN9gNOCsfOYxjNksud0RSPJKu0Ed19tYNKqNE0ikPFnOhWpgMiL4TTflV5OyNiJaulNT2Mc0MQGK31ZUMMa2l+5VTaxJ3Pp4daixIpUo3riybSGpuz2P+DKgq1xJnBnBLLieIYq0qP/LzW5FPFi1aFF5D5507dxrsuH5iMpm+/vprpgauueaar7/+OvRyKw86d+68bdu2lStXDhs2rNqCg/T09OnTpx87dmzu3LmRqEhgdO3adc2aNRs2bJgwYUK1vnbp6ekPPPDAwYMHP/zwQ5/fPgPi8OHDBtf6U2IciRk1Po/5/PPPG9cX79q1K+xTOwDA55CsIUOGpKenkzrCc88953OA64EDBwJqOA9lJG2jRo1++uknPyvHfVJVVfX888/7XPbWW2917949ao/59OnTfaY1f/rpJz97+oKNb4O+oEjdmim3xVMuoSLofZBYYEcNHQGVz4WrZeJGooEsxdQKbUXWULbTAuGLdOSefjbKhOuMY4beVO2kp6DWJsXYiEOUwj5nDfg7zkkDNUJEJVAlo1onxOXUlAcVdI36oNVheTgNAeiyV3wxOPD5ScoXL6kemkRnnMDsF7xdqTzegdRDD2v2V5Qvk+eHyLDvglaBgCiKTkly17aPtttvv719+/ahf4J8+umnYTyrOXPmhH6QO++806OFp1WrVjW5PAfHvffem5WV5bP6WM7x/elPf1qzZk2EvJgHDRq0efNmn3EaOTLx0EMPbdq0KYwBLeM60DFjxvhUY/6M1wjiS7/xV/Bu3bpNmDDBp/QP71n9/PPPPkuaojPSJFwkJSXNnj3b5zJ/3L3DcjJr16699tprwyiyfRZOTZw48U9/+lM0H3Oz2Txv3jyfiXs/A0jm4E4CeDdlbXukvCM2tzlS0BtAKuMztEIkKoF2Y74gSZu0xtUFU4HVEzEzbHZTAdTZZZTboKnmuQiaibcqtAgFp+Q87yoPtzqiFIjJQkURqspcLrvkdoOr3F1V4RbdIIlAqFZFRFhOjWqV1FQduMa3jOmyVEytSGotEIAupaWEknSd/Ep2E7hhH0yTmqhJoNZYwWSjgkBNNsFiMxNKQFT/rIeQ8jS3BGaeTjWbB95wG5hPldlmoiaQRLfipERr0UcbpXTGjBmhN/nPmzfvmWeeCUt9T15ens+v1/4wY8aMaj9WwvXQjR49+pNPPgmooKdPnz7r16/v169feAfcDh06dNmyZVar1f+b9OjRY/Xq1ZmZmX7OsTfmjz/+MLg2Pj5+9OjR//vf/4yf9E2bNvkj7/xk9+7dxmd19913E0LGjRv37LPPGoQiwu7r7TOmlZiYGN6e8Chw3333zZw5s7y83DiY4f+UxuBq0QRBWLBgQceOHcN413zOX7NarQbDByNH7969J06c+PXXXxus+frrr1955ZW0tLQIyCPKxQuAKgVC3HQ0UEab8eEE8Ghyoyw0pPTl82EpwkcauBljyhwQkCglhApK9kybaUJl10fiOeCEE3FKEApY/EupSzbHOavEcMYwBEEoza86uaP4wpGKolOO8kJwO6kkCQRM1GQRBDMVBHnWGADo7r+HG4JelnpeBUZXVrNIe5tJNb39AABABHBTKppjSFwKTWxoSm5sTW1mTWoW6zljVueOzY0PrimCxp2LySqYrURyu0ASQVcqViuYNGnSiy++eOHChVAOcvr06e+++2706NGhn09YvJRuvvnmnj17Ru5Bu+aaaz777LMgip3lWQFh3HGTkpI++eSTgLSRTKdOnf7zn/+EpTy/sLDQ7XYbSM977rnHWB7JuiGM8shn2dDEiRMJIU2aNMnMzPz5559rWib7eodrx3W73cuWLTNeM3bs2PCmPqNATEzMsGHDjCvZjTOwYeFf//rX8OHDw3jAvXv37tq1y2eor1GjRpflYX/66aeN5ZHdbp8/f/7MmTMjEj3Stj5KqN6qCAjfWs+kDaW64V1KCRIhHiNjlQybFmqiLG5ElXCHGjEiII+75YyDJAqUFxma7NIklhpTokpBknKN2SqGqziYUlqSa//1izPHs8oIiTPbksy2+pb4OFuyTTBZqGCmJrPJZCZUUKzEqae6od7zav2N6QW+0OvrCBAAkEAUJcktiW4Q3SVnncU5jj+cFQkNylv3FzLax4qi4o7tHToCLtHpWQauXy0I1GShouiUJJGEszSbhiUSZbVan3jiib/+9a8hHmfOnDmhyyO32x2W7o+aaqrC1b310ksv+Wkc7M1TTz310UcfhauoZdasWRkZGcHd9sEHH3zzzTf9cXPx54kzkEe33HJLgwYNjH2oly9fPmfOnCB0XrVffowDkL169WrdujXTSQbySFZa/iSP/GHDhg0+BwjWrcwaY9SoUcby6NixYwDg5xswiOjR4MGDwz7fzWfoSI6+X67HvHv37gMHDjSemTNv3rxnn33W+GEPWB55fsdXSmgUmQGcsxCoBtWU82dkER1WW60EcphEoMSzTonb0ynrTCNAOe8joLx3pDrdBJToFsjWkhLlBq5RUIexydKNmsKzPVOB/pFV8OPbOS57rDWxmS2xgTU+zWyLN5tjqGAmgkBVVUTZOJboAIEtVZrcQAIAkERJcktul8tZeWx9fkxVef9R9fb+cZGNAQYuTETBOxCmpkj5CCEQQkAwEZBEkEQCtfGj7eGHH3711VfLyspCOchPP/0U+vfsFStWnDt3LsS707Vr11tvvTVyD1fHjh3HjBkT9M1NJtMDDzzgT++JTzIyMvzpG6oJQRBmzZo1ZcqUSL/AzGbz+PHjjUvKLl26tG7dupEjR4b+53zW98iZNZk77rjjqaeeMrBuWrRoUbjkkc+YVuPGjW+++ea6KI+GDx9uMpkMCsgqKyvPnDnTvHnzCIWvwt4/W1ZW5jMTetttt/l0IYooTz31lLE8OnPmzNGjR41PMvDGftD9RKnSLQ+Uct9ANd9Dj4lbfN+Zbo4s0dvweO3rugMBPxpE85jUsnRKITLVxtBLlG/o5/JDTMGFYX+mlObsLPrh5eNuV1J8euvkRh0SM9rFpTWxJdS3xCaZbfEWa6zZYjOZY0xmq2AyC0IU/zP5/59FMFlMZqvZEmO2xlpiYi2xCTFxybbEegmpTVIyOvyxt9XZXULXFg30vXH6TF81HXFcylNTk0RWYLXzoy05OTkspYWhW0SGxWQy0t/nJk+eHKKbkZzZCZ1AJ7F7M3LkyOg4M0XTH9J4VzOZTOPHj2e/pqenGyf1srOzw+LsZbfbV6xYYbxmwoQJl8UoK3RSUlI8JuN647+Vc6AflTNnzgy7i+aPP/7oszLvMoaOZEaMGNGwYUPjNVlZWT6+JoUQjVBLh4D3teacArUhE7ruJqo1qgPlet6ZtpI8sjNcqoTyTXPASruBm1/C2Qt4Wh8Sj24stlsrzXUh79FleY61rx8XzMlxaS0S0tvEJjeyxCaYzTGCYKJUoGFK+kQdWfkKgmAymS0WW3xcSuPNP9aLsSekJcdyIUROywJnPkA9Y1ecbbdcQOYpoGsVTz75ZHCjiHgWLFhQWloa9M0PHjy4ZcuWEM+hefPmBp4xYUmuDRw4MMQjtGrVyp/hAP58ZQ/xCGlpaX6OhggRf2ygV61aVVlZGeIf8lnfM3DgQI8dJTr9a6tXr/YZoJ08eTKps/iUR6EHhqulQYMGs2bNCvthf/zxR+MFvXv37tev3+XetOjQoUMvnzxSmuUpF8Rh1T7cFFNFd/DpF65WWv2FanaBWj8Z4ZJuhA88AOfKzYyelbgRX2/N9mPwjEOpNT9a8TYNdX8WBPrrglPOSktMUsP4tGYxCWkmi02gJnJlQakgmC2W2Po/LLf0at0IwLMMHjxijeA5YkYXR6SUkForjYhco8pnHIKjvLz8yy+/DPrmYennf+qpp8LYnlYtYbGXDIs94w033BD6QSKU7/DGZ1VNRUWF/1a/BruacX2P9+t8zJgxxkG4sPh6+8zUdOrUyZ+Zo7UWnzVwIabva2LSpEk+nbsjIY9qSYOhT/fLyMojD+8j3SwvreuM/UL53ZNyjefcbSjlZ4oRr4SM2uZGgSjjyqjsA6nYYnNbsdrMxvKBWjKPaiEOnUtTSO/z0kLHsU3F5tiU2JTGMfFpJrM1QsMKLr9CIpSazAUF9cpyzVaridlOAidGAfTN/7pBfJy1JKW1OXQkM2PGjNCfyrlz5wa3kVy6dMm4C8PPWMhDDz0U6QcqLOmPsLxrgi4P56lfv34tkUdhya8ZHyEmJsa7biwxMdF4jzl16pRP32SfL+81a9b43Obr9AemTyct/z8ZAvoM8d8vwH9Onz7tc/DLjTfeWBse9ltuucW4oSE7O9v4C0NQH2eeGgQ0n0Fm2QhcNbZyA0k3kETJNHFpM1YvxGXmtBojFvmhSoiJ8q353JbLZ9SobLOj7NOy9xHXZUeAKkEnEurQL0pP7yyWRGtMfD05biQ37V+pUELN1thDe82tGqUAKBZHuqHFVJ/EBOIxYw9Inck1XnvttaEna7Kzs9evXx/EDb/44ovQEyuPPvqosTN16KIkXF8Gas+XiqjJozZt2vTu3dt4zZo1awyGRfikqqpq+fLlBguGDx+enJzsfbnP/FqIum358uUOh8P49RCuijQ/EUWxoKDg+PHjJ0+ePHfuXH5+fklJSUVFhdPp9H+aKc9l8SO4/vrrw2gCydi4caPxAnmYY214/yYmJvo8E+OhPSHYQmqKSG0+E5TuJGUorNqrCFyJENU11zN5QxULa9CSZuw6ooaPqKrmgE0d4RqnWIk1ZZk6gUWvKLOhJLzJEFEMBUL/PBZM9PyRMpPFZolLtsTEU+FK1kbqgyccPx7T45aEI1IB90xrTtz8FBXeKYtwLx5SB4JHRO6HD3060ty5cwNtHAOA0IuybTbbtGnTIv5yCJOsqT0hqEjnIj0CJMbjYhwOx4oVK+67777gjv/9998bZ3BqkiAjRoxISkoyqJxbunTpf/7zn6CfNZ+ZtQEDBjRr1ixCD/u5c+d2796dnZ194sSJ8+fPnzt37vz583l5eQZBmri4uIYNGzZt2rR169bt2rVr06ZN27Zt27RpE5YJr2GMHkUidCQ7Hhkv6NGjR9gnFIXyzfaXX34xWJCVlXX77beHUx7JQ+4VnQGyERFVnQYFeQaI7E4kD4eVm+hZ7z/f5iQRStWNVFnF5eO4FJsiaSTi0TfODB7VUbdUbeWn2uA2LXVHALghuYQq5UsEiBDCx6lEKUhQeNIuWBLNMfHUZLmyQ0csgFRWFmM1mSj17O33jDN6XqiYMFCoM6Xq/fv37927d4jzzn744YeTJ0+2atXK/5usWbMmdB+ge++91+fsp9ojj67UlLQx48ePnzFjhkEXvRynCVoeGcd4kpKSakqiyUk3g8q5CxcubNmyJbiq/IsXLxp3X0cis3bu3Lnvvvtuy5Yt27ZtO336dKA3r6ysPHHixIkTJzy6JTIyMtq0adO1a9f+/fv369evcePGl/HlZLPZfIb9giMnJ8d4QS3JrMn4tFMx/kgPZhenmoCR1Jod0E+nkCuLVEkElChDV3UTR/gWNHYrbVa9MjaEDzVw0SPlk1SLDRF9lbcuAaiEmtRRtFzSD0BxpwzFs5lK4Khwl+W7BbPNZLYJwpVWjl0TomhzVlpMgvKQ68RQ9V9zuDIwKVIxowjtrqEPqZUk6YMPPgg04BR6MOaZZ56JgihBeRQK6enpPiOLGzdu9OmdWC1lZWXGsU/jEmyfua2g82tLliwxnihns9nuuOOOsDzCkiStXLlyyJAhrVq1evzxxxctWhSENjIgNzc3Kytr3rx5kyZNatGiRfv27adOnfrFF1+Ed3avn9Gj0aNHp6SkROKF6vPu1Cp55NN7ydhSIcggh+qvSPkEmfyL5DGGSy0woaBqJO4YrIAaPE2i1ZQd6xfnAkEsy8a5YzNvAaoOamNbpap+qPIvKx7ma8WD+0gGVXSJDslVJQkmKzVZyFXz+S6YLPZiGmMza/bYQHQ5Nc/QEecGzhmG1wlGjx4duoPI559/7n8h0fHjx9euXVsbTjuahEUe1UWN5bNB0u12L126NIgjr1ixwniYnbEAGjRokHH08dtvvzWOe9WEz4Eqt99+e1JSUogPbElJyTvvvNOhQ4c777xz06ZN0XFZO3HixBdffDF16tT27dtH3wTo/vvvj8RhAcBn9CgsTaNRk0e5ubkGb43gkuvAj8JQm4+IrH+o5kQkR4VA6d9mw0fAY8QaP1CWek4joXxEgO+Ioyz0pGzJAmFDTUAdUsImr1Imxrghbtr7BCgE8yhQJcYFRBQl0U2sJrNgMtdNc6Mgcdgli1lQq+Yp5RyPPMYCE7U+3lNf6ie0heE9HCEtKAgzZsx47LHHQjlIcXHxwoUL/WwiC7rZjSdqH80YPQqRUaNGJSQkGI8v/eabbx555JFAj2wc3WnQoMGgQYMMFphMpnHjxhkEMgsLCzds2DBs2LCAzurkyZM+s9UhDhJxOBwvv/zye++9Z/yoRpowDlr25wMhNjbW+AkNmgsXLhjfF5PJtH///v3799eS95QkSfIgVoM15eXlNYVOA5dHmoDhW+Yp864GZoRN+VkfuqiR5geg5bW0DnwP72XK7In46m7wOCVNO8kjciln761NywWP8wBt8lrgn8kUQFLFobNCFN2EavaPVweUCi5LTJwJPMfQKs871c0RAeDdRAmpczpy8uTJs2fPzs3NDeUgc+bM8UceVVRUfPHFFyGecGZmpp9f5q6w5Fpd1FhxcXFjx47973//a7Dm559/PnfunM9GcW/tYrBg3LhxJpOPeoCJEyca53kXL14cqDzyWZRdr149n85+BuzZs+fBBx+MwsDX2kbnzp19PqHB4TMdKYpiWKbfRJOKioqaelQDT64BC/JozjZKZz9QKs+LpaCm3ADUpaD3OWJjYVn+DbxyMErGTjUcZKNEQJ+V4SaeEnXym1rgrUgv4KaH8PVPappNrUDy/+NXkuvEJQISAUIcFSKlJkGwUGq6qt6KLhcRBDYwDwC8W9V4n06uZ5D5YEGdubM2m+3xxx8P8SD79+83nvQp8/XXX4fSyC0Ter1U9BWJcDV0fQYbLPE5U9abZcuWGWe+/HE97dOnT4sWLQwW+OzPD0IejR8/PjjDepfLNXv27MzMzCtPG/kTPerevXuE/nqI3wxrJwYdncHWHuksbdSibAqqUaPaxwRKH5smTrReM8IPogDiGWVS+/Op7uPX+8WhNzJSx+Eq5djMZZuLPvFjRmShRQPdpdk4MVakLrkkSgXBZKImU7BmUgAAossuOstFZ5noKJMcpZKzlLhKzGKxRSq2SEUW0ed/hWax0CwW8f+ZxCLqKhIdJaKjVP2vTHRVSaJLktwAUtAKhRJiF8HlEgl4HQO83tVaRhXkeTKU1CFppPDII4+E3sHrT8F16E7ZHTp08OkbWwu5apNrcpVPo0aNjNcEWgdtrEJatmzZp08ff54U406o0tJSn+6OPAcPHvSpXYIbJFJSUjJgwICXX345uHKoK4DIyaPQv7DVLXkUTO0R5fJZlAIQCgCUDRZRB42o8QNJHqxFVM8hzlmbUn56O2GDZtUgkBpx0FWxcAehNWzHlAKX0KFU8TeStGNppUMEZI+mQB4AIFp3nOIqKRFKBS2zFsjOD5LYMLG8dzdT4/TETm1ik+uJAq0kYgkVCBUESmMoEWrwUGRe30BAJEQiRCIgEu9qaAAAF0huAgQk6pbijp8ynyskx45V7PjdaodEwWylgjkIPwIAEEXg7R+5pCsng+WnmrlPsdhjJPZXEsHi+NTU1Iceeujdd98N5SDffvvt+fPnDVp/N2/efOjQoRBP9ZlnnvFfamByrTYgCMKECRPefvttgzW7du06ceJE69at/TnguXPnjEOV/jsuTpw48fXXXzdYsGjRotGjR4crdNSmTZsginwrKipGjhy5c+fOoF82bdu27dmzZ5cuXRo1asRP5BBFUZIkt9tdVFRUUFBw+vTpEydOnDx5MrhewjoaPboiMRj5EpLvGWgTOtQuLqWMhwIBIqnl2ABqtRKloJYFaV45EhC2LWuV3nK8hyqV1WxXlbvSgHIJM9UDUmcSCerZUaU0XA1fgLJE4MIXQP0tzZbUEhp5hobisQQAwNeSBxAZiTfbHxkX07tnChXPE+kYER3E5SYSFwuTHyyJauaX/BwUQogbCIjE7SbgJpKLC7BRbaU2q44SQqyUdkk1dUm3DuvVsLKk6Iuvj39/rJklLs1kjaWCKdDaKb5iTF+LTZW3M1Ur5rVJLwA1h5rCoI8iyfTp0+fOnRvKd1O32/3xxx+/+OKLoYSXjGnUqFGIZa11Wh7VXSZNmmQsj+QA0l/+8hd/jrZ48WJjo2f/5wl26dKlY8eOR44cqWnBd999V1FRYWzO7r88CuLVW1VVNWbMmG3btgV0q+bNm/fv379Hjx49e/bs3r17oONoysvLT548eeLEiZycnMOHD2/btu3IkSPRaY6r6e0TlqHOVwlpaWkGoxWDS65pVoxU814EdfAZBX5L5tJbskQB4KMLhBCBKpUooNvD+cGyoOkvNa6khIioPmGnJHnkWSFqNg40i0jC+2kTNTRFwd9NVbm/knIiVOISfjr7bYkQ3/XeIEkPj6U3XOegFZuII5u4yono4sqxWM26QIj6r8d/8nlIbOi9/irQzAzkUWnKf4QQkIirihTlxLkLH7vbmVn/iKO8QHRWESmk8SrUQ+8AZcN+VR1JCHeudZHmzZvfddddIR5k/vz5Lper2qvOnDmzYsWKEI//+OOPR2IaJUaPIk337t19etn5n18zXtm5c+eA5k4Yh5oqKyu/++47f46zbdu2U6dO+ZSJgX7luOuuu3yaTPJce+21X3755bFjxz7//PPp06f3798/iFF9CQkJXbp0GT169PTp0z/88MPffvstPz//+++/f+GFF2699dYImQ8Z0KRJk8syw6SO8vzzzxuY4wcnjyihSkmyLHeAqlNDlGmxaiqNaAXSoHVxM+tqpoqUuSO8ggFv7xzK5IBWWKTUbLOeNc5aB5SAFd/JJrtVavMtFKNtQiyCPxkZCsod1wy9gXCZNsIZQVGgRDLWAL3bl9zQK5bY9xBtcD0TNExvCPr4jD7kosy2kwgAAamGOAzob6U/EKVEgsfuNsU6chwVhaLoDOyrT/UlR9ozyTJu6iw2feo1Mjt1pKVX6N3yFy9erMnD5qOPPjL2yvNJYmJioO3ftSe5hvhUBocOHfKn6PjEiRO7du0KS+hIxqcR86JFi8ISOrrhhhvatGkT0Ll99NFHP/zwg5+Le/TosWjRon379t19991hb/JKTk4eMmTI3/72t9WrV+fl5ckNdNH88ha5gxtPeK1zDB061HjaUlDyiDKpoI6RlSuVKdXGymqluMC7ClGurxu06AdRja/5Kmnw2Ogo81GiTP2wa1QPbCYTgBAJgEgAEpHkliq1nlr+TQL5CJJEKIHW6fFWwWwsAyQAkLhtn6/71rv7KBlBIpCas3YmsE+5w0QdvxBJ9BGLkTzSapwQkSQCIhElQkRVsRodyUO7aG/pFGFyv1J78VmXvRSkAPdm0CqgeFUEarKVUEIlNohN7xpaN+nateuQIUNCPEi1GTSHw/HJJ5+EeOSpU6dWO160TnCVR4/kII3P8/epMHyu8Vlt7U2bNm2uv/56gwVr1671Wb0riuKSJUvCGzoqKir6+9//7s/Kli1brly5cseOHWPHjo3Ci4RS2qVLl8GDB0ftxRNRBWNQplO3aNu27VtvvbVy5UpjcRx07REluvwIpUoRkVpYxCQD5UbLUkJAkvvzqVp9zVrPeKci/c5LuXmmVNFiVNYgEkgAkkgICMRhNrvNFokKQClQQbYYIBQoCPpiJ0rV85In6ZKUJNKuiyPP5TbQRqAbKqbcX/AOdFEKhFJNGtb4CHZvUZqa6iBVbk6r8KEjquhXCbgqIo/TkkWIbDIgKtE7TopWd0Nak2ga1j/ug+8uOMtTLbZEagqwAskzj0h1M2OUxFqIs1tqFzNmzFi/fn0oR/j111/37dvnUUe5aNGi/Pz8UA5rsViefPLJOiprrvLGfpkWLVpkZmYal1R/8803//jHP4yPY5xZ69u3r3Gvfk3SzSAi5c/c3E2bNhn3h1sslvHjxwd0Vv/4xz+Kiop8Luvbt++qVavq7jcHf0qzI6r5fBpumUymvLy8Wh5kopT6WXgQnDxiZkSgBlEUj0XKokWaiaMcMqJqJ7zSRwZaZIi1NbEEHSvcYYdkSC6nPTXZ2bwl1E93JieS9DTJliJBopScZDKbiJlSIMQhSiVuh//ZGwngor0CpJrX6+IyzLlb/5KV65F4FyZOOnpHTLp0thHxrO8wHXilitiRJNl2SSIgVheRodrAFE3JgofzE1ttSzO3rec4Ul5sc2YI5hjq9+Q4qPY9zFQxqKahhFICkpcDeoTeAZF+jw0ePLh79+779u0L5SBz5sz5+OOPfYaUAt3AmjZtGn1xg6XZYWTSpEnG8khOnBnEcnx2zgeaWZMZP378zJkzDcq9Fy1aZCyPfMa9hg4dWpNNX7X8/vvvH374oc9lffr0+f7770N35ajlRPTt07p1a4vFUlPRpBwaLC4uDkJ2107MQT8JoPahqf6KameYoFVZU9boD1qtCbCQEFXbmvgAEVWrgaiunFqg7mbNyvr1hC7dLEKiZHeJF6XyIpe9WJRckiQB0EvaxitxHgH+hsKogWAnQJVWNRYU0YJGoI2fg2q3ZqimAkkS3S0zgEh2vZrhQ0cCATWtBtXJEDmLCBKR5LQaVBfSodqAD8+cGvUWiR2aCAf2l4uuKgtIhPgljyTiLd6AG3UHVOvjA/D2YoCIfEJELYB07733hnKEb7755rXXXktLS5N/3bZtm3GxiJ9nVac/lzG5Rgi58847p0+f7nQ6jV88BvLIWIWYzeY777wziBNr3Lhx//79N2/eXNOCH3/8saCgoCZ943A4li9fbvwnAu1Ze+WVV3y2kTZq1GjFihVXvDaK9CvfbDa3bdvWoHuRELJ9+/YrRh4F7nPDioiVgiO1oZtSpX1MmxxBCFW2RzaAjR2DKrPY5GvBMxZBiebqIzmu6174z786pz1JbNcVZrlObC48taP07JmK0gqnyymKoFhzazJDoJRyfVo+/6tJG/EaCNSGOTY9Vykx0tVmA3d/9LlC8Bhp4mreWNTaxKC6wA9Uaw2uno0EhEhKAEmb9Qve4SevKvca7q1I6qULkssuuqv8r86m3uNnlep5oCAHjkAbYexxinW8BmncuHEhfhDY7fbPPvuM/frOO++EeErDhw/v1KkTfr7XdVJTU0eMGGG8ZsmSJQbvU+PM2uDBg9PT04MOTxpc63a7ly1bVtO1a9asuXTpksHNk5KSbr/9dv9PprS01J8xva+//jr7EoLyKBR8tlX+8ssvV8yDGbA8Uj2wQe+/p7arKVkVFvBQHYu05n9uvwZlD2XpNuA6muSl6fVL/jbDMfpu2Cuc2FyQk2uvkGR1Fa2PUAl0J8zNwiAA3ns+BbUlz7vMxuMCU0wFp6O8q47Y5d6ahiolR3JdNhFrjMFUEyeinrqNW924oUVyOyW3Uy7nClg6E3k6C4Dudy25Rz3/MK3T8+nMZvNTTz0V4kHmzZsnpypOnTr17bffXq7QESbXahs+gyhnz56tKQG3fft248nq/rtBenPHHXcYz/owUGY+LQnGjh1b03zQatmwYYNxjE2ePBjK/a1VXN7aI5RHvsMFlNUEEyqp+kCpPKJEjuVoWkefV+NDQ+wirrNNcz2iILVrl/+3WaaclPPbL521i24qRPVzEwirl1J9m4iW0wLmnA3AV2BrJetUr3T0l1BCDGt7DCNaBJTQUY1VR17RI0/FVH3MKsYiSJIouV3EqA6r+j/CJhNTrZNQ+xMeR5PUiFtdb2F78MEHQ/xWmpOT8/3338t1SCH2819//fUDBgyo619bUR7JjBgxwqdrTk1qw1iFxMbGjhkzJugTS0tLM27b/Pnnn8+fP+99eXl5uU9jpEAHiaxbt87nGgP/VYweBUqHDh2MFxw4cMBgTMeVLo+0chMgVKK6CR3AlxMTfe5Jq9yW02qSfpAsVcqPlOJukHr0yLt7qrix9GSxwx79D0x+89b65bWhuhQIyHcBlJ4x7wPwg+mo4vyj3hOBiiZTTA2hI4EQSiQlmacTF/IPIiEgEkkiktzPDzW3o0HNWqiaSwVBtnWSglAtoI4TAfXuUNUkW6ruTlCJQN1vUYqPj3/00UdDPMh//vOf8vLyTz/9NMTjRHMALcqjSBMTE+OzPKjacbOSJBl3zt9+++0hVuEYOwJIklTt3NyVK1fa7XaDGzZt2vSmm24K6Ex+/fVX4wVNmza9+eabUR6Fi549e/qQB5IUqHH5FSSPWL2R6sgMco+96qMNerdoNfnGbIqoXJgk1x+xEiW1C05RIG1bF99xj2lvSa47tO/ToegjUKMcVM1mMWMlidViA2uuB887rN4rVSBpU3oJIWZBotU0MKsiSTSSbWpFNtfMT2oOCdFqZVMN7ywPEei/lJQfJknRPeqUN89QFX9cMPKEqktMmzYtoHRAtd+2H3vssRDHPbZu3Xrs2LGX8VMV5VHY8Wn/k5+fv3HjRo8LN2/efOHCBYNbhZ5pGjVqVGxsbKBhLZ+ZtYkTJwZk6+B2u7Ozs43XRNNz6GqQR9dcc41Px86tW7derfKIgjYUTddsRtTSI01dsI528PB6JmpOSp26ptRwUyBAbLayex8g+8ouwuUY6C5HO/hWMFCrsSUW6lJNJkELEynGliARXT0NpYqBpod2oYSAoASNPGyyPYqNPBJQSloNCIgERK+Sb++CogB1TnBSUqvBAv2sXqIbEcMLRYkAIYTUeYnUoEGDEPvX/HT5M+aZZ565vI5B6FcUdvr16+fTBNlbcxirkNTU1KFDh4Z4YgkJCSNHjjRYsHPnzpMnT/KXFBUV+fQJC9QN8uTJkwZN5jKBhqMigc/qqAA+ay937ZEcfTResHLlyqs2eqSGRyhnWU0pUI8BEkQb0a4t1nJxhHJCQJk7q8wXGTKk6rzpksN9GeJGoGavWM85UKCSVlUuKSEjvqlNDp6xwnRd9EV1FfcsxaGEVNc5z41R006I6h58UOeHAJfTozWrHG9lVrM1o+BnmMk7nkip3hpSZ3pQTVgOIjtVJMpcdmmSnp5ubDZTh762YvSIfyh8RnpWrFjhcDjYry6Xy7jA/4477giLa59Px20PlbZs2TJjKdO1a9dAZ6n6YwVZG0wgd+7cecVEj/yRR4cOHdqzZ8/VKI+A+ekoMQ9NLGg9/+qeqbWs6VrMNRHBe9/Ih0tMLO3RXzpfUXZZWppAbVVjvyq5Qz5OwqfVJM9Xphbx0vKNulFsXIjI5FV1RJWZukA9fYKUrJ5qdCR7HVWrL6r1WwRd/I+7iNYcd/L7DUn4mb5Up4+Iri7fw/QIyBWikNq2bTt69OjLeAL/93//Z5zsiMKnKsqjSOAzoFJSUrJmzRr267p164xFQ3BukN4MGzbMWHl4yCOf8dFAQ0d1BUmSohlNicLbJzMz02c/yuuvv341yiPFw5FSphC0oIRn1YtudweWBqK6fZ+1/AMQiUBmP9c55+WpewegoB/5RkELZgIQdZSuVlXD1dOAZx20VprMlR+BXsV42xFBTXoFNPMgAEJEpcan2nARGETGjLRh8FoFWI7NM2IE+lOghJAIC6OID6StjstlxkgIiYuLe+yxx2pDqAPlUdi59tpru3XrZryGHwRrnFlr0qRJ//79w3JiMTEx/5+9746Tosq+f/dVd0/35GGAYYgiCiKgrEhcRZISVoIgKLsICAK6IirKgl/jT10DuyooYFgRURAVlBVBXUUUEQwoQbIIIkiSHGamp7vr3d8f9d6rV9U9PT0dhlT3s4vT1alCz7zT5557TvTxN9W2e8+ePdH1KJTSFM3en/Ke71dffbV79+6zCR5pmlauKdf8+fN//vnncw4eEcUPMaL9EMjZLgQBh4DLbwT+ED+DYSkt1zQN/E1bhPaXFJNTMarGuMoISRjtwYyNYgSLEbW1ZqptFA5FQhkx1AcmlySQj9rLEtgokmESMSfoGGGMsJA8bdEYowjANhxCYDiAwop+Fkx4DIrmzPIeancR7c88G6p169ZXXHHFKXnrm2++OT8/34FH5yyBtHDhwqKiIkJIcXHxhx9+GOWRAwYMSCJcKBfQzJkzx/hh3rx5UXJICCEdO3asWbNmKs6ey+U6tZdPnoQkfYfH0+HXp9xxXcbY008/fU7CIz6pb9hm29tnnOMwQAPwDpBYzVXhkoEFKIhVGZBUr1FEs/TKd8PhKzUT1gSAFutHA+KIrptuwUaWDAtQP8RmxpzAkSin31QkJYEEJViWIhu59BulRzYLI+pi+t0Ko3QSbqmEcU+oKIvMFpvtnc8iYCTrlMzVa5p29913nw6gxIE1KaobbrghOqYpLi422jeLFi06efJklEcmq7MmMU316tWjPEA21MrtrFU0SCT2MoDjqSq/3x/FQ/wMZY+Mb4MdOnSI/phZs2ad6RaRNL4rgIhgJqipvADYVm1KEBAVpkJJbxUm09TQMiE2vyR4WC+u5D+zHATpaiMQgCCzBasRQgjqSEDnlBGTR60+QvbdAInp9KTyRGoOBzVhBlM9uNGOkxia1BFhZXM44RdLbWhB2XAqzpYUWrCRfUDRDp3OOtJIrR49elx88cWV/KaJB5sk7U9JkmgJB2bZqmbNmuU69xg9tegopFGjRn/605+SC8379u0b5QE7duz47rvvtm/fHl2b7PP54vOkiEV2/cUXX5zCa/fEE09ED1E5Q+ERIWTChAnlEkhDhgw5cODAuQSPhB82F2KDSCDlCl1LsL1Ia5XqZrBIY8xReURCUA9dcL77sDKFUSnYSPhTmkIgQNW4QHbPkDCjewQmCgJJpTF+FOakPspgXWl9ABjZtjqcfgI7duERIhiBOoqAbdB+yaAs/GMKyeNLQAMzg9ayLyZcQit1BGfVzJrtD1PlK5BOoeYpRX+XHXgUB7ny6aefbtu2TdVop5o6MiqW/lq5dke9evXKysqK490vuOCCcqfw3nnnnVNFIG3cuPHf//732fqZ7Ny5c5REZKN+++23AQMGJNHXIL5at27dyy+/PHv27O+++64S2CNjLM2Y5qbqrBKIIA65KnM1j7T+QUtjB8Cc/2Z6UXp1FmKVOc8PPAIFTdZH4CHB5gjPSwS7W5N8MDJuiCjpJul3LX3AwfzTL99KHViDCJGtcgtjIkIkTHUUCQ7ZcRA1gUzYc2wWTXGdRKuVpNpc40OKYJUcsbN2GRs4cGDt2rUr7e26dOmSLD7AmVw7neu6665LT0+P8oBgMDh48ODo61AqtM/t2rWL/oGfO3fuW2+9Ff1F4p5Zc7lcjRo1iv6YY8eOzZ49u/IvGSLeeuut5doynbnsESFk/Pjx5T7m66+/Hj169Kn6xTly5Mh111132WWXjR49eujQoVdccUWHDh0iJt4kBx6hEhmLHAeAeh9Y12OhuwEuSgJzAssAJXLVzssvcmfrrBLXTsPqETE8RB4ZJ7XMBhtDm40hgmHWJNy++bELu2wLDAG0micCohWgsGj7KOCbFB5FRChl34w4WG+xU1LM0OM8kyYAU82PwCY0P3uBkVFut3vMmDGV9nbjxo07rcgzB8ekqLKysnr16hX9Md9//32Ue1u2bFmu2XF8F71///5RHvDHH39s3rw5ygOqVasWPcEtesXy9WDatGmVf8keffTRcgNP4kNdp8/Hsnfv3rGYks+YMeOFF16o/N3bvn17hw4dbDF/y5cv7969e4ypcHEN9lsvF0gMoRBEoKAB1T6Sma7JZlgHEILIatVloWDlrZ8ow9SUXDRzDs2YOUMw+Q5uPaDaNSHXYDETaxGbNTaxjnAhGO5IGiUAXsNTWwzEAYmoWWZI0DA60stMGwlv2oUjJIj9olb4TEIkMEbCrSHhrBUeybrlllvKTRJNSl122WWdOnU6++CRA7OSS7EYlYrOmlHl+kNGrwEDBiQyXFauRaHhUljJCqSnn3768ccfP+u/pQDAK6+8kp2dHcsXOSN4u9Jq/vz5rVq1ktYSam3cuHHSpEmpYY8YUwNDuJwG7OPbih+2agZpJK0RySqY/TcWaHCRHsJKgkeoxIag1FCZKSKGxRGYRpHcAEkBdqLNhgpCkMyamcjL4+bkkB//yecFAJdUcYehC2LeZeyoYQhZFrgAjMznqOgHowIii2C8wryR/We0TvVDNOooFd+HGDtFUX2EZGVljRo16oyjjk4fUOLAo4jVpUuX6GNiUUrTtOgcTyLVokWLRHipQYMGJfLuXbt2jd52lL8sfr+/cq7Us88++8ADD5wjH8u6devGoq/SdX3AgAEffPBBJexSMBi89957BwwYECXFctGiRamBRwRR108W+XlSNMpIMTN11hRiWxdpxpdMQAQElKPxQAgFrF1XO8kClfC3UbYFQYEWMjNEJtESFOH1oAzjS6kNStYHEQkyyZVJvyfl7cyeJG81Ct8jmbIi4+msiSK6mj6rl0PrQdmACcrFOBif9gjC/CT5z0ponakmx8i4KunYCNmpbOONHj06LS0tpW/RoEGD6ENDlV/O5FpKy+Vyxc3TdOjQoUaNGqnbt7h37MILLyxX3hu9fD7fzTffXO7D1q5d269fv1QjpEAgMGHChFgUOWfTt4ubb765W7du5T6stLS0f//+48aNi+49kWDt2LGjU6dOkydPjv6wnTt3pgQeGbGxjOlFJYESf0AO6aPwf5Sz5KgSR8ZGGXkvojRAkBaaizSrk1+KKf/SL32xgalz9ObgFjLTHRGFZAjUmDWeRysS5pDP5AukI8ERWk8aUSglBBUzSusoNUJEps8SQR1ViGVBiIpEIrFNcQMWsDNZPBYFyvRXSmmH7dRiI0JIjRo1EvxOXG7dc889p1sErANrUl1xf6hS11lLEB4l5ddk/PjxXq+33Id9+umnKUVIP/30U+vWrZ955pnUrl94OqoTXnrppby8vFh2ftKkSY0bN3799ddZsv9KHz16dMKECU2bNv3222/LfXCTJk1Swx6hOYMWCOonivwhXRc+RhiBMiKmh7Q5zGRzTQKSnVlSTUtPxbWnFKiLIiPBACv1s+IjwUN7Sg79Vnzg16KD24oObi/6Y1vRge3Fx/eX+k8ES0+G/MV6aVGotChUWqSXFoUCRaFgUchfHOQbTwb9J4P+EyH/8VDp8ZD/RMh/IlRyMnTyWIhQFwGqrBEAShcSpOWkGb9h41RsbTXkqidJHVVo9Ylde2QBg8lg5uxkTpSck6T/7SAlpcGgwWue0kppSG2NGjWSHkDrTK6d/nXZZZeVO6gVXuWmfyReF198cYzrje1CJ8UNsrCwcNiwYbE88tNPP+3Wrdu2bduSe/ihUOipp55q27bt+vXrIz4gRYbgp8+vT61atWbMmBHjW+/bt2/EiBGtW7f+6quvkvLuwWBwypQpF1100TPPPFMamzFQLIwjIaTCmjh19QdAxkhRcanH7fKmuagEW8CRFyIKUQta5vjBpDgMb6DcaoTG6v0c66ckFGJ7Nxz/fd2JP7aXHN8dKi1CPQi6DkynlLqAaoQQAlR8pPjwPBoSnzB/aZQQA8PMD5EQonmzq7u8WfxlrZgECeUHi6oDkX28zb7UM9FZQz1WKFEx7bPwqxKtv/h+sWySI1OmX0YoHCqHmMQKhnR/aYidHt+uGjZs2LNnzxT12u+4445UN+/OdHh0ulFrSSSQHnzwwQo9pUePHpWQWn/DDTc89NBDFXpKu3btzjvvvKS8+7hx42bPnh1FayJr+fLll1566R133PF///d/8ZktqRUIBN5///3HH398y5YtZT3m2muvbd++/T/+8Y+zG7v/5S9/+de//hV7csCaNWs6d+583XXX3XHHHW3atHG73XG86dq1a+fOnfv222//9ttvsT+rf//+MfKpFR8ZAMUoWSSIBIN6MKR7PS6Px2WkaAAgCtW1OrdlwBBqao+4B7cvHZLIJiDDdZ/sW/nO3uIjmubJcqXluDzpLp/Xk+kBqoHmAqBAXQAUiLFThmqaIerIlPkzI1TWwu6YIiIC5ig7AKXutDRfLnV51JQRaRSJgCiyVCwYBqEMLocRwohuUEex8JDhGbfK60P04TU+gp/I+UfTI1LJ0oMy9EamG2USrrnO0F8aDOmnl23AuHHjUgGPsrOzUyH9ThxPnD7wKDs7u1y3wMo5J5TS5GZ+DRw48KGHHqrQb02qO2txw6MEZ/HUql279n/+858BAwbE8uDS0tJ///vfb7zxxj333DN48OCqVatW+A+Orn/11Vfvvvvu/PnzDx06FOWRLVq0mDVr1vTp089u9sioO++8MxgM3nfffbE/Zf78+fPnz8/KyurYsWPXrl2vueaachHz4cOHN23a9Omnn86dO3fr1q0V3cnBgwe/8sorMZ6lOH91hayZmnJkQkpKg4Gg7k3zuNxUsgNAgBBmkCaABA1kxBU91MgSAUIoBZKUoHUgJYeDCx7d9MdW3e3Ly8iv5smq6k7L0txe0NxU0wzWCwAIUNMJkbNChpERl2ILm28B7qSAyMhR49Juw+sIEAEoGJBLICPkQixppg0mDWUHQzaUwxRFdqzUEVgDYK0IDWN7brzICK3uShh5XC4cziWKjRBJaSBUGjz13bTwat26dc+ePaNHhMZR999/fyrIgAsvvDDBV0gWoeXz+RJ8hTg6UBErcW7j/PPPTy48qlev3hVXXLFs2bIYH5+Tk1NuuHpS6vzzz2/VqlV07yW1PB7P9ddfn8QdMHiI2P11/vjjj/Hjx99///0dOnTo27fvlVde2bBhwyiAuKSkZNOmTevWrfv+++8/+OCD/fv3l/sW9evXX7BgQUZGRhIP8/TUHsm69957KaUVFaefOHFiwYIFRm7gBRdc0LZt2/POOy8nJycrKyszMzMUCu3fv/+XX37ZvHnz5s2b//jjj7iB42OPPVahfavwr66IpudIQaGGCBDCGBaV+F1BzZfm1qigZQhwxgQI8iwSo+mGaIStEUI1wggJJCzXKj4ceOfudUWHPN6c2r68Wt7Mai5vhqa5CWgcMIKSfGZKogC4WZOkPExDbxDYCM2xM+SPhjCIIQ/LeCgiGFpttAz/yxgW+2rPxdtGvJoeM3UkTJUUtGdx347SdENLREqcnzymTOBhlE+OPOEYv0u3qEBQ9wdCkf9enB7ylYkTJ3766aelycvJufDCC++4445U7Gr37t0fe+yxRF6hZcuWSdmTdu3aJfgKl1xySVL2pFmzZgm+QuPGjZN+pQYNGhQ7POrTp0+l9WFHjBgROzzq0aNHLGLeiv667dq167///W/sTwmFQosXL168eDEhxOv1XnjhhY0aNapRowYAGMyf3+/fuXPnli1btm3bpusVmBy69NJLFyxYYHgxVLIX0an9ozd27Njs7OwxY8bE5xj+yy+//PLLL0nfq4yMjJkzZ/bu3btCz6r4NxvV20gs9WJdBiQIAHqIndRL3S7Nm+bmeIJn24v2krlmC3sfCidIcUkgIQt2RPLRE1tOHnJ5c2pmVj3Pm1VdS/NR0Lj7ogUsmMcBBi1EOCNkzNQBGsBGaMuZwrAIa0cU7thA+YEgQRCRbERIjTifAhAZq4TngTCdG2Qjq8BEGUadDUvhVw4wfQug3P3lzBuxGSpUsIIh5g8EGYsOxE59XXDBBffcc88TTzyRrBd85pln4mvSxwJu6tev/+uvv8b9Csly1mnfvn1ubm4iQZ4JzorLuvjii6tUqXL48OG4XyEVvp19+/YdM2ZMjJi7cjprRg0YMODee++NRQCU3M6auZi5XLNnz77xxhvjo2z9fv+6devWrVuX+J4MHjz4+eefl7zR2aqEK6tuueWWiy666Kabbvr9999Ph/2pW7fu/Pnz4/jWVPHLJpgJIPZ5J1T6JUjQmGsrLQ2K5VAKl9A0lRS4Cgjxk1Ai6xoA+eXrg3vW+z0ZVdOr1PFmV9fS0iloBKjcVdthSLsmbkVgBMmKsTIAi92z0oaTdo/IlUsmM2SeTzAF6MgtJME2544RsJElP6Q8ryPbdcGyB8SiCI+S5WQN0RC1CgdRpcoqCH/9gdDxotJif6BMbHSa1YQJE5KlP+3Ro0f37t1TurzF/dzCwsJkQQG32x2LFXJZ5fV6k9VOcrvd/fr1i/vpPp8vFegkNzf32muvjeWRNWrU6NChQ6V91NPT02Mc1M/Ly0tRy8/j8bz99ttDhgw5Vb/vmZmZr7/++vTp09WeWmXCo9Nk8POKK6748ccfK8rWpKI6dOiwYsWK+BjluEJFUHpKg9oh4d0VM4OMIJLSYOj4yVJ/qfFdX+3Fcfcg4xalYWn2Ff9grHxnt+bJ9GbX8GZX09ySN0IkivUiAVBIMBBOTMLSEiySGDCxDtqBCBoSJoKqCSNTGTZLeIqCDNC0wwwDEYbXESJBvWIRZWh5I0vjrnxPyITaURZ7q+hUjvh0hMegxAKMThSXlpbVTTtdy+fzvfjii0lZe8r1OkuwEkmHGDx4sKZpydqTGOe0I9aIESOSOEc9fPjwuJ87cODA/Pz8VFypGFFI//79k3hRYqkYhwb69u2bFO18WQjp1VdfnTFjRtwm43HXpZde+v3334cTY0mER+VK2WKxgKqcqlKlyrx586ZMmRKLrXkqqlatWrNmzfrss88KCgrie4U4fI+ItJG2xLCr654xniW6J4joD4ZOFPlL/EExdw3IxSdAkqQUObyr+OCvpW5fTlpmFZfbJwbszdgOAMV/KNLibc7yhxEqqOAkouI7ob1WBvVNVY0wMBIWmGKyC3gYS9hMFzJTdRQlQqQcrIMRmKRozkMJnX2zuRoJIlmOEPnBq2cay/+8oT8QOlHsP+OAkawuXbo8/PDDCX4jfPHFF5PFQpVVzZo1u/LKK+N4Yr169SZMmJDcr57xterS0tJiHy2OpVq0aBGfN4+maffcc0+KrlSPHj0uvvjiWPBZJX/UGzduHMtHKBH4GzuCXL9+/ahRoyqHuXG5XKNHj16+fHnEEYdyh+NiH0e49NJLE3xAJdeoUaNWrVqVSOpwfBB53Lhx69evTzAQMN7mGvBZdSkqMkkZObjOhTdmCFsgGDpxsqTEH2SMAagsjZlJFu/6QfZsPA6Q5vLlaGmZQN0AgGY7D9A6XwVW2sT0IuIDaUbqifWgrfSWVCwJCRJnbFSQAGiIjoTRtjE6D9ISQY/Ew8RLHYUF4Ua+cMTGaCXqPmTI2BHLUx2Zmm00WLZy35UhlpRKxoic0fXAAw9U1K5GrSlTpiTFQK/cmjx5chyDNi+++GJmZmZy9+Tpp5+OJeoy/FlJt+B79tln4/j2+eSTTzZs2DBFl4lSWu7HqXXr1skSy1eoRo4cGf0BPXv2bNWqVSXsSV5e3pQpU5YvX96iRYvUvUtaWtqoUaM2b9783HPPlaWCb9u2bXTWp0uXLjG+XXTNltfrTV24XtzVoEGDjz76aMWKFddff33qWEP5q9GzZ881a9Y88cQTif9Rqjg8MkLWVFRkiGp4Oq3Sh0K+TfogGf8LBEMnivzFJQE9xFS0kUhvjbro/s0nNVeay5vpcvtAGcg3VNaKkxHnviQkkibV8iA4pFH4MSN3V4q6paYchOs3vwdsw2xoMRySqnTek2MWnCYlR3xgrSInI9wVIdw1GyNAqugYKlZgJlmgstThGEl+VDac0nVW7A+eKCoNBM94YCTroYceigMhUUonT55c7pKTRALptddeq9As+v3335+Kr4Z16tSZO3duhbDaM888c/vttyd9T/Lz8996660KWQiOGDHi7rvvTumV6tev3xVXXBGFjXj11VdPyee8b9++devWjXJZn3vuucrcn8svv3zFihUzZsyIhW+rUGVkZNx9991bt26dMmVKvXr1ojyyZs2aQ4cOLeveG264oX79+jG+6SWXXHLbbbeVde/48eMLCwtPzz+ALVu2nDNnzo4dO55++ulUfHNo0KDBo48+um3btvfffz9xm5J44ZFAAUpDScixLfwKGgPwApDYl89gSD9ZXFpU7A8GQ4QQHVFPRHmE5PDvfupO01w+SjVCQRA2nMQRjTUDAIHM7FCHroDvsOHLBKbzEZpoR507MyREnDtC46UlDkITc0lSDeSMHwZCNvNtGazGKoyNVGQDFUQ+YJmvj/cCAIniAMnPA9ol4hFi3zAY0k+WBE6WBIIhnZx19dBDD73//vvR/5Kq1b59+y+//PLvf/97JS9vS5YsqV27drmPrFq16owZMx555JEU7UmnTp0WL14cy5/7tLS0yZMnjxkzJkV70r59+2XLlsWyhnk8nkmTJk2bNi3VlwkA5s2bF1GjXbVq1ffee++iiy46JR9yj8fz0UcfRbSeatKkyVdffRX75z+JjMKgQYPWrFnz9ddfjxkzJpbPdvRq2rTpP//5z23btk2cODFGOPL000+3b98+IrE0derUCr375MmT7777bpsEm1L66KOPPvDAA6f538Bq1aqNHTt2w4YNS5YsGTRoUOImZ7m5uYMHD16yZMnmzZvvu+++xC+u5bcsijkBIuq6HgwGS0tLT5w4cfDgwd9///256YsOHDmZWaVWVl4tc2BdVQSb8htm8ktWA0b+ADEhRoE0bXFs+O30hwP74zwMAm/e+lPR0So5tZqm59SgmgeJ4TcEHAKBOS5HuDBKtTQS0Rp8ng6RUFDcskHZfVSggOkWAAQQjLF+DHf0MduNXNDOQifnPON1HVvNmSyGhOlEDxEWIhioWGdNvgeqXJQaSQsmAFRgkdld5O8G3/x44u4pJ7IKL84quNCVlhGDWSR26vz7Pt/WI0f8ZfFGVkm6gI78ysOKF38JFlUvuKBVWk5NndGkRILs3ryCENK3S7P2bZrXrFkzNzfX5/N5PB6Xy3U6TNgWFxe/9NJLb775ZlkJTca0xQMPPHDVVVedqp08fPjwiy++OGPGjIhu/T6fb9iwYQ899FCVKlUq53Q988wzEe3gGjVqdNNNNw0aNKhWrVqVsCcvv/zypEmT9uzZE36v2+2+6aabJkyYEDsTkJRauHDhokWLli9fbrAUnTp1GjRoUGWGfEWs0tLSWbNmLViwYMeOHSdOnGjcuHG3bt2GDRuWXI/EOL9KI3777bdLlixZtWrV+vXrd+zYUW48qsfjadiwYcuWLTt06NCxY8f4GBpd199///3Jkyfv2rWrtLS0WbNm119//fDhw+MzDt28efM777yzY8eOUChUt27doUOHJosyqcwKBAIbNmxYvXr1qlWrVq9evW7dupKSkuhPyc7O/tOf/nTZZZe1aNGiRYsWDRo0SN2wXpzwKKtK7cwqNaXHoQU0WJ0SBTYx+k6AQrEt7HL4oxs1PzTyTvbt/j0ucGvghgrSWsjIzOFrA/6CnFpNfdkFlLqQCuMhAJt3ZURLQgnWJNnEBceKWXY4WrAcP5hQzAIHUTHbluNyQf9bzxD38fX8xOmMYIjoIcKCBENxskdMJWbAxEYmMLUOsxl3MXP7su9PjHvxZFZhk6yCC11p6bHCo/StRw5Hgkem+5P4QSrjxWdg6eRNJ4/kVb+gTXbVetSVHEef0xweydqyZcsPP/ywefPmoqIiRAyFQoWFhU2aNPnTn/4UpT1RyQvJsmXLli5dWlJSAgCapnk8nssuu6xDhw6VPI1SWlq6du3aH374YePGjYwxACgsLOzWrVuyLI4qdE5WrVq1bNmyY8eOFRUVHT9+vGbNmi1btmzdunUlgEWnkl4lJSVbtmz55ZdfDCNsTdMMQ0ijcnNzGzZseN555yXX/dypiBUKhbZs2bJ169a9e/caXzncbjel1Lgo+fn5DRo0qF+/fqWZF8STuSbGkCTS4WmrRsqaSiMh90U09EoKQhFIRFk++SuFMBDCAAVNIx4NYt09PYSlJ3XqoQQomibXYu8EdgGLOaRKZyl+hTKkTE0xUxGStYukJO7yQTaiDOcRcU5QRLtJmEhIGn8kQ4K6GFjT4+xxYVmKbCz7LqtJJcChQwGeNRz34mF/b+Ue056bMNSDejDIgkVFJ4KhrHPzb0GjRo2SFX+Rqi9PAO3bt4/YFKjkSktLa9WqVeVIess9J8bXVmcxOzvK5/M1b968efPmzqk45eVyuZo0adKkSZPTZX/i/BtBhD+0jCG1tW7UFZijIxHLgXzYiweKgEjpUIqhzkhJEEEDl0ZctDycpIdYoJT50jQjZZYoya9oejpaDY8sAEHkhHCyySRAABR1tjW/DEQPzDAL55SRnNlTMaKRy6bgBRdFUONbjXn+ig6sxQiDos+0yXsp7N8XAKoBlV6aCWAjJBZXbC7MZ0E9GNSDDHWeueeUU0455ZRTpyFci2cNBLvXn9l/kqDA2CLggEiqB84x8X4LQNlJ88ZL6xjUSRAQKLg0cFMS2eWMMSRIgGqEUjFzD1LgZOISIErum90c0vBj1BkjDJEwg29C1CkJ8Ul0IGonzcBeVFF3I8j0MTBl20AQCSMuoBpBAAoeLfjX7i5XaC9HWMg4gRQHNorF3Ei1w1S38gMQ2iNK9h4MUc1HXWkAtAJTbBhlKxJCkGFIDwb0oM5Ctr3lNpro/CY65ZRTTjl1RsMjYpnoAjDH1Y3ekhmygaaQGYmFT+GrtQpOIPoboo5BHYNAgIbxSUgIY4aLNTVlQ8Z/eVYaqjSWzegbCHOhv05+8aUX+msV+OtWDfo8Ac0FnqxC0FxamtflMlQ4hk+jnLq3mYCDib8USCLW/rQQ8zBWShgSoB5Plo8eJCf2EQIEdYIoomcrDhM4RWaxLy8vJ8T6SCYUWSH2084gdXk0lyeOuFiLwSbvoLEQC4T0kK5HmM+32pM75ZRTTjnl1JkOj/hyaHA/DJBaxMiSWgHZumICLFCxeAJSwttsRhQsxhT9hSafRN2QRsGFwF2rweiMAQAxwRZQNT8XhLsjj5ClhCBinuf4I7frteoVErKTsBIS8BMMEYaEbOW7r4cDgWgsDUEwtc9M3SigYhAJIgFKdCJsslk8qiMxcSawZiQARKz4Tb1hOTQ4tL909xHmreKlLk/FJMwQ3lbD0lBJMBggJELuLJrdSae55pRTTjnl1NkFj+TcvmEcDUjChrsQUZpNK4G0vKdmRnFA7Ln05hLMAlhCkFLiokST6W0ECRJKhZWAshLLtzSUQvyxtXKOThjlKqx+nPiXEz0UPnpXBgqKrvIBE7Xw1hVYmo8mN8PKiyyLStcYcnMqNVCKw6Q6uYZl+Fupb0jJkhXHiObRPOnUlVYhQywULUGGLMRCoVBQxxASJBTVe2Mmt5xyyimnnHLqzIRHYMqJiIgdExCET6mhVfhsJGvIjprpOVS28CiGhRlZkAQQSUkodOLESVdWIMNImBXRIAKIiHEy4FGyBqdRPfPkE/cWZLi/I6UlUQFRzHhFZYmIHLYHuxeRzK1DRvR4B9YMVs7k5lS1T3T2SHkFCoQhAbL7d/+LHxxxeQs8GVU0t5fELppG1FnIHyrRWciwDzFdjowA2jKoo3Azbaeccsopp5w6s+ERmjkgaPaswOKIqEiTZWqr8R+JngDlvBXEsQ9gTkchBkOhEr//RFFJkPjcbpdL0zSNahoonkYiJNfgtBgO65ub4V1HAiVJOJEWbGRiyGhPYcgT1kjFRdkYsacWiZsxJ9oiQiQkbrp108nxk/aWkOz07BppmfnU5Yne9kJCdJ2FdBYK6f5gsV8rDuoBImNnZegsiynHxCmnnHLKKafOEngkFTi8ayZBkpHpKtGTMPtR2ByVWeJDXxDHyim4CXNODjkOQIbBIAsEdSAEKHVTqrmpplENgDfVAAGhalbJZZdSUnKQJFkBo9gbILE4J6n8CTMG5RhBnaBVlE1l9w3LOO/GvzTqvcrOgASgln0LHdd/2lb6+dfHFv4QCNIq6fmF6Xl13N5soBHGAxlDnaHOWEhnus4sGFUcFKqad4bREk7UHXbm1pxyyimnnDrz4RHKNdFM6iDAVdYms4SEECaMopU5LgU5EGJ3cIxxD1AmyPKJe1V5RCQuQ0BkgRASXTfIFk0DjVLNBRrVWjRGqicJG8msW8v8GpiUEFqZG5QBtFbqiMKmdSXvf3Q8hG6Xy6UZc3iA5oAXxiTcQZGhayjTjRAP5KwP0RkEgrj3qP77YVasu6gr252dnZWRn5ZVzZOeS11ugzpiHAyhzhjTGcZyDuR/DXcDZr9qtscDEpISdbaDt5xyyimnnKp09gi5HzRvnoGFqOArszq7r6SlouImiWL8Hys0wcRUhIAK1hKKIinAtr4qIiEhHUM6I0FCSKBGVUZwNyF+QighGiE0YeERsfBGDC25ZpZ7UQysWVRHh/YFb/vnfj9kp2VV4yyONG4yEJZw5gZhyU1EgpwCPiym12acB4A1/g6gCs1ypbncPi0tQ/P4gHpCqLGAwRAhxkbqUNvRS+NwpsLpsFOLil25M7/mlFNOOeXUWQCP+Bd/kywSKWWWng5aPY0kFEIQOSNymg0r4n9jeikxky9CKzth1yqjkjgr7qmZ7yZ4jGDAutZTApT/wAETlH82SLjjESWy24RhMfWcOrIP8/9xOFQccvvyqmdUa+BJz+U2kgL6WGJcTGCJ/EpECIaLEIwreqHIGDIkjAASGkQaCBpnMVTRz4LmRkTLiYhlVA3BwUVOOeWUU06dVfAIhNxHndI3oRBIPMIIACJYcstkLAeXJpkW1jEhJETCpMBbcCWEmYPtlqAQtPA1xgYqCA6Pp5TogTBmioXtiIGZwIqZaDjwiO0mcptswghjNivImlVcVNM0b4bbl+P2ZgFQfq4QJMoyk26J4rIJNrLIdDJgjCAiQ0SGOiIyZEwhhiBR+yHNzTBkwWy2Zmm4S1S4gaRTTjnllFNOnenwyFBAAyppa0pyvR2agAWhoAj14K6JaIm8KGepZHJ1RUWEwxAVtkoEfSChhBCqhJwQ64wcuFwY2+IcETPxsXiClAAlqBJOlIM4xQPTxAIIhOm8s8YNuJWL4QHDSMpohCH/v2igKbpq48QxJEgQGTczQCQMkf/ApBUUAm9oSvIpeXaMSNK8gCdMqXxMPKCa8uvohJxyyimnnDor4JHyrV/BQ2jKWkQLDayEBoCxhKqSJAMySW/rcpZUJhPfiZSGi76TAsWQIDVaUijcHw1oABySITC9NC8vwaB4FMiJWqXZQHSwjq2BQXHxeS5khIWIHiQYDDtsVlxSDCV+tz8QgiCAZkAbw4kAkSvQEQnKGXpVuM3PMxGe5mjEvgr3BAFGkwdIEFlerub/I8hJIyuMxLKuo5rFYkJsp5xyyimnnDqT4REHOzwThCtswGyhAYDa7aEgnIZAiVxDYkVQ5SIRKXS2+goiIYjAOGSQobFKBCvI8XMDM/DBLEpPJIoUVABkOT3yAcxMXjVoJCawEQsSErLvAGN+v18rDXiCuscdkqZRkjDioEJCHGAGOuKSa4mNUM7yq7tn+CoQVS6fYFHwV6tNS9frxK6ZJxh2ZVFtCaLioU4cEZJTTjnllFOnV9F4nmR4F3FOQ9AXQkQECnCRIEb04cQ8PnCoxJtJ5YEQQ2xkLu1GWw6Row5lyspcdhEVIKaMzolsDxYMJqZ8gUg/UN4ui/jCOgqjI5lrW8bpRSHmAvEfgzsyiDAmjwbUwyKm7Iuo7tnCWgio3M0kwZGcnFCO5tF1hsI+wHrZIuFJK1xytEdOOeWUU06dJfAIRYoaAF/BEQiK1DWxLEpmiNM1hocPqCu37BZFJ2j4YDthZmdNVf/yiXfVrZugybqortm8JaWCiLixkd0mG1R3bgty4pIoED6QjHflynhlIIZ9JSASYPxwkQNJc07QHNlTQRoQOfIPKPgZs+NmPbUJY5NGjYK7Dh61japFNHpEDAuXA+nu4JRTTjnllFNnPjwCpSeGYGmjSC5JgBAE1aTIVAajYITAWP0jYiRTZiRUR2rEGyejEKRY24pJEBRyQv4sm07xEWflACYEEsG6WvhKIxLUhddRFPRpKLRMQogfJEiizbSVMg0D1IshpO9Sl6SiI9UgKbFDxlaNce3e/XZVfURsRKy+A8AZRaZjwrvhlFOnvkpKSpyT4JRT5zx7pCSd8f4OCi4FZfaauIdYx85V2kIwRwjR2CMUKmjxXBMbESFX1tHUNBFEGbQGcqjLYjydsBrYpI6sAbThBogmZmIEdcIMr6MoCWucJ1KQnWmpKc68BICcqEMEi9cB4/m/Eh2h+a/svQGfPoyXR0tzH63XLPDzb4dJ2dDIcpPJ80/MkD4muD8HIzl1Ztbq1atbtWpVUFAwYsQII5XZKaecOlfZI3UkG1GuwnyGHRTDR7EZ7ewCWIeWIshhkFiQkbqOM4GTLDgNVRdtVOU4EnIIMiPBpRjCtNhAkPLZNKmwsiAD1QeSRUOCRBHxiKA648goglCii7eVxpgUuY82V0ChZUIN+W5RE92CmDa0NOgqhBDbXXlsxbbdSv5aBIujCHNy3NLBBI3cztspp87Mmjhx4urVq0tKSl5//fXPPvvMOSFOOXV2VDy+R2hGokpTR96zYubaDWhxNBJjU2C48CDKgAuMLEBizFzMOe5Ckd1qymZAfTY3TkQQfShDPg5qYD2a6SPxYiMU7EsEdXbYqTIgCGMEZYQIK4OOUgySRA/NmMw3QAwSA+GYLTTjEAEM9sh0DwcEpJyIMs670cFituQXIjw7Kz7tX6vm3ubt/W8v+d08K4xEBrjq0QnyCxhBSggQpiNxOeDoFBcibtq0admyZatWrTpw4MDBgwcPHDhw9OhRTdPS0tK8Xm+NGjVq165dp06dJk2aNG/evGHDhpqmOefNqKVLl8qflyxZ0rVrV+ecOOXUuQmPiBqkAXIsyqR4hHAG1d6N6bRt0BZATIwCYUQDWldcObeukCZmo02N9xIZIqD4UnJwYI3FTZYiGBRhD5RBlSD3yEYWDRspBwKmTsoq9wY0fMoN2IUWrCewn4FCpQkmz+aVU/4qFlHouAogFKxVc+/g4aXvfbcNmWViMHyMH1VHdD6ERwA5kcWCqAcYeI0gFwcjnQJUtHjx4unTp3/55ZeHDh2K8siff/5ZvZmbm9u5c+fu3bv36dMnJyfHOY0Rf3bKKafO6Kp4c00Ok/MGFgdDaAimuQpJKm6ERyEX/IBQwUgLQdPahyggAVGyT1KgxC0RGaIcjjIbWRJPoDm9ZU75S0MBfgQJxH3ZVUdiI1ofoPb8jLYasyesWZ5rFS0Z59Fg4gwZF1jUWoa/JogjFa6UIuBFsEOAqKjTLe7ihKhdtRhFSMgAj1/ZfudfR51cuHbL8RP+iGfAHBLEsPF+NHEbISQU0PUgUuqiVHPQUWWW3+9/5ZVXLrnkkh49erz33nvRsVF4HT169L333rvlllvq1q07fPjw1atXO6fUKaecOufZI1XCI9tWzEwZEeIkaWEoXZsNEAWKdaRUvsh2D0iww+EBmvQISg4J7cDI0p4TTInNoJnTLgQA47aOtnXTIqmO1AgRAKLLYf5QBK8js+tE1Xu4MgcNT02CoPJhiIJAIjIKGIUtpnxdVDw4jW6WqRPnyXhgdN34SWIWSZYCSgFLszOKqxSWNmkcaNwSf9l/4K0ley2SI5veSAIgSfSpMXDKmwRLdKYDdXtAcyVXm+18hY9S33333bBhw2yEUHxVXFz8xhtvvPHGG927d3/wwQdbtmzpnF6nnHLqXIVHMtIClEkoMO0XmSL6BXN5RlDMC7loSdhty2BWOWGGQk+NcmILBaoxgzWMMDQl+s1ACWpIrhxTU/y6gcQXFx/udaSyMlb8ZGyTimxdJ8gieUgbP1Ar1OCEHMhTZuG7gB8oEAJI3cez8g4ES4PImEgCBhn0a9h3ghwoVA/ahLng0iDTSwmwIn8oPY0C1TW3npNFq1fxMG+wdh160YXZ2w4c3rbvyDvLjocCuso5RrA4kuDTGhQcLogPleqEUE1zU6o56uxKqEAg8PDDDz/33HO6HsFaIi8vr02bNg0bNszPz8/Pz8/IyDh27NihQ4cOHTp0+PDhrVu3rlmzJhQKRXzljz/++JNPPvnb3/72xBNPFBYWOqfaKaecOufgkQzvEsPn6mS7mXqKqC6V5jwbKu0vMFkWsWQDECNkHsIsjoAQxhkUJrCR2m0yA+0Rlb4RMktSLohuX7waAYu9ktJlQwX1mM5Pxq4Z6bMsAg+FdrtGMDeaRJwgwwAUAyeCAIQ1vvj4Zd1OrP35DzvaQ0KA+IO6IQ/iTTZm4Ce7JAiAaJQiIT5dl/texMguoEFd3/4rfr5VN82NogbkmdNztoyRSOAnWBQColHNDTSZOl9H/1EWNrr++us//vhj2/batWvfcsst1113XePGjSEqSC0qKvr222+XLVu2ZMmSb775Jvy0z5o1a8GCBc8///zf/vY354Q75ZRT5xx7ZI7cq1EW5vKoDpRLNGJ2e1S/Q5BdL/HaDOUwviowAqXdo8hrIgySE0s0q0pK8OE5O6SrGHVEbANrNjdIIbhiSBDEwFqYKJspVA6EC7oRBAwFQkVj0gjZtaidkZB0Fzt0vOTYCb9yPu0/ENVCwRyCA6KotkjYyUQkAZEKR43zBpaDQBK5VUgiNbdUyZGAwuTk/hKquTSXh1LN4Y5SjY1uuOEGGzaqW7fuxIkT+/TpE+MYWkZGRufOnTt37vzII4+sX7/+hRdemDNnjs0O8fjx40OHDv3f//736quvejwe58w75ZRTZ2jF4XtEwYpMmDKDxqkhQyujwhwQUR7SyBllWBjY1LviddEQNRHTIdv0h2RoJHQYSy9ToRsSJTKE9/NAtNnUCauKcAxI7A6Qxg/MZkkt9xwIY2JgzUhYs/A6pjwHIyEx7gjAh85QgFKwICiBO6y7qR6hRFKoaumFTAoxIjZCk/eSo4AMSQyRavbYELS7HNk+RycPllLNrbm94DTXUlwjR45cuHChuuXWW29du3Ztv3794hvRb9q06csvv/zrr78+/vjjWVlZtnvnzJnz8MMPO6fdKaecOofgERgdGkXHAjbYgAQNk0KTFQJA4OIhwUyYU1mWUBKFu5DaYIWmQEaAGXvAV3ywipI5nyOtFU2pNwG1aVXRg7aBErOzFpbVYQqdDOooFGFgzYKQIoEMqrAzFrmQ4MXAdOcEKyK0wrdIexctLNZ0DLDSZvbZNAx7MpZx2so6SgByYp9fc6e5PF5KNWewP3W1aNGi2bNnq1ueffbZF154ITMzM8FXzs/PHz9+/Nq1a8PNfr744gvnzDvllFPnEDxCc5UO05VI0z/gfs5CmySDQITjkfAv5OiK943MsBGQdJMhrUZAEUnLOPTgE13EtMy2shgSCICYcFe5mgpZH2E4NiIEwaomUof5DVNLJEw302dRzaalZaAGQDVmBQz7AxR3oUIuGchQaq44zsQwcgcskXYgTbfLCEmTDxCZeQzDg1LKRFfWSf7IpJGk2IKs+GBQc3s1jxccj8GU1cmTJ++44w51yzPPPGPbkmDVqVNn4cKF06dPz8vLkxuvv/565+Q75ZRT5xA8UvLArObTUvusqHtEP4uDIJEvAmr/xRhSQ6Yu7TIjRAm8BTXoXVmR0dR2C3BiuAaYPBQIcMTMASqIeZIcwv4N45PCRTfS7kiqjkx5OkR/M5A4kdNvIFyMzBMNirJLfWOLrxFKuAKmWB0JsLIJNCRoS44NI4sitNRAwDrrqYKo8VMlRwNFBwMuT7rL7QOgzq9iimrq1Km7du2SN7t16zZmzJhUvNHgwYPXrl177733Nm/e/PHHH7/tttuck++UU06duVVhabYCEJAzRcZMFfBVkvMPipkzyEF0Im2gReoHEb7bxkiayuooVARDmSViGj7yZZ4hQSLjRsAyWW9aDIh7lcEtrMhBW9JnQVBHEXkYIDoSoosIEV0M+ccsBldMxG0ASOawEFPTDVZKz7Ij/CwwqWCCsqgx46KgBaOGjYBFckNAG3ukSo6iYp4DW44R4vb4slwerwOPUldqW83n802dOjV171VYWPjkk08++eSTzml3yimnzjn2yCJeMUkMVANVBXEBQookiSRQY0S4JyHwZAyD51AoKe45raNpf6QuwqjAJQt0Q4GTzDv5i4KJJ2IERzbptCKwivZ4RhiKgTVUkA7EhJBQYk8Z+msqroEgIiiPsDBXak9Nnidmjo1hGW21MOCDkfTrtgYeKUPjHlVyxD92Lvj9x8PutMy0jDyXxweOLjs1tWbNmk2bNsmbffr0qVu3rnNanHLKKaeSD49semHkC7GlnWUuxGhmsSEBkIZJpm4awYq1mNA0I5rBFChmqUyAxBBQjK4xMzUEraH3YCW8UAmLq8Choip0BkKAMFCQk0AH5jC/5I10U2wU2zsqGnNQKCMEsAESjNioA8WA3NRe2TRXYe9lkEtovjYIR/IIeMmyt2C9G2LCRoSQogP+Q9uK0zLyfFlVNHcacdij1NSHH36o3nTsiJxyyimnUgWPwIyTBx7rhZKQQTsmMcbIQeS1mloYMH0kpVBbAhCVQTIXcjB5EQNIKUgBUfT0zEw4NJPhwpEBxnasEbYIRTba2BJzbI8gRkhYK/8dFdip4DiCYLhlyn6hDK5TsRLaCB1QUApy8XsZ2AitiBYi7hqUpUBiFf7MAZBtS/cC8fqyq6Vl5GmaOwUfbMcZkhBCduzYod5s27atc06ccsopp1ICjyQbAdzqETguAhkARtRlXi71xhPlY0zpNagCGCSM8CBVFJkchE/Jm1JvacPDDEsetccmE9XA2ArmNBwSQipgeoQRVUe20FmFSDEG1owIERIiyEwtdmzYyNbzA8LpMeR5LYiMIIIQm6MlZ0TBMWBrQ5bz9uLhgJxGQqvmPpLnkQmrFPYPy5tWM8p/PPjb14e9mfkZeYUeb5YjPEpd7dy5U/6cl5eXnZ3tnBOnnHLKqZTAIzEcJmXVFvmwzW4HrQQLgNLBMWPUFM6JmE5HTMIPc7QdCWHc6EgMnnMayeJvJJTGYIZ8CI5LgWrxUUeRvY6UqX4jPwSZGfZWEabKKq9WAKdxpqk4PMIl2vZhfjA9kExngzD7R0X8rlxNBHXaLYzRKuPsKHAY7C6VkWvdvN+QeTPyamXkFrg8aY4hZOXAoxo1ajgnxCmnnHIqxnIl8FwZCmJGpNnWTAjnGyxLLCKKtAopSEYgUo5tMVgyZthEl8hESIQpYRfCOQC4hFlqwUEduStXmQ2RqCOx3YwBsU6uIRLUic4IhoQGisZ0GpVXs1oEWGEcSESqKLbESUa7Yhxt7lQkAmmG5owhH22zTK9F9DcCEpbaZrxPDMcKFLYv3bt79YmsavWzq9fzZuRR6krBp7qSOmuBQKCSczMQUdd1lyuek2ZL/zidKxgMut0VaLlu3br122+/Xbdu3R9//HHgwIHDhw/n5+fXrFmzZs2atWrVuuKKKxo3bnyaHNqJEydWr169evXqjRs3Hj58+NChQ36/v6CgoEaNGoWFhfXq1evQoUO9evVO4R7u2bNnxYoVGzdu3Lp168GDB48ePZqWlpabm1tYWNi4ceNmzZq1adPG5/OdJpfeqE2bNu3YsePAgQN5eXk9evTQkuSjxhhbu3btqlWrNmzYsHPnziNHjhQVFWVnZ+fl5Z133nlNmjRp0aJFkyZNHBjhwKPwNR2EGsicCJNLPPB1loJso4E6t4YmO4J252wjUpYJqyNJHcmgC1Si7REUkMLzTIR5AEhnSuBYiZtSRh0+i8K0mSP6ahyvNFzS+b/cCjI2bBRGx4BiaCkiaE0CydQ4ifxdJGpWimkGGY4ULBDKPuEGNviKUfY47OwhjZCqZsdGGuz+8eD6+XvScwrzChtmVanl8vjOUOrohx9+uPfee1euXNm9e/eZM2dmZGRUwpvOnTt3/PjxoVDovvvui9FVKD8/f/v27XJhPv1P7Oeffz527Ni9e/eOHDny8ccfj/7gVatWzZgxY968eQcPHoz+yPPPP79nz569evVq3779KTmuUCj03//+d86cOZ988kkgEIj+4Isuuqhr166DBg1q3rx5pe3hjh07Zs6cOW/evM2bN0d/ZFpa2pVXXjlo0KB+/fp5vd5k7cCGDRtuv/321atX9+/f/+WXXy4X4iDi4sWLZ8+e/fnnn+/bt09ur1ev3urVq8ODbir0JeSLL76YOXPmJ598cvjw4egPrlGjxl/+8pdhw4a1atXKwRNnWdH4Pj6Sv0A7J2ToV4ARMzyMEEIoyvF2IGhVIJvz6QYEYqY9ADCj68OE0ohrjwgSgowwEUTPiGi+mWm1BqACYeRNibWxhBWjjoTqiIEVG4l2m25EiOgCJNGY4Zd9/kxlhVTvIaH5kmfHPD5i9yziQ4DhkWpqsBraiDyMChmNc8qIxZ1T7TeWh3N+WbLnx5k709Jr5NW8KLfg/LT0HKCpUR1hyvmjBx54YPny5YFA4IMPPnjooYcq5zv9qFGjdu3atXfv3nHjxh06dCiWZ1WpUkX+fOjQIdUf8vSs//f//t/GjRuPHDny9NNPq5YEtlqxYkW7du1at2790ksvlYuNCCHbt2+fPHly586d27Zt+/nnn1fyQb333nvNmjUbOHDgggULysVGhJDNmzdPnjy5VatWN954Y7lgJfH6+eefBw4c2LBhw8cffzyWtystLV28ePHQoUPPO++8Z599Nlms5L///e/ly5cXFxcbuCQ6qTN9+vRmzZr16NFj9uzZKjYihPz222/vvPNO3MDIuFhdu3Z96623ysVGhJB9+/ZNnz79z3/+c7t27ZYsWeJAinMbHpkT48biCHJSDEH6PQrPHrDknEqdrwGUQIiDEEzJiiHaUcwixZwcWsygGVoFP4KCEmluRHGDBJC0CojgNUJ1FgUbRdrOMHIIK0dLhhuBLiN6Y0OZYN+gBMmiOLdgjqCBZIoALOYCaM73AQmfy7chWAQlkAUwIjYKczMyUJ8tgg3L0xsBJf5jpd+/unXD/APpOXWq1mlapdZFvqyq1OU+c3PWvvvuO/nzK6+8EiNYSaReeuklSf+UlpauWrUqlmfVqVNHvfnRRx+dzme1tLT0m2++kTcjLjYHDx686aabrrrqqpUrV8ZH+3Xr1u3qq6/+4YcfKuGIjh492rdv3xtvvPGXX36Jb6m+9NJLx40bxxhL0Qm///77L7nkknnz5mHFwygPHTo0fvz4Zs2affXVV4nvjBrSFwXCfv/9923atLn11lu3bNkSBT/FsQPbtm3r2LHjjTfeGOWVo9TKlSu7du06YMCAWPC6U2dExa/8MGND5BZj0ZVNIbmoWrXb0hhAwTHEzBex9m94GpuklWxiYokDGKpmAKo6CDjHYuAkPvavuTwni46TKmX12CJRR2orTZUiETGwxh2PMMY/fhGgmEhIMTGPARWliyagaVdgd5oSYWzi4CN0yuwWB4pTto1nCrfLDh/7A+sFjQSMSg6Xbvti/2/fHgWSlVd4UU7B+dnV6nkzqmhu9xmdQdu9e/e5c+caP/v9/tdee23cuHEpxQ2vvvqqvJmZmdmmTZsY91N94n/+858RI0ZQepqOCtpW6PBFbtWqVQMGDPjtt9/Cn1urVq369evXqVOndu3abrd7z549e/fu3bVr16ZNm8IX/i+//PLKK6+cOHFicrPnbLVly5aePXv++uuvtu2GwKhOnTq1atWqXr36yZMn9+3bt2/fvrVr1y5fvry0tNR2EiZNmrR9+/Y333wzPT09ibu3ffv2vn37btiwIfyu2rVrd+zY0TiZBQUFhw4d2rlz586dOzdv3rxy5Urb+fztt9+uvvrqBx544MEHH0zW1Y+IbxDxkUceefLJJ6MjuXr16t14440Vffc333zz9ttvD2fCAKBVq1bNmzc3zkZGRsbvv/++c+fOXbt2ffvtt7///rvt8fPnz//mm2/mzp0b42+oU2cXPAJi5oEI7GMmkCFIkS8XRhtmkKCwSEYUCTeNBImAZAMLVV9DVFRHYmVmxpIshsOsSmuUY1jAJ9YM/Q5wbCGcKv0lgTIgH1g9jaQPpA0IiIfpKjZisdtxhz+S6cTwzhSDfmbgGjFybCV4pESYYoK0G0chVbKxUmh9U+5dDhiZJSqDdbJosZUt8mUACLgAkegletGR0sO/nNz949Gjvwc1LTMz98KMKrWyqtRKz6nu9mZQzXVGYyNCyB133CHhkUHtjB07VktZsO4777xz4MABeXPo0KExSiu6dOni8/nkH/21a9fOmDFj+PDhZ+I5nzt37rBhw/x+v7qxTZs2PXv27NmzZ1ni6/379y9atGjBggWffvppMBiU20Oh0NixY1evXj1t2rQkCmhkrV27tnv37upVKygouP3223v16hVFzFtcXLx06dJp06bZuksLFizo3Lnz//73v2RZMyxdurR///5HjhxRN+bk5AwfPrxfv34tW7Ysy8h+z549H3zwwdtvv71ixQoVzTz66KNbt2597bXX4psbKLeOHz8+ZMiQhQsXRrw3MzOzSZMmzZo169SpU9++fSv0m4iIEyZMePbZZ23bL7nkkuHDh/fu3btWrVplPXHlypXz589/66239uzZI7fv27evS5cur7/+upPKfE6yR6bhDYQl0qLV0FGMjCGafBKx2F9zKggsU+EolEQo+0aCXDLaaog2KkMOdHGJsDL/DiJPDFRmKRh0E0oJ0yMhA6seCFVDaDQ7kiiDT2RnDWM4d0Shpiy191AICSBQYS6FBEQurcnzcEE28ANT5ucQJCdXZl9NRJMY6IYxhrrlXEaWcquibtmPYyTkDwVL9ECJHirVTx4IFB8MFP0RLDqkB06Cy5Pu9hZWqZnnzaqanl3Nm1nF482kLvfZ4XLUtm3bVq1aff/998bNnTt3Lly4sHfv3il6uylTpsifKaWxZ8qmp6f36dNnzpw5csuECRMuv/zySy+99Mw64TNnzhw5cqRKKlx55ZVPPfVUuXrYgoKCYcOGDRs2bNu2bffdd9/8+fNtnMGGDRsWLFhQUFCQxL3dsWNH165dZcs1JyfnnnvuGTNmTLkS/vT09O7du3fv3n3ZsmXjxo378ccf5V0//PDDyJEj33777aRgo549e6pMCaV02LBhjz76aLVq1aI/t2bNmrfddtttt9323//+d+zYsaqabc6cOS6Xa/r06UnPCDp27Fjnzp3Xrl0bThT99a9/vfHGGxs3bhz3m951113Tpk2zfWYee+yxIUOGROdZDWKpVatWDzzwwGOPPfb8889L/F1aWnrTTTdlZGR0797dARnnGDwS5I0yOM8XXK4+AmX0HM1sVVAm/hEtQ1SR3IRMf0guUUZgMoWEWwIg2oPX7CSNar4tGCVCEE+UaERzK/AoXJEtoAcDK3JS+mIMCYmdOkISbeocNu8LAHVR6gJCBe0l+mkoBv+kpZEB8nRq7liY4aU1cs6gpZh5cBQ2zN2588ejrrR06koDoGF7aIq2pKE2MmTMOGhERinVqOammptqGdSV63J7s/J87hrpbm+mx5fl8Wa6vRmaK41qbqBwppNGat15551qRsfUqVNTBI9WrFixevVqebN3797169eP/emPP/74Bx98UFxcbNw8evRo9+7dFy9efPHFF58pp/rNN98cMWKE/C2vV6/epEmTrr322gq9SIMGDd59993ly5ePHDny559/lttXrVrVtWvXzz//PD8/Pyl7W1xc3K9fP4mNmjVrNn/+/IrO6l955ZVffvnlkCFD3n//fbnxvffemzp16u23357I7m3YsKF3794qNqpZs+b777/fokWLCr1Onz59rr766nvuuWf69OnqlWrQoMH999+fxKtfXFzcq1cvGzZq06bNY489dtVVVyUIxf75z3/asFGfPn1ee+21Cg2+ZWRkPPXUU0OGDLn++uvlRysUCt1www3ff//9RRdd5OCMcwYeSck1hC37Bu7gUAjNSFpQ1MZ8nSYEkVDDFpqqym3GmRLeUEMzwcNswklHSAMbCdMja8QG3xeqEDZC04RICOzaxwhkEuK34ynbz2hzg7TCPiM/hMVGHWH4WyjvBaToaIhqLupyU40qjpCg6n5QTYAzUKZND4RlgESUl427Y1Mk/pPBUKkvI7dBek51TXMZjlGAYReYSJNNsa8ABCgA1aiLul0ALqq5jJ3XNDd1eajmppqLUg0AzspItX79+t13333Sd/GLL77YtGlTKvx1VOrI+LJboafXrVt3/PjxDz/8sNxy4MCBdu3aPfXUU6NGjTr9w4CXL19+6623SmzUvn37d955p2rVqvG92p///Ofly5cPGDBAFQJv2LChV69eX3zxRVJcrB5++OGffvrJ+LlXr14zZ87MzMyM43W8Xu+cOXNuu+221157TW78xz/+0aVLl0aNGsUNNQYOHFhUVCS3NG7ceOHChfEFFWdkZLz00ktut/ull15S4Xj37t0vu+yypFx9RLzxxhvVRl5+fv6TTz45dOjQxD+6S5cuffTRR9Utf//735977rn4xHmNGzdevHhxp06dpAy/pKRkyJAhX3/9dRxOTk6dDhXnuqUgHr7eA6FcFS2siRBEvhqi0k0Tz6SKU7PpGkQUiINCls1/5ooi3cBDiKgEyDMrXQKc/FSGwcQQPPJu1dr1IaLl2f2hLS7REfNA0KLINgbWSLnUkToNHwm+EELcdPWaIgIuqqUR0MyENa7XMiXbhm04M93ExR8Sq7YVw9CrZTPHodTjy8quVje/9sX5dZtVq9e0Wt0mVes1qVq3aX7dJlXrNq1ar2nVuk2r1Wta1bhZp2nVOs3y6zTNr9Okap2L82s3zqvZMKegQU71+llV62ZWqZWRU+DNyk/zZbvTfJrLA1Q7W+NmNU0bPXq0usX2NTQptXv3brUf1KpVq3bt2lX0Re69994uXbqoW4qKiu64445rrrlGnRQ7DWv37t3XX3+9HIYfOXLkJ598Ejc2Mio3N3fRokVDhw5VN37//ff/+Mc/Et/hNWvWvPDCC8bPnTt3fvfdd+PDRvyvM6VTpky5/PLL5ZZAIDBx4sS4X3DMmDGqXcKll166dOnS+LCRrOeff15Vs4VCoSFDhtgkYnHXpEmTPv74Y3mzU6dOGzZsuPnmmxPHRgcOHBg8eLDarv2///u/yZMnJzK4UFhYuHjxYpXcXbVq1T//+U8HZ5xb8Mh0EzQbY2F8gxlPpngegq3hw4kKRYzEu2ZKfq0if4lFSSz5HXOPECyvQQDJ3iNuBE8k0kjZZ1R0Qmg7LkV7ZLMYKgsARb9Lx+17dEpdQDVi4iK5/5K3QVPDZQKjGEg/JZ9EKJQMgKRprjSXx+vyeDW3T3N7NbfX5fG5PD6Xx6u5vZrH2Ohz8e1pmsfrcntdLq/Lnaa5PZrLTV0uqmmUagAGXUTOpj5aWTV8+HCVhJ81a9bx48eT+xYvv/xyKBSKmzoyyuPxvPfee1dccYVt+5dfftm+fft27dq9++676rucJsUYGzZsmByTvvXWW6dOnZqUL+Jut/uVV17p06ePunHq1KmJ+9Z88cUXuq4TQurXr//WW28lrtZ3u92zZ89WP2Zz5swJH5iKpd56662ZM2fKm3l5eXPnzs3Ly0twDwHg+eefb9asmdyyefPmpPTXfvrppwceeEDeHDhw4IcffpiUHigi3nzzzaqe+tprr33kkUcSf+VatWq9+eab6nV/6qmn4jOhcOpMhUcm3wIEeANMhF6AYqAttqEA+2gu9EjQYJyAENR1NFprUlItA2QRkaEMNENpiGjYHykWiYgWxIYROmWSb6Jk73HfypWUuDJJhPTZKEkcVtURCtVR1N/FWGwKf15ftH430dIyqSedapqBMYDx9hpBOdMPUgOvGB1FwqWmBN7iesBjbk1GC4BqoGmUujTe2nNT6tKoi1JN01yUuoDfdFFNo5pL0zTQXKBRAA0opaABoQDU+DSUTZKdbZWdnX3zzTfLmydPnnzjjTeS+Pq2ef569er17ds3vpdKT09fsGBBjx49wu9auXLl3/72t1q1ag0fPnzhwoXJ+t6feL3yyisSr3Tq1Om5555L4osDwGuvvWbThYwZM0adbkuE9Zk7d67qyZlInX/++aoBQTAYnDp1akVfxO/3jx8/Xj38119/vUIituj4+7XXXlOR67Rp03bv3p04OJbE4d133z1z5sxkZfh89NFH//vf/9QzPGPGjGQ1mlu3bn333XfLm7quq61tp84BeARigkoGg3Faw4iMBcUVSXX4ATBzZkFKYgghgQALMeRG0bpU9ph2kMgRiSlMRrRLuS2jbwjcc1vRfIM5+g5AXdNmFwewCdE8kQ8PCWHUrrGy8EaM6HpUeCQPo2y3SUIIISEdH3p+P7gz3Rn5bm8mAQ1F9K88AaAeMZoEF0SzgJST/FZsF5YYzB0WiCLdNjwQxLVSGqEgxv84UGMWIT5UVuLZaVFjxoxRvylOmzYtDnu9sso2zz969OhE2IisrKwPPvjglVdeiSg7PXz48BtvvHHdddcVFhYOGDDghRdeWLNmTYrcCGMsqXK94IIL3n777aRPjGdlZb3//vvq2diyZcvrr7+e+CsPHDgwubOBt956q4oMFi1aVNFXmDlzpuouPWzYsIhYOe5q3rz52LFj5c1QKBQHhlNrzpw5Uo7du3fviRMnJlEn99RTT6k3p0+fnpubm8Sz8cgjj5x//vny5meffbZx40YHbZwL8Mi0abTMd/FlHHhCPIYNhJMyIsYIIQQCpfoJ7oeG8sWQiYwRQgzjRw6KhNmR5EYAVagQ5lQoDQxlGhkiAfjtSN6Ef/5x+HAVooX5QBJr4qxtyWPII0SMeLVoWRxQ9knmCqmSYjb24d9/3OX2ZBX4sgtcnnTuiE0AZbgIAYurkTyrrAy9kZo1IuVgLGztFl1MszcqzxwzQSfYUSaiGSpDpNmmYhZKKi8Y9pRWvXr11B7N1q1bP/vss2S9uCrKzs7OHjZsWOKvefPNN69evfqGG24oC2mdPHly/vz5Y8eObdmyZbVq1Xr27Dlx4sQVK1bY7Aors6ZNm5Z4DyhiXXjhhXfeeae65ZlnnkkQFLpcrgQNEsOrsLCwX79+8uamTZtsSRrRKxQK/etf/5I3vV6v2rRKVt11111qVO2rr74q5yUrWoFAQLa66tat+5///CeJ+7l06dJvv/1W3uzWrVt43znBSktLu/fee9UtkyZNctDG2Q+PZJKEyP5CKX4BAT6U5opY4E3FkaV7JTfrOh4sKiFIGBNmR8jXaHWsntsMqU49Ro9LLuAmLjIRHFgYE2O2DgghQF0//pp70z3B6a/49+0OIBLioUSjRKOEUgKUUCAaEAqEUkIpocbEFhAqMAcwAkgoWP5n5pGB/S7jfy4gbkpccOJI6N33D/W+bdf/1nm8uXV8+ee5M/NBc5mnz5LvSyy5KkSFe5ERkingimgpIM8LAtgacoroCYT/o8IqCRdKi6BLMYhEcmrFR1iJ2MymB0qWQNs2zz9s2LBkWQLWq1dv1qxZGzduHDFiRFpaWpRHHj9+/JNPPrn//vuvuuqqqlWrduzY8cEHH1y8eHFSOlAx1jXXXNOxY8eU8n/qid22bZvadomj/vKXvzRo0CDp+3n11VerN7/88svYn/v222+rVuO33npr7dq1k76HVatWHTx4sLx55MiRN998M76Xmjdv3o4dOwysOWvWrOSCY5U6AoDHHnssFZ+rQYMGqSZSc+bMUZlgp86IioevlrpnqYWxjL0TVRGNSjIXCmk2kLDRcYZ4wh9QHCBFEJjxykwkiDBzDVfn91FquVHJVzPJKNOuCFQ6C4C60opIndeWZr68aG8Vz9F6VUtr5aPHQ1xAXBoxSBy+5wQRlOExruJhEN5NQQtLpnJnBuUUCpE/joQ27tZ3HSYh4tXSamVUz0/LqpGWVVVzpwNQ7gplDt6ZtuLAPZB4gEt2lpbpTbNGjFjMD0wijJWRqsbz8gxqil9NDMsrAaZiXlBU9gZ4AzStrRCUzwBUOo2ElfuGbdq0ad26tUxh+/jjj3/99dfEVR1qbyJ8Si7xOv/886dNm/bwww/PnTt33rx5K1asiN4W9Pv9X3/99ddff/3UU09VqVKld+/e/fv379ixY4pckuXq9cQTT6T08uXl5Y0ePVp9l3fffTcRN7+uXbumYj9tDMfKlStjj8546623zC/ElKrKmOTWnXfe+fLLL8ub8+fPHzVqVByvI+28b7rpprZt2yZxD/ft27d48WJ5s1OnTs2bN0/FqfD5fCNGjJCfK7/f/8knn9x0000O5jib4RHYRsaNhdqAEKA8AkGQHmgiFWPtBXNZNhdcxJIQQ4l6RPoId4A0cRFRPLfNiTGgxhS/zBcxPZd4n0p1/CFmVhgARZfXnVFVS8s8Hihac7B41b4S1IOIuuocoK4cVsSjoC+JwJCU4UMkImYJJZQQoqVV8/jcXpcn0+XNdKVlaJobgGfEGRSacROUxDPpz2j86/OCi1JUY+ZUfAAmLLNjCMk6oXpVUaTCAAjdEfJoGMYdrRAkS6cYXaG1M6cAXx41czb/Ft11110DBw7kx8vYiy++mMj0tTHQrvoB9u3bt6K+gjFWQUHB6NGjR48evWfPnvnz53/44Yfffvut6osTsQ4fPjxjxowZM2bk5+ePGjVqzJgxyfJUtFX37t0rweD773//u5rktWDBglAoFDfsu+aaa1Kxk/Xr1y8oKNi/f79xM/bcUwPXyptt27atWbNmis7khRde2LBhQyka++abb4LBYCLDhrbWZ+JlG07s379/6j5XPXv2VGH3V1995cCjs589IuZSDcTCG5HwGwAgsAoSc6EPs+whRNd1AXfQcBFCMbrFTNkRx0OMEGCCxCEIAFQzFU8AhDAklHtAUqkylrSGGb+GAKBpbqq5NLeP+RhBndtCSyCBCCYtpnBj1jNh/oiqTzixoiPjpQzwAQDGCJgGoFFKBSEDlnBeRews3cYld0cBSwIBAFAhK6eWjBssAnuDtrw1OdVnjMhxvArylhUYo/DwBpDhwMLXG2xgyMBZZ/sc23XXXVevXj3Zv3j99dcfeeSRRAJEkzLPX6GqWbPm7bfffvvtt4dCoTVr1hhE0YoVK6J3BA4dOvTEE09Mnjx55MiRY8eOrVGjRnL3qlevXpVw+QoKCpo2bbpu3Trj5vHjx1etWlVuXEnEql27doqALCGkTp06ccCjFStWqB7ZqQ4C69q1q4RHxcXFP/74Y9zhrFdffXWUfLr46vPPP1dJ2ZR+wC677LKqVavKK/XVV185gOPMqri1RwT4ZBURU2s2AQqafkXCv4gv4gg8iQ3V1RmQcXyDjPeVgJkT6eqEOsdGghlBJJSCx6sh6ijH1qlpfCQz01C6/5j9QOARr5RSza250zRPusub4fJmGf9ze3M8vly3L8flzXH7cty+XLcv1+2TP+d4fLke419vrseX4/HmutNzPem51nuNB+S4fbkuX47Ll6V5c9y+LJc3Q3N7qeamoKGlNwiotgcVPRegxX8poAf8Qd1yeRC5IaeMASlbnGTCJbWdxqNhlOE0AYHE5aZERuQhKCDRDpPlRNvZDZA0TVNHr48cOaLGnFW0bPP87dq1i2+pjvMLk8t1+eWX33XXXfPmzduzZ8/69etffvnlwYMHR2kXFhUVPffcc02aNFFtdZJS3bp1q5yj7tSpk3pTpVsqVGXFlyalVC1L7PBI7SVVAuK0aaSWLVt2+lBHtrPRrl27cjPmElpcKe3cubO8uX37dtVpyamzEB4BsayGqo+z5WGcRJALNUGkfIUFJZsCuUchb56JADXhlK24QaPSMjIlSpxlAgouL6CuI9M5xhJ7ZtovWUTMoscm3o3jEQBAAKAAlBAKhBJCDQkSUMPax3D3MW4CpZRQYflDKaEaGJpuoPxFuKZbM/TdAMZ/NAAwVN/maZV0E0r5DhokjuRsULJP4iIEQrqOKspRpvglz2QbbVOoI2FdZUiTwDSOIkyBVWC7tAbw4YYNwGVhIMCtOr3GCaUwiJbywsoem7NJpxOZarbN81cCdRSlGjVqNGzYsOnTp//888+//vrrlClTrrnmmoj2M8ePH7/lllv69ev3xx9/JOWtmzdvnlK0oZa6jBFCwtNPY6zCwsLKgUfHjh2L8VkqaZGXl5egR3a5dckll6g343ZEzMrKslm9J17btm1TAUol9G2TdTacOoPYI7XVAiqHJAW7ihZbXZYlykFpmSR7L6buyJBqgz05BIWMBhlBNKbUgeeXuIjbpxnYCM1EetNakoClFWbNWqUcJQFvpAlBE9eIG9aJKkaRSh+0TIRhmUgAFesjSpjkvaTU2jpaJhuBaLTNUE1as9h3Z+XQIn/QZPRUbBQmOYroj8RHEIXFJPLOHwUUfgCmPNwARmYcjHLpRcMQbbNvprIJKlszXamVlZWlDt6vW7cu7u/N6jx//fr1U5R0G0fVrl171KhRixYt2rt378yZMyNyWgsWLGjfvn2Fxs7LqribMnGULSNMxmZVtAoKClK3k2o+Sez2WqrFdtxhbbFXzZo1vV6vvBn3J6Ft27aJe47bateuXerNSgiLtXGusjfq1FnNHqFcIFFa5KCINBMwwlxRgSgekAAmJ4FEDWRDJAwIkwIbNIf8rUCEcNaI8VegGqRXcSGGkIUUPARgAgATLfEem9AVi6l5LgwCsW+AqCI3UIU6ciYMlF4hIbLfKIkgK6PC0SElprWjOD+WtBWU10VItBBIBP8o1Atq0kPHSohEgcTqYFAGto2whYL0CEBEQpjdOgpBHJoF+KDKXRlnAhXZlYnoMHyw8ayhjoyy2TbGN+H/zTffqPP8Y8aMSSQEKkWVnZ3917/+dfny5cuWLQs38t62bds111wTe/cnChqrtCOqXr26qsXevn17fK+TiOAsNb8KqJJ5lQAIAEBVX8U9zX7llVcmfd9sWK0SzoZqDpnI2XDqlFSFpdkKRjDNecLELcJfmRhzWKaYRcpVjOkoc6E3ol1BhKypIbZonaaXUEm8jGG0XaVu+oGtQaYHxUKMyhCdMZYv+kIci0hyhnM1iHLUjYAYBlOgnDo9///bO/Mouarr3J99a+iqnie1JiSEkIUBMwULbLCQDTaJHQYFg4E4YXjGBgczJJj1bDwQeyUG7JA8YOVhywEvY0wgwWGQQWBYDF5mEGYUFiBAPCQ0tpDULfVYVffs98e555x9bpWEhm4Nzfdbtuiqrq66VdXd9+u9v/3t5KaJwcbOkiV35xITiYh9OqM1pjtF5IzNSXuP3Mvpg6X87bw+9UlDpc4Jauj/VaQ7q2rSLpBOtX5/Bm8t2fcsVSYzrxXbEcX0shI3r8dJJBK515nCihhFxGOziGSWfvz3f/+3uXjvvfeuXLlye9tDsnTU2tqa2py6p/GJT3zirrvuevDBBy+66KLVq1e7619//fUzzzxT2mB3gF3WWTMn9QkTJrhCy4YNG7TWe6Aw3V7Wr18vQ6qefvppGS85SkhlvMMqecSjGquLN9dcc82NN944qi+FNMVDHo19eSROpclItxRFydIQVpGJz1HWhE0s1qqaM6ftLtkrdMpyFCwPs4NkzpykxWo2VnGsx3+08bWH1ldKgzquRNlcsumNRBy0O93bcXRytiMziZWkCSWTaqJLKEfupCQMUolIyd6SIkVKhzdUru0X3J0LQLDBB4lqMR4n5yZiZXeaWYGULw6pfLlcif3VNTO+t6CNhAalIANJRXbpix30t057Ik4dvR8IFN8QvtlatQeAWIdBoWOKyy+/3MmjSqUyb968H/zgB9v+5al5/gsuuGBn9r3vMr7whS+88sorc+fOffrpp92Vv//97++8885tz+bZvdUjYxty8khr3dvbO0pR3buSlCB488033VjZrqGnp2cHZvujKJo1a9ZoV492Ur7vpHAEez7b/+cRB+fT9Gk4MTizbQbZJhz7tgqHeiWRDFpJZ5LsqbEbVdNOO4VVJcXMatzMpky+VB7u05VS8rCmjEE+ZVv0gmxMNIkpO+eUFnLDrcj1xh7nOrLdtaQ8FSih5HqZEElKEXHEzvTkIpnYHZMfOaNwoZ3iiJTsmbFSM2YMLuvudYtBkvvgtP+65nvIYYSVf2qaEi3KtqblzU9yi4sXfO4wyb4r9l13tTa/vy15kWhsrmY76qijZIrdf/zHf7idmtuCnOfPZrMXX3zx3vLE29ra5s+f//GPf1xe+e1vf3uH10qknMi7gNTDfWD4095SPdq9B9DZ2bkDWwjb2tq2nue+l74aI7WlGOyp8ojc6lG7L5XD+gRrWyQITtfscxOFynKTTS6FUdqxXXFDK2/DttNYLAWVUoXm3OTDC+WB3kppgHUsXVJJv4yCtRlkK1UkYovYqSjy1RxOrWAjNgHarhtmBQT7BCS2c11yhxn7nqK0YgfdLeeWUj56wOgVDjtorCuzj48XvSOqtUxOXn1A6UjbcGvNJJeWKJdmzukv95tvSZHiSOSPi+dDvj0pxZTixJKUNNaIeazO+stBs+7ubldM+kBS8/xnnHHGLi6f7CTNzc133323LHetWLHit7/97d7yp3ZqFmykVrjsXnavFyqXy1199dU15xx3izLeva/GpEmTRi+vHIwG299cYx9ObXsn3nxCNhXbGrQjv2CCycw8VbmeiZRmbdtt7Osb0nKk2K5+Fa03FvmGrPnwv5r4wCtrh/o35OtboiijKHIlIyLX8/Ix3naaKr0oVw7CUyhofHqi0w5ODDgrUrp/5ttifkyMAjHiIh+TFSVEMtaaVZToCVGa2mfq+3XjBzctHqJI6BfilDZSNS/ZspWO2WVRstyQlwRHOe+5a/AZAxJZ/5AVj+ZNjYjYHrmPPncdOZvK7d9bIt7lM/+jzKmnnjpt2jSzMcoYtL/85S9vyxfuUfP8O8bkyZO/+93vfutb33LX3HvvvV/60pd27N7kyNUuQPahMpnM2JBHLS0t8uJJJ520M+3O7fs7mmj27Nk7lnQwSvIo9Z5ee+21u+wvkKamps997nM7EyAO9gZ5lCoiCSdyojnYnewj0yQisunZPvMwcQXZq0lXiF3qtQ4Hw+XAv5j+t6Uf283Rqnli8eDPF958fHVdfTtlclEmF1FyxvclEG32qSZ5SEQqzMEm5X3FMg/bCwviIGrRGpMosSLbphKzkr0xWX1SfjUHiym3dBC3W0wXeLNJKea6fO/fnl+Z/8IyikhIyKpJ/poeH61UpJRWlEnaaOR0GDn5SKK0JQUk2+RJSvQUufxNEvtavO+dnNpLhyuE+eojB+9W63cmk7n00kv/4R/+wVx87rnnnn/++VTXqSbSlH3cccelRs33Fi688MKrr756eHjYXFywYEGpVNqB+oFxYu3KI5cTXl1dXWPj93tq2UtdXd2ZZ5655x/2KMmj1N3OnDnz5JNPhggAW2KHRjPYbWklld4P4gsZfg9XmJ8jwgaTRfHEqlzKVErWZ+Rn05Lzvk6yIW08JIuxKvarRVjzIaeO3+8TA/0bl5cGejkus9lt6w/b9q2C1g9ZTeMtUWJ7CPsA6CBx0a90czJRM7ELJLClGLtRxU65kajfCJnJsjSkbKYTMYf1INKqqaHnf/9D5dW1q3s2DfqkbZ2eZ/eBkFv+t1LWJgBTud6cIiJK35SUJh+tTUbU2uRxDrxo7IVt4h5jrxU5WEJH4T9jhvPOO0/+1b4tE/6pef69sXRkaGxsnDNnjrvY19e3w0nBu7J6NDg4uGnTJncxNY+999Le3i79Lq+//vpecdidnZ2jcbczZsyQF9944w0oADDS8oiccHAWauXtuXK2ytV7xCIurhJSrFSlnB/YUFEUhNaYCTUt2m3ifxx24tg5po84s/OjJ24c2vzmUN/6SnlI69iEO7odq242XkyxiWn8YGE9yaqVFxzyHkTBhIJmW2KxEVtylfD26KA+5mzrHFZ/2Gi3xCfFunTEYRt/8sPcop53X3l7jVOaHGYJcSr6R5SrpOZhxZUBTVEUZSLTDLSDh+zrV/adjsSeEeagtBTW0oL6Itk9bEmZLlJygpFlbXAMKaSmpqavfOUr7uJ//dd/feBArywdzZgx4y//8i/33qefmjna4RDthQsX7rJjTs1zpc6jezUf+chH3Mdvv/12HMd7/jGPUhNKvhSQR2B05JEoAplpLLILMNgXIVxOoN1XqkTHiVKTU0RU17fBnp6tMHJu5sQBntSNgj0ZpmrCQaw2z5jTNOfyStdBryn1xlD/qtLgprgyrOMy65hZk9bMmu1XsmLWmtnsbtWszANrZmYVm5qVJk6uVJqVubEpaekkRJG1tZdrZp0stWVmjl3Vyzyo+SyzMVNprfxnlWJWWrNmjs39a66wjnU8VJd7/5NHdV/z3aEv/XX55wuf++Nbq22VSVXbsWkb8iAVKR1zebASRVlFkRIudOIaRZ0wHslP3wn3VKDJiJIoKV8ycj3NpBnKZIpvrjk7hn6uLr74YhczODw8fMstt2zlxql5/ssuu2yvTtxJ+V12WB699NJLI5K+vS2kFrkfeeSRY+ZbUT6XUqn0YdYE+++/f2trq7u4w6tjwIeEHfQesR3BMnooWe2ugxzA5Hxomktu3s2vonWuXNMjywy+r+gAX0FxLbNw24gYs/I3UN6xzUoxa1b5BvroiXmmvoF1PX3rqH9DXXkgGw9nKqUc67zijJWGlFqqKotXRKxZWmo45SBSoSaJZGyjf8aJaMxQZB4zUiqfzbimW9e4+sYGjqI4ipgVZyIVZTib43wd1zdmWlu4a7LOtcRrevp+s3TD2u4+lXF26tqDaTUzF9L1P6Xiiq6UOF+XiaIsJbYpUkp7Y7h1VSktm6JBAqV9euZ9Fq9k8g1CPh2LraWJvPhyDm+XYz42fq6mTp36xS9+8a677jIX582bd+WVV25pScK8efPcPH97e/s555yzVz/31HyQe2rb/UuG+eGHHz733HN3vTwajcjm3cUxxxwj27v/8z//c/DBB384z3ZE9MlPfnLBggVOHr3zzjtjppEK9hR5pMKBI++yVkG4tG/ouIExO0WW6nQpFfWvS9RD0m/hsPuknMcmiRRgUTURmy18IUlrVkoV2jKFNjVOlVVUdndiLMw+ICCYgVPKjb6bM7d2QZViW1tVAKN2XittY7K3rE+K+Vw2ipRS+VxmeldrKapUKtrlMpkbxzEPlyqvbxr645+Gh0txYvaKhMZhDibVtiSVuMZBMCk9rOMyUyYbRVEiZchLF2suI7uOjZhE5jn5lbfeeR8xJa+C6z4aN5ZIWSfZiCP/3eS+dKw02i6//HInj95777377ruvev+GqS39/Oc/dxe/9rWv7WmLKbaX1ED+lClTdviufvvb3+4CeVQul+WCvK6urrEkID796U9HUaR1MrVx1113fe973/vQnvCOP/54J49M41sOWgIg2YEaPqdCe0gZ14qyLRUKTsKuyOFXmEqfblKaiaJsz+r6uOLH0FwhiJ1aYjHQz7YV5mKVNEvnTrCjjZXWSldUXGZdYV1hjlnHZkUbc4W5ojhm8z9zPcfMmjnWXNFam4uKY+1uxtr+a9tlytymwpqTm6mYlb1PJe5fx9w/WOrtH+ztG1q3of+ZN1a88NqaRW92v/JG96tLuhfZ/y1+e93byzdu6BkslWMiSspm5Pw6SXuwKpegljYKrUimKjTYU9IVijJ5ymTJ+tylE93leiY+oeT+NcukcFJuQV7ilUq2DJNrlZIPYyBXEZS5BcF+NhojVu2Pf/zjxx57rLu4JYO2nOfP5/N/93d/t7c/8eXLl4+UPJo/f/4uaAbdd999MgTyr/7qr4jGTqd3/PjxckHHkiVLPsxNpdSfKHfeeSdEABgxecRBFnLypz+7Na1MwhnMYvuI27hmqxGiYWZmvwd6GkoDmkXMpJc72t8jW/2kNItNI8Kg5IIlEyuSM5CLapQ1Nokc6iTckbQvX4UKg2u4np3kMNdqo/t8Wrau1ivuKdvZfhKT/7LXFCoaURtKpGFVPY+rj0rcV2hOYlIDPcNKZbL5AkU5P8kvEqGUib+0sozEYlmWh+vyC1xGuhLTe0ol3iabVUB2G51SnJoRZN+HGyMFJPfxk08+uXjx4urb/Pu//7v7+Mwzz9yxnJg9CjkeVSgUdmZIPo7j73//+6N9wNdee628uFeMvm8Xqayj0V40ticzderUY445xl1cvHjx448/Dh0ARqp6ZNdxuARk5Vep2rVptsNkhJONvVHizJsEBflTPsXDLcObSCxccyHZoqxhV8AqFo25cExLy+F/TpW8fAtKbnCtkj1BySWdW1hjBEz58G0fJR3srZfpB25fh5+b53SJh1PSR8ldIRRM11XfXj5lJ6RsdoH5WiK1adVgJpvP5oqZTNakWrMr6zilYtfnsnMTiQJg8AKRGfQnYdtOPitz0BVbqzap0DhmlBNXy/C9l1NOOWW//farqYQMzzzzzIsvvlhTTu083d3dt956a01NNnqsWLHi2WefdRd3frHoPffc88c//nH0DnjBggWymnL44YePJeOR4a//+q/l/rjbb7/9w1xASu3qufLKK13nEYCdlEdcYyGE2Elhs4XI+0w4vaTNtmaS6CPz+Wyuuf99CvtoUrPY9SSaUoPlfktbkK/kVoeFBRbeghcnuJ1YzpaEPDHXnv9ixUyuTqJ9hiWrZBYuSIZiUXlLhIJXg1vWRqKgYhSM3uLB+2tqza+JyALatHIgkytk64pRNmc+EVFwbyS81sTVmdwqIr+XjhIVxs58lNi1yCdg2k8zp7a9iJpazXLX3vrTFUWXXXaZu3jHHXf09PTIG8h5/uOPP/7QQw8dwbP+9OnTL7zwwiOOOOKf//mfd9lTvvPOO2WPe0QqMV//+tdHaQNapVL54Q9/KK/55je/OfZ+yzc0NHzta19zF7XWV1555Yf2nHfaaaftu+++7uIrr7xy++23QwqAEZFHIvbIt1vYTZKxCjZuqGCZl7WyiBVnbEohrFQms+7tnMgfcg0y0WhL/EasfMcs2C3iF7LKBpnri0k7NqvA/E2+rebrRpqD0lO1j0cRs9JEKvYtR65Kygym742P3R3T1v5uYRf6WF0E28IVKTkWfixUrda8cdlgNl/M5RuiKOMfjyiQkq7HSEopjlQQdm26m8miFL8jjsk52YONLTYXyy0pkbHZHD4lprFh0T733HPdLHF/f/8vf/lL96lVq1bJef6RLR39y7/8i4muZuZ//Md/POecc1yS9eixevXqH//4x+5iPp+fO3fuDt+bW0r6yiuvnHfeeaMRhn7llVc+//zz7uKsWbN2eAXKHs6VV14pM6Mff/xxueBvZHnppZeefvrpPfalyGaz11xzjbzm29/+9rJly0bjsYaHhx988MFdnP8Odqc8MgUTIpckLQotKlmo5hWS/4CCxabew00mH4lYbVjWyqx9uJH4IBErgXuYjVTy2kgLXaWVki4kZqGKguCepJKlldBc9iFIbILlqsFz0YpSkdkJxyQkV0qWcDAUT0rENXFNucMiV9sKRa7aOFujSlRVfWFrx3b0rx0c2FjJFRqzhXqKonBNrm+s+WUs3iwmRAslX0fhM2TFHPln7q/2E30uitMv75UHq6KdnPJnEf+9O2lsbLzgggvcxZtvvtl9w/7sZz9zQ+8HHHDAX/zFX4zg46b6Bf/5n/85e/bsJUuWjOqTvfjiizdu3OgunnXWWTJmZnu59NJLXXryvffeO+LzVr/+9a9l9S6KohtvvHEsmbIlLS0tqSLiJZdc8tBDD43so2itv/Wtbx111FFz5sw54YQT9thX44wzzpDZ7t3d3SeddJL81h0RVqxYMXv27FNPPXX//feX06lgrMkj2wYhXwDRwpZjVYHvu5HPsvG6QrpxEsu0WF5KNNTftmkVKznlpgK5UT2b5oSK1kGVh6uiDL0vhuV62dpNqJS1yE6pp2RJspCEFCudHqInURsSCsyUykRw9BbP75zqBVYLo635jcJaH4klL0opimjVS+szmWK+vjWXryfKVGk0ksHhLtxRCE2jlDRT1Zth3mNdpVZsGIAzHiVb3ohdbKgLmgy/fHvPWHtWW05GRC5duvThhx82f1bKP98vv/zykT0xX3vttU1NTam/6WfNmvXTn/50lHbSXXHFFfPnz3cX29raUn+jby8TJ068+eab3cXrrrvuqquuGimbyEMPPfT1r389VULYltV4ey/nn3/+qaee6i5WKpWzzjrrhRdeGKn77+/vP/3006+//npz8fe///0f/vCHPfbVuPXWW6Uf64033jjttNMGBwdH6v5feOGFY445xmwKiuP4uuuug9r4UFSP/EI11zwhV21JNnOxON95e7L/tWzdwmKjGCnKRg1r/lSkiFwuEYvpM+flYVtJ8q0fqWO4yrzjJBgHq25TuUqhAOFALlAo05JnbF1JTNXnZA5P7ElypnDhpBObtmLNFovL0iWi6odM7WCpLb30qld6coXGYmN7Nl9MIq6VH1bj0HtFzu1uhBPZ3bVc9USl09pJ4kQOaesuMu4xEqUxUoH6pZ3sq+3erbQp9tlnn9NPP91dNAbtu+66y8VJd3Z2/s3f/M3IPujRRx/97LPPHnjggfLKwcHBSy655JhjjpHu6Z0njuNLL700NQ/1ox/9aOcXu86dO1fG0vzkJz855ZRTUv6tHeCGG26YO3euPBd+5jOf+TCkAc2bN0+mIPb3959wwgkj4rxZvnz5nDlzpD7O5XLjx4/fY1+KqVOn3nLLLTKe/g9/+MOnPvWppUuX7vyd33333ccff/zq1avlLwGojbEsj8xft9lMVFXASIRSkvkY2mWqcnl80cCE41hdYhK2afXijuEBbRdSiNNc4B9KV5TSY/xKLGRzQUpcS3n4hO5gbp+JvCahVCXDZgiQCp3FaksTZE4QsnMfa7vXV22pBBRKIf6Am4VdOX+wTKp6zG39G5t6V5YKjR2FhrZMNm9FSzJ9nxiKyHUXyXeqvGvdji26aKvU1jdS0lvPiWuffeFJBj2w/e5x0lNJa9KO7BzJZPagvRzSV/Twww8vXbpUTrFddNFFhUJhxB905syZTz/9dLU5+vnnn589e/aXvvSlERFJixYtOuaYY2SZx7hf5da5neGHP/yhfAoPP/zwJz7xiUcffXTH7m3jxo1f+cpXvvnNb8rVY7NmzfrNb36zpUzzsUR7e/uCBQukaunv7z///PMvvPDCHS6clEqln/zkJ4ceeqichoui6Oabb07tONvTOPnkk1OaftGiRUcdddTdd9+9w/e5bNmy008//eyzzx4YGJBSTJoOwdiRR67mT0REVCzklVJxpUR+F6m2hmwK3SnpQSeueSK1kTkmUJDjce89l6MoGZYi0WVKr3BVYRARyyqE4rCa4fWT7LxxWOgQBiMvXahar1Ao9mpMjskKThJDIHMMdFAMCr5YV5WAhJNrKyKs9ue2oL8W/3ZFrq65vmV8vqE1ipL1JvINsV4xM3qmKIxAIO8dc6tfuKYgtt85zr4vfP1yrQiRWzijfKctrC1uWz0orpSMMK4v5KMoMt+0u/3H7Mgjj3Qj7sx8wQUXuHn+urq6iy66aJQet7Gx8fbbb7/jjjuqCzn33HPP7Nmzjz322J/97Gdr167dgTt/7bXXvvGNbxx99NEym8DEKv76178eqZediH7xi1/I5J6lS5d+/vOf/8IXvrBd0+mDg4M//vGPZ86cedttt8nrjzvuuAceeCDViBzDTJ8+/ZFHHpk2bZq88tZbb/3oRz/605/+tFQqbde9Pfzww0ccccRVV10lRwszmcytt966a7bB7CQXXnjhTTfd5HrfSqlNmzadffbZJ5544va6ywcGBv7pn/7pkEMOue+++1Iv+GOPPSZn5cCYqh65cwwRTRjXrJSqlAbFLtJgLMr5dCk5t/piQOD3DRQE6URdqSiTXf78xM1rY+9w0sGCEWvQNq5sux5EJd23wHLEIg+SVJDUE0zFsxytp1CNVQufYP8I15hp8ztU2Lud/Cc1V2U+CmVBLraA/eHpD7Bjc/qOfMpR1Vuplj3VvfHdUn3rhMb2Sbm6Bjed7x3TyfCZ1S3MdrbQb7zT7MKbZDK6SsUBmIF/tsVA11tM9vCxK76xaNlaVayItt9FVBkeUEoV8tnWpqJU9ntUAUl6Ms4+++zR7kGcccYZixYtOuecc6o33T733HPf+MY3pk6dOmfOnKuuuur+++9fsWLFVlqTpVJp4cKFN9xwwwknnHDYYYdJd7nh9NNPv+OOO+T5ZufJ5XK//OUvU3nijzzyyKxZsz73uc/deOON77zzzpa+dnh4+JFHHrn88ssPOOCA73znO6nG3EUXXfTQQw9JD8qHgQMPPPCZZ56Rke5mjvKSSy458MADr7322ldffXXr9/D6669ff/31hxxyyEknnfTmm2/KT40bN27BggVf/vKX95ZX46KLLpo/f35qhuDxxx+fM2fO5z//+V/96lcu1L4mQ0NDjz322MUXXzxlypQf/OAHqSLcZz/72aeeegraaC9lW3+LEVEURVEUdbQ2KcVxZdjOIZFdsSb3npGoATgTkg9HZLltxOwOc9Ykogx1vnrvho+fvzkyHTexcZZlpypojdVQM87pE46qMads17XabSptx2YfXU1kjdgkd6txOMnv4hTDKlZ6GVvYETP54i4rnFIZTGoLjmwhNG2phWolK5LqXTXwp3tXFpq6mjr3LTZ3ZbP5JFvbvJUsPUREvotpnwoHT4qUHL8nFXnXNSXPlZJnFLzfrjJl3srIVqso0dTKVZvIKW623zUkjquGPCoPKaXqi/liIW++afeQWaSTTz55//33r3Y2/P3f//0uePSOjo5bbrnlsssu+853vlM9r6S1fvrpp92fy3V1dVOmTJk8eXJDQ0NDQ0M+n+/t7V2/fv2GDRvefffdLQUENDU1XXfddV/96ldH5c+4KLrhhhuOPPLIb3zjG+4MxMxPPPHEE088ccUVV0yfPn369On77LPPlClT6urq1qxZ093dvXr16hdffLFmZlI+n7/xxhtHqgO419HZ2fm73/3u61//eqqWtnz58u9973vf+973pk6d+qlPfWrChAkTJkzo7OyM43jTpk2rVq167bXXXn75ZemqSamBn//853udz8aImFNOOSX14/noo48++uijURTNmjXrYx/72IQJE8aPH9/c3DwwMNDb27t06dLFixe//PLLNfuS+Xz+qquu+va3v139NwkYI/LIFY3MmSaTydTV5ZSiuDycrKAlVTNTWighUabx525y8YDBycs8WiY7vHm/V/5r8eFfiknWjXzsY2QXzlbJGtFF8+lHoQAJtBGnV9q6/3odwLY/5CoaLlq6piZzz8ZuqWX7dHkLSkxZn7o8aA6PXtWsZklDevU7EdaNBjcMPfPvS0g1N3ft19y5b77QQFHEdt0sWZEkx8rkHSU7QWyJyOYhEcsBRm8kI8WRlU/J++zc+16r2kh1lzdKQkAloaHmW0Q7kxNvJVTbyKNcNmOQhc/dXKeNoksvvVSmRCqlTjzxxIMOOmiXHcOhhx46f/78Z5555qabbrrnnntShR9ZcXn77bfffvvtbb/n448/ft68eaP9V/I555xz5JFHfvWrX63O0X7nnXe2UkNKceKJJ15zzTUjFcIpv7VG9dtsZB8on8/fcsstc+fOveqqq6oX2y1fvvyOO+7Y9nsbN27cj370o/POO29Ent2ulxQzZ858/vnnr7/++n/7t39L6Wmt9cKFCxcuXLjt92bceLvyRxuMyi/tbfyudfKooVhnyjjloc0qsPXIzRgsd9tbCcXkT4buVuQH2Mn32qJ8Xc+Kj7zwq8zwsC2fuEgis2HWqQhdFWHozr8uA4llCahGkYgp0E+poTPl9si51KZkfytTDV2YHIFTDVKcbfFX2pZ2uYW34ZqZkKn4Aqr5JqqeZX2//z9L4uHGlvH7t02cUWxujzI5H+LNLsaz6kj8G+ZbhWzLcrInx6pWJCUHUUeK051ArlEAEwUnJlt+TMbrtAqNX6lTe3+vUqpYl+gj83t2D1FI55577qRJk+RP1m7ZFv7JT37yjjvueOutt66++uqd/A1eKBT+9m//9qmnnnr44Yd3TQfh4IMPfuqpp2699dbJkyfvwJfPmjXrkUceeeCBB0YwoPwzn/mM+3hUF5LIB0q1xnamqPnyyy/Pmzdvx15PpVRra+t3v/vdJUuW7Iw2Ukp9+tOfdh8fd9xxu/7norGx8eqrr16yZMmFF164w93hQw455De/+c2TTz4JbTQGoHK5vJVPx3FcqVRKpdLg4GBPT8+aNWvefvudG3+5YGi43DphRkNzl4vFIW/H1kRETMFp0P7rawXkDS6KSIQL2UqCjktDfZrf/tipfeP2L+iYXfVFc9hWS2Vgm/aZtnvNkiOx53it5K1SY/5bqO3Yppjpr5EdUQ/3g1WtKmHvpKkObQoeRm6ctWU1rlWU4lp1I1Lp9l449s/M7/5+7eL7V2dzbS3jp7dOmNnYPimXr1cRkd/vImRekPHoP2d9R3ZlmvwSmbbt2q3EqVxIJZfN+KRI4sj5wIPOq1dLSRg3sWjNpjWpUkqplW88XSkPHXPYtJM/94nJkyd3dnY2NjYWCoVcLmeKSbv35+2xxx47+eSTjQH2iiuuSC1D3S28/vrrDzzwwMKFC5977rlVq1Zty5fss88+xx577OzZs08//fSOjo6ROpKhoSFpkf7Xf/3XSy65ZEs3rlQqCxYsuO222xYsWPCBgeD77rvvKaecMnfu3NE477788ssXXXTRokWL5s6de9ttt42s7yr1lM8999x777334IMPnjdv3uGHHz6Cdz40NPS73/3u/vvvf/DBB7futjHU19cfd9xxZ5111he/+MURmbt89dVXL7zwwpdffvm00077xS9+kcvlduMPxYoVK+bPn3///fc/+eSTWz9FGqZMmfLnf/7n559//lFHHQVV8WGRR1prI4+GhoZ6e3vXrl373nvv/d9fPbj2/c0NLeNbxs+w00aUeIhURCrojgRnM9u7Cbs1ss2SfCmRZlasdWm4f3DTqqaJKw/4bKZ9Wp1i1pWgRpQa//f+JA4ykVwCJbObw2Kxb97vLFFB30w2vUhpxRlFcTBFV+McbapZxBGTplQ2k6qhc5JPaXG41cFHVbUkVrWUh9dGlKG4FK96acOSh9YMbIjqm8c3j9u3uWt6ffO4bL5AUeSmCOW6YPLvpm8v2jeNle+GmugDIpJr1uxyWqU0qYjFt4KXM96URfIx3VGI7iy5gzCftC09Epmc8pWKK8MrXn9KKTX3+EM+dfThkyZNam9vb2xsrKury2aze4I8MqMxjz/++KGHHiq31e4hrF692nSp3n333Z6ensHBwaGhITMQ3tHR0dnZOW7cuCOOOGKUCkXbJY8cpVJp0aJFzz///OLFi9etW9fd3b1x48aOjo7JkydPnDhx8uTJxx133GGHHTbaL93AwEB9ff0ueI9G+4G01s8+++yLL764ytLd3V0sFpuamtra2vbdd9/999//4IMPPuqoo/L5/Ig/+uDgYLFY3HN+Inp7ex999NGlS5e6V6O/v7+pqampqamrq8s43o4++ugZM2ZATHwY5VEcx6VSaXh4ePPmzd3d3StWrPj1/zz2p7dWZHLF8fv9mfJZ2omViJMeSBgWlJznnP06+KTt0ZCNTrK1CmZmHVeGhvt7BjevrmtYN/GQeNJh9Y3j8pl8xJo5Zq1FwhEnm2ilAWkrliORF1lViZF6y429RYritDJJyR1mdz4X2+51zTW4SvnEn0SGGFv7B3uxteIoCCYwWdgqUqxUua/cu3Jg5Ysb1vyprzyQLzS217eMb2zfp75tQqG+JZPJq8htAiYnAJNpMlG7cXJWBVUkFYyUyRUj5imQ77jZ2lFk5+DIm7Ct7CRv3g/kFAU6qpbZqOq6/o1r3l/xWiai/3XasR87aObEiRPb2trq6+vz+Xwul9tzbNpgBOURAACMBttkzTbnlUwmk8vl8vn89Knj/vTWyrg8FJeHsvmCK8jYP+eJFUVupitKlrQpFwNI1cWOZPyf2LdUktxFirK5YtScyxWaygMTlj274c3HunPF9Q3tlYZx3NSVa+zK1TVms4UoW4hyhQzlIluDcAUjOXzGLCa1XAVEKIFgdktxssXem6wjc2a35QxZ6HF9Qp08TZsLRMHYXqjY/JpWd0MhK1T4Jf4/kVKs4lIcD5v3QQ/2lvrWlvrXDfe/X+lfV6kMZ7L5hkL9xLaujmLzuEJTR119UyZbiDIZ58BO7GLuObu+GDNHJuDAF/qIUsUvcu4yoiQO1L3ySY6Rl7+a5Po60oojVyGyd0Iuc8q3RYmZiYR+Fo/PiiJRaFJKqaH+DUqp1qZCR1tTLpfLZrN7TvQRAACAsSOPUmNruVyurq5u0viOTESx5qG+DQ3tk/wZVPZlfBeEgioHiTNrUALwHbhUp0dRlImyUaExmyvmG9sqpYmV4b6hnr7N3QMrXxqslAd13M+6zKqSzelcnaJIU6QoYoqCOAGlapchRGvO9Y+qihTVo/icLl8In3IyoR740MOKUXVliIKIcHltcpDMSmlmrbRmXeG4wnGJdUxKZYmyUSaXyRaibHM2X2wZV8zW1ecKTflic77QmK0rZrL5iLKuo8Ve2iRja3YRHKlAyprPkFO/7CKRmDUR2bsjF8xtBY7wDol3NnG1U+q9JyWzoTgpI7JbcJIqLhn9SCnjPysa2LROKTWhs7lQKOTzedNQg0ICAAAwuvIon8/X1dV1dbZ1dTSt6u7t713b0DbJn9KJwh3t/pTqN0awOz0zk8vJkYUKbzRx5iCtiEhF2SxlsrlcQde3cHNFx5U4ruhKKY5LXClrXWEdx3GZ47LWMcesY9mXYplLFC6YdznR1U9ekR8ld9UNoQNrLBzzaP/JILGRhDSSKzlSFh22uzTIbV/J+NRxoiiiSGWymUwuyuSijFFIuSibz2TzUSYbZfOZKENRRlFEPrNakQ80SiSZSDfX/rVxU/acKCBbFEoyDyKltHzTXZJDcvBMpMIWG4lhRrKGfqu4ZOI6q3AVm/JZkqmXm3z3c6C3W8cVpdTMfbsKhYLxG0ltBIUEAABgxOSRVEhRFGWz2Vwu19pUv7q7Ny4P67icyeTEMnd/eqMwEikpQ3Aqa9s7hKz0SBQTCSeQsy6ZlkrESlGGomyUZZUrxByrOGbWmmOOK1rHrLVJe04HCST3H8xQJRlGgeWHUp5nXwVLFaHIhhoRVbtjrADgQCaFj6HEtFZ4D87tToGDOqn3KKKIiCjKRFGOMlEUZYgyUSZDUZaiiCiiKENEvnFJNf1PiR3IltmEAKGkehTotTCoklIh3TbHigOffZBpIJKugqdMnKrHkUgyCN1P4XY2tiHtpcHNSqkoopamejOn5rQRqkcAAABGpXpk5JFprhWLxY8dMOW1pauVjgc3r29oneASj0m4adyf+26oPzl9UkoSKfvFlKyl9TWlRF3YeEZ3KowUUUSRufeMHbvnYAtqMJsuTrkpqZMarguKG0EodO1UIQr0RmJjkk3G9JI5OS+mxEslB7eSgTDn6AnuhYMmpSJSxEQRKVFjIdlHI2X6Z/46qVlVkHsdPkWRv8iiIMhJd5QT9cUqqPYkEeiJpysloSLXzSQlnWbavXhuxbESy1ns8tpEGSbfKDKTnPo2rlaKxrc1TOhqd8012LEBAACMvDxKZUJms9lCoVAsFqdNGd/RUr++d6C/Z3VD2wSys91iX6losYlA68hvj0haan44TCsVOa+N6yf5zSNVQY3+hM6RKGZEbqEsSbORUV6uxlFtMaKUxchppFozbUHLjIi126hqR+DJG6xt0SNJOzRSI/JNvsQRLZeVkavt+NW/ThIZy7vUln4ajFhxJF5kJRw8FCQcke8rUpJz7QWaL9XYMpu5mRNuQl0JYeNzplJvE8vYBNkds6UwN3hom2XWAE8iN8CPRSavdnLM1N+zNq6USPHHZkysr6838sgUkKCQAAAAbC/bupLWddby+Xx9fX1zU9MRB001G0CH+jawW1Dql4u5rR6+umJ2TGjrM7Znb1vxIGZ2wTlBnJEPnQwrMHY8Xbk9rjbo0HyO2K9mNSd2swIsqI+4ygcrucHUxgIlz4GYbWyzImuWUb7S4exDiVGIIi/giFXktoglFTR2JRInSuROX7IeIacuIrZWnWBBh1z+lgQrJN5n0a5iF79ArMIduUEEgp+oM1Yj916QkovrErGbcpKzE8lGnrpNv8QuAFKF/vtkfFDsWmFRwzK5nVoFoZosKlG2EqmU2rRumVLc0pifOX1SQ0ODy4GELxsAAMCuk0eNjY0HzZza1lxkpTa/v9zNnfkOkR1rkqUXDhtDFJpl7YYtYcxlOeQv0onE0L65USqO2q3/IMX27BwOxrN0E6eSmMjnTpJbW2+LXJT4kJil90asD2FWrDSJZSZOJ7hxPr9cza4w8wfoJBCLOpwpO3nlyb6NxV7SiDk30YQznTWy4ql6FE8WiYKLbsVasjKORG0nlV3lqkLM1g8kk7G5SqAQs1/PojgM7laJSdyUlZLPunpi8D3DRGqgd11paLNSdNjMya0tzfX19cVisdp+hJ92AAAAIymPjEIyS6zy+XyhUGhoaGhrbTn8wClKqdJQ/+DmDX69etL1cFu5XJHEn9QomVQP6w+udmQDFe1duZpH6Ox1xR45OZ6cuu3SC7OxK1k/b0sVyrcAiWuYh6x/x7mjk3N/8sVeVLF/GclVy8hvm7fJBJzUb6om2IXtxzqnXQ5jMjzmZSIHj0xCU/oUR1JBnYeTmk7SOrRhT/69kTt5OXEpyTQCP+Rvd595i7f/yBqkkidrtBwHTiZmISKZ/RMwn3A7ReRLZGcaIyecWWwJTj7Jinu731GsWhvzH91/UlNTk8mBlFP9+DkHAAAwwvJIWrON/aiurq6hoaG5ufngmVNbmwpKqU3r3vVRR2yNQ5wIHHdapDAEiJKzI4fKxBtqyJ3pSZ5nrd/F1h9YLqgQu9hE2KRbP+9qTdKDZNVI0jDSxNokWbJcZ8YUCcdw1SoTZcorvhrixBL5oo0cxKJgli0xCPm2JLueIYcyikSFi0klfi5fU2NXlWMZKiQ35Hr3fBgfxEo6h2w9iNzC4URWVWU5BZU9eaW8L2YWmQ1eFhMlz5NY5i8QKZ26F3ZKi607ilT/xjWloT5F6pAZE9rbWhsbG+vr65EJCQAAYBdVj0wByfXXmpqaOtrbjjhwilKqUh7a/P57QR3IeYLYn5y1H50ikedDQUfN156Mz5hCGaESBxEHa0FIsUsb9KGDbOOXbVlFuHLcUJuc1jcPEjGJkocK+0SuaMOJBcnVr0wrjplJ6SAIMTi1K+XzC8zrIzbYyptS8HUkDEZ2QJA5KQc5OxVZq04gsqxsJNlZ5HCZiFvFQmL4z8sZ+7ISM4lBQtkyVJHYZqe84HKO9yRlgL16ZJLWfQqdal6EpR35SV9WKaXi8vDGNW8rpVrqcwfNmNzc3GwW0DpfNuTRXkQul5NLRVpbW/GaAAD2Dnnkco+KxWJjY2NLS8shB+7X2VJUSm3euLJSGpSTSon7iHxwT7CL1lUhSHi4Wez2MiPkgXfYlQ+cukoEEQtvDiWz+6KVpcjdQTrHUPaAODVzr6Kk0CEWqCWVKGYyUoFZKaH7RB6Q9AWRfaHF2jK3N4WTeXX77MgKRJEzbe5IJ/egxZ6WRCoyyZJcoBJlKpGthBk/NAsDlgsSIrnThJUSd+50LbvYBR9vxUEUuneEMduXzRemkoqUUXpkJW9VsCYHZioljVbm2HvWLI0rJcX8Zwft09HRLjtrkQWBkHsLmUzmzDPPNB8Xi8VTTjkFrwkAYLf9Rvr+97+/LdrIn7GMHtCameM4juNKMU9vL+uOY10e7G1oneD+zPeJi8FGWj//rlyNgZx2sjPdwVoK4tCUK0SW+XLtZuZdzrXs1pH0LJH4P8vbu1SlrexeJTdw70MP7ZB5cgQkH9EMrYc5iWZtrrciB4dpPe0uZ1Jma5KfiaeI/BGJFCTlht4ju76DRMPSG+flyBzboIBqFUFuPswFDtmRMb9JzpembFtMBimRWyvnMwBsigFVBUIFTzl8Wj5owtxsoLe7Z+1SRWrapJbjZh3Y1dXV3t7e3NxcHZkNebS3MGfOnGnTpk2fPv2mm26aOnUqXhAAwO6CyuXyttzOGKm11nEcl8vloaGh/v7+jRs3dnd3r1y58omnX372lWWKqLFtYkvXfiL/2k19iVMescxbtG0mEW8UBEi7rfE2nieVIu3vRKwu8dUHsnvFXGa2yfiREswVq7zAYBl15NbLssghSlxNHCmSCkEmTyofGF2VvRg8d2vltgeRPGG2wYdiq32gOVnJUX/hkSafsO22s7DIR0rlWZKUkVXHSqnsS6Fr/atux/8jH/ZJQbaStZolmrFqxQvJJ8+sKFKs7Qsg88vN06uUBlcvfV5Xyk312bnHH7r/9GkTJ07s6Ohobm4uFov5fD6XyyH0CAAAwI6xfc211G7ahoaGlpaW9vb2ow6fOX1Ku1Kqb+Pq/p412uUryxkrV8tgsospvHVI6WRILBlqS5JzKAjkIU73Sdi15JL5fQp3oDLZ7pjfJObjB5POlgo3g3n3svsvmfYVBS5h8yxIB1cleoH80fkdrbKHqKQ48deR8xD5w5Ur0bxNO/K9PqVCp5EUP3ai36VUW8+27a2ZITNrdw52m7mCHXOyjM01IolEWqfveiXPVbuGIDM7h5fdOBJ04VzGk5DFLiFbRSym61ySOism7l62SFfKuWw0+8/2mzRxfFtbW2NjoxFGZmYNRSMAAACjLo+kSHIG7WKx2NTU1Nra2tnZedysjzbVZ5Xi3u53K0N9ybmSFNvNrK7pYiMVidyJP6iWcFCgYGnXUd6Vk97WQZpYK2LFOhQgZnDcd7eCTXB+TYmdTnNz8dInrf0GWSfCbHRRss7eLyezWzCk94llAjdL2zWFxhpj1WYjyJIullxb7+bhNLGJCpfzgBQO0Pv8cStQ7T1o5XzzZLtcJtA7CBVyY/dsxuOi5BDtFJv8zmC/uTdyLyxJbecW+JJY6sJiWl9+p3Ew6GcKZU6cvr9scXmoj1kfOqPzI/vtY3pqjY2Npqcmw7KhkAAAAIyuPHLVI6OQTAGpvr6+tbW1vb198qQJnz3moHw20hy//96fKsMDLrbZZVezcxSLMzqL3puPvmHrCvbz88TarfAIAp9dmcNGANlmkjB9k6gQ+c1esvLiqiNUnWsUBXLG3C/ZKXobLuTqIkkHSwQX+UQi57dOV6j8Uhab2yTLWSyNQ27xGbO0TyW6yOY7ybJU1WSgeESnT9jHYWovTxNhZTSfJmLyUdX2bTBqkIxjnY2xSmkOw5tUoLvcgTEHCQlWMAkNbY3nzIpUeahv5ZJn+nvXMqvpk1tmHTqjo6Ojra2tqanJ7Vkz8gg/2wAAAHaY7PZ+gVFIzGwUUqFQMG6kcrk8s1LpHxh+fOGSclxZt/zVzikfy9U1UkRiSM00Rliu/SJXePCdNHJn3MTbw4pJe8VAcm272Ium5Apaki0cNkvRfLChq0Ww9fAka99CX1QyT29ijdg5X+S+MGWfGsvgaut9trmKQpuJRp7bJea2xir3SMp+oJN7D1bACUcWC81jtqGw8GrZpbRCG5Hwc7nWH9nina+4uDgju+aMRC6RcqHadjUIuXRsq09NMAPJyTq7W869bqYDmjyRSPjVSHTazOXy4KY177zEcYWU2qerYc6sA7q6uozfqL6+vq6uLhV3hNIRAACAXSGPzKlOOpCMX7tiOfSgmFk/+dxbpbi8bvmi1q7p9a0TlNdAPprImVe0iMlWyWW2m0PMyJQ/ofpwaxZL7v1wmTjtE2uXdUgstrsbC7DQKC5HyLpfosSXJAIt7YMGvuNkZJ2IvGeHq7dtOLnibsVy2RqnXhG/R8V5sK0NnIJNuP5eTAaSlXGm4kJJtCbLzbI2JoDkShVfeRIvu433dIeW3LfIbbRLfl2tKphNtKN3rM0En31ok5Dt/euJwYyks94lNwhnd9+GlRtWvclaK8VTuho/c/QBkyZO6OjoaGlpwZI1AAAAu7l6VF1A0gJmPpSZmZ947q1KrHvWLq2Uh5vHTfVnfdc4s202sW7WTX3Zna1WFVAwWKaIRdMqGL+KRMPKT33Z4oZ3ICWFD7sNXhQ3TA3JV7T8tTLSSCRZk0vutmdyFhP7Xi24oT3Fcpeq1C6pzXFuQYd5kci27GwWuWvYmSu0NVL53cB2da41wZPfOeKDDUR9yG5PCd/uxH7lBvPtF1svmFNIQq66VCe/jCRsbypiZjkgx8yUmu7zju+eNUs3rVvGrHIZPnBax+EHTps8aeK4ceNMW81sWEs5sqGQAAAA7Dp5lPRKlDL2DmbO5/OmhuT+PUypTCZ6YuGS4Qpv3vDe8GBv+8QDMrk6lWwade6ixFliqy/aTaM7tWFbNSQG68n1dNLT8sKMwzLUyK6rkOlJbrrctK7YiRE/kU5WT4mYAUV+8xq7F0QmE4gun5t880s+fH4kUSpXIJQkzkjtxuvc4SgmERnpnwp5jcWiaiVbmW7LievsiWjsZL+vLeqIxCT/ZrgNtb6Y5QtgqdqZd2SZLqlKGcDsCxC09Fh8KZOKy0Prlv9puL9XKarL8qf+bL+PTJvU1tbmUo6KxaJpq0lHNn6wAQAA7IbqkfnAtNhcKpLB1JaiKGpuKD753JK1GwdLg5u6l73SOn56sanT71hVslTiVQy5E7Bbt0bW4M3ex03i3MzKySwZPU1uK3wgoexjJn0g19qRJhonDZIOkbcKsdLSRiNtxW7ATNRFyPmSWPbqVFUikHBPKRZ1K7dFzYd7s1yv4ktFyWugfPxAUB8Smd4uZ0oppYN1drYw52xIrp1HSa/S9dmCvEpXqpJrSsxbFZETRXbTCbssLFtC9M/EK0lSSg30rN246q24MqwUd7bUfeqI/aZNndza2trS0uIijgqFQjabdTHZKB0BAADYPfJIiiRXQzLIhKRMJtNQX3j2pTffWr4hjksbVr2RLza1TZiZzReTDezOKWRbbORt2UoMsElDMAdBk75t47SJLb8EwkBZcUV+F2ySJaDsIlZRb6JAY4nQZwrKI3J0jsl267yFm7yGkiHTSjkPtEoXkUTSo3Az2aKWm0oLZJZKJA2bxKVgD2wwsVZ10M7kRIkpWmZMyvqQq7w5k7XTNe6JuOW/xKIyZEWPDAKQe+SouonJKqLK0MD6Fa+VBnpZqYjUjMktsw6dPmF8V2dnZ0tLS1NTk9kfYixH0EYAAAD2CHkkPdpKqWw2666X2Ui5XK5YLOwzccXCRcs2D5RLg5u7332poWV8Q/vkbLbgLCuyDJQkWivbICLy81O2S5WcXrV0N5Mo1cgDValWlQo9P0G7il2mNkV+IZmbyKdgrQkH2QCif+eVBPslHMIjJPfABbGZNtbbPxZrpshJRjep5ytnFCiLpHLli01ips07tJVRHNKFlHTLhIRiK+JEt1I5PxW7sMukZOeqTMmju8Rv0Tbl8NVLOqtM8kVSxJXy8Kb33+3fsFprrUg1FjIfP2jSjGmTOjs7Ozo62tvbGxoaisWiqRvJSX5oIwAAAHtE9ahaIclk7Uwmk8/n6+rqCoXCuPaWF15d+s7K3orWfT2r+3vX1jd3NXXsk8kXkvJD0jbjYPFX0D1KKR+WG7uc/iGrb8g5bWz0NrHfZyIqK+TGtZzV2A79V493kfc0q4j9ljYlxvKU8pUcZ8ghlTID2YNyZSq2mZlyRi+y5mQO1tX7bplLtWTNtrfoIgLsyFsSCkBBMgAJ85GwQNmpfEolb7JfmufUmPN6J300EX3tXi92C9Zcz5E48DS5N6EyPLTp/WX9G1cza1Yql1HTJjQecdDU8V3jjDBqaWlpbm6uszg7NqbVAAAA7Cny6ANrSFEU5XI5kx5ZLBZbW5oOWLn21TdXrli3uRzr/t41A71rc8XG+pYJxcb2KJMjcv4Uv1fNu34VMavIlyeEXpHZSX4Mn31pxA54hV0sJaQSKRkCxL7x5O6Q5UZYX8ryrmz2N2HyGQbmqWg3ASZ0gn8kJjfxrpgospJNDPJzsKyV/Y4Pp5MSkzv5ghSHu+SCEg6bNbQiw0kpDhxdPs+bTNK1H5jzjTVbyrKhUSb3235jKLERRNb3km4gKyKuVEpDm9f3bVw1PLDJHF4mUpM66g+eMX6fiV1tbW1tbW3Gb2TqRmafmvFip7QRFBIAAIDdL49qKqTq/pqRR/X19Q0NDRPGd6xcs27xW6tWresvx7o8uLl3sK83ivKFpkJDazZfyBdbMtmceABTWYhYcWQTEpUMJbKx3P7sq+S6W5GPaHWFEttpbacoPUeW6DNpsEltllUy/pnkAzOnpreEtVpRdVyAMCp5u3XSgGMzKOejkJJelsuyFIUrm8UUjtEJjZJUsUg6s9xt5Wi/fb1cfcj3ymScpKvwkcxx8k/Its6Sg5ClN1alwd7hwc2Dve8PD21iHZtHy2XVxPbigft1TZrQ2dLS0tra2tra2tzc7JxGrpsm/UbQRgAAAEYWKpfLO38vyRo0O9gfx7FJiSyVSsPDw0NDQ/39/X19fZsEa7vXv7ty/burNm7qLymK/JwWUTZfzGTr6upbMtl8lMtHUTabrYuyOTaJ0OTFiDRaKyE53PI2EVQdhXnWoQPJl0P8VJ2fzqIgvNF/UoW733yfioKajbA7Sw+TiBBwTnQRPBCajAI1FYoxWRzyosgLMq92vFVchIOLJqVtvgl7t2+VadMAJEqbmVzUpLLiTRHJl5dKw30cx3Fcjsul8vDm8lB/eXhAx2X5/dNUzOw7oXnqxNbx4zqaBY2NjSb1sa6uTjqNXMQRtBEAAIA9VB5JhWREktbaiKRyuVwqlUql0uDg4MDAQF9f3+bNm/2/fX0rV69/d+X77/cMDA7FFVaBALGOmaooan/ydgNQNSUGV4UcVtW+0iP2onzE4SMFIUChwPKhkOQiI63jmXxykSsIbeGoUm7vGk/XO4hEGGbVF3D6DigQU8w17tcdnkuXrDW8r2QUpHgVQpM6U1qABlGUVnJFrBsKmfaWwr4TWyeP72hsbGhsbGxqanL/1tfXm26aaahJp5HMN4I2AgAAsIfKo5RCMiIpjuOUSBoaGhocHOy3DFgGBwc39w1s2jywqW9ozfpN/QOlslZDw5VSOVYkToRKcQ2RJBMifc4jUfrUnBJWorQjR8qqumiiI6X8epIaOqm6yMPJYg+fniRM4CLoaWsHmtJBQUx4+IrU0k3B16XWw1KNK7m2FgyX26XlD4e5R2xzC/wxsVZKNdRlsxmVy9K41vq25mJLU317a5NpvBoaLG4wTQoj6TRC0QgAAMDeIY9SIsnlaDuRZNptruNmpJJhaGioJDA7boeGS5s2DwwOl+JYc/Vq91rygbf+bGvVXKolk6pR+6jWTjWlVK1Ppb6ilpJS6byBrVe9dtt3i6pRaNvqF1Di08/lso31hcb6Qj6fy2azRveYqcZCoVC0mIumj2ZaaSlhhKIRAACAvVIe1SwjOZHkikmG4eFho5aGh4eNeDJ1pnK5bORUHMdOZuHd2iu/w8KsB6N4TE3IyCAzpW8+yFmcKpKrQuT0PrQRAACAvUweKbFso6ZI0lob6VMul82/5gMjiYw2cnLKFaKq7xzssZJIXnSFHyOP3EijkUFuSt/8a0bSIIwAAACMQXm0dZHkpJKsKhklJC/KNbdQRXuvTnIFJKN1UhpIVomcJIIwAgAAMGbl0ZZEUkonuYvyencz2a3DG7ZXKyRnHopCUteQAMIIAADArie7Cx6DRLRgslRNqSiKnAByMkiqImlggjba2+WRVEjVUsn9Wz2SBmEEAABgbMqjmue5ap2UMnRDG40xhSTLSDXVElQRAACAD5082opOqm7Apa7B+zT2RFLqX6giAAAAH2p5VPNcKBtw8jbQRmNPIUEMAQAAgDza8dMnzqAAAAAA2PVEeAkAAAAAACCPAAAAAAAgjwAAAAAAII8AAAAAACCPAAAAAAAgjwAAAAAAII8AAAAAACCPAAAAAAAgjwAAAAAAII8AAAAAACCPAAAAAAAgjwAAAAAAII8AAAAAACCPAAAAAAAgjwAAAAAAII8AAAAAACCPAAAAAAAgjwAAAAAAII8AAAAAACCPAAAAAAAA5BEAAAAAAOQRAAAAAADkEQAAAAAA5BEAAAAAAOQRAAAAAADkEQAAAAAA5BEAAAAAAOQRAAAAAADkEQAAAAAA5BEAAAAAAOQRAAAAAADkEQAAAAAA5BEAAAAAAOQRAAAAAADkEQAAAAAA5BEAAAAAAOQRAAAAAADkEQAAAAAA5BEAAAAAAOQRAAAAAACAPAIAAAAAgDwCAAAAAIA8AgAAAACAPAIAAAAAgDwCAAAAAIA8AgAAAACAPAIAAAAAgDwCAAAAAIA8AgAAAACAPAIAAAAAgDwCAAAAAIA8AgAAAACAPAIAAAAAgDwCAAAAAIA8AgAAAACAPAIAAAAAgDwCAAAAAIA8AgAAAACAPAIAAAAAgDwCAAAAAACQRwAAAAAAkEcAAAAAAJBHAAAAAACQRwAAAAAAkEcAAAAAAJBHAAAAAACQRwAAAAAAkEcAAAAAAJBHAAAAAACQRwAAAAAAkEcAAAAAAJBHAAAAAACQRwAAAAAAkEcAAAAAAJBHAAAAAACQRwAAAAAAkEcAAAAAAJBHAAAAAACQRwAAAAAAkEcAAAAAAADyCAAAAAAA8ggAAAAAAPIIAAAAAADyCAAAAAAA8ggAAAAAAPIIAAAAAADyCAAAAAAA8ggAAAAAAPIIAAAAAADyCAAAAAAA8ggAAAAAAPIIAAAAAADyCAAAAAAA8ggAAAAAAPIIAAAAAADyCAAAAAAA8ggAAAAAAPIIAAAAAADyCAAAAAAA8ggAAAAAAEAeAQAAAABAHgEAAAAAQB4BAAAAAEAeAQAAAABAHgEAAAAAQB4BAAAAAEAeAQAAAADsCv4/5+OM0eq6dI4AAAAASUVORK5CYII=;" vertex="1" parent="DTonXnH4k2QmNZUPgTjZ-1">
          <mxGeometry x="10" y="207.5" width="270.6" height="160" as="geometry" />
        </mxCell>
        <mxCell id="DTonXnH4k2QmNZUPgTjZ-2" value="" style="shape=image;html=1;verticalAlign=top;verticalLabelPosition=bottom;labelBackgroundColor=#ffffff;imageAspect=0;aspect=fixed;image=https://cdn4.iconfinder.com/data/icons/scripting-and-programming-languages/512/660277-Python_logo-128.png" vertex="1" parent="1">
          <mxGeometry x="-470" y="90" width="225.5" height="225.5" as="geometry" />
        </mxCell>
        <mxCell id="DTonXnH4k2QmNZUPgTjZ-8" value="" style="image;html=1;image=img/lib/clip_art/computers/Server_Rack_128x128.png" vertex="1" parent="1">
          <mxGeometry x="720" y="309" width="100" height="104.5" as="geometry" />
        </mxCell>
        <mxCell id="DTonXnH4k2QmNZUPgTjZ-9" value="" style="image;html=1;image=img/lib/clip_art/computers/Server_Rack_128x128.png" vertex="1" parent="1">
          <mxGeometry x="835" y="309" width="100" height="104.5" as="geometry" />
        </mxCell>
        <mxCell id="DTonXnH4k2QmNZUPgTjZ-11" value="" style="image;html=1;image=img/lib/clip_art/computers/Server_Rack_128x128.png" vertex="1" parent="1">
          <mxGeometry x="730" y="560" width="100" height="104.5" as="geometry" />
        </mxCell>
        <mxCell id="DTonXnH4k2QmNZUPgTjZ-12" value="" style="image;html=1;image=img/lib/clip_art/computers/Server_Rack_128x128.png" vertex="1" parent="1">
          <mxGeometry x="835" y="435.5" width="100" height="104.5" as="geometry" />
        </mxCell>
        <mxCell id="DTonXnH4k2QmNZUPgTjZ-13" value="" style="image;html=1;image=img/lib/clip_art/computers/Server_Rack_128x128.png" vertex="1" parent="1">
          <mxGeometry x="835" y="570" width="100" height="104.5" as="geometry" />
        </mxCell>
        <mxCell id="DTonXnH4k2QmNZUPgTjZ-14" value="" style="image;html=1;image=img/lib/clip_art/computers/Server_Rack_128x128.png" vertex="1" parent="1">
          <mxGeometry x="720" y="435.5" width="100" height="104.5" as="geometry" />
        </mxCell>
        <mxCell id="DTonXnH4k2QmNZUPgTjZ-19" style="edgeStyle=orthogonalEdgeStyle;rounded=0;orthogonalLoop=1;jettySize=auto;html=1;exitX=0.5;exitY=1;exitDx=0;exitDy=0;" edge="1" parent="1" source="DTonXnH4k2QmNZUPgTjZ-7">
          <mxGeometry relative="1" as="geometry">
            <mxPoint x="830.0000000000005" y="690" as="targetPoint" />
          </mxGeometry>
        </mxCell>
        <mxCell id="DTonXnH4k2QmNZUPgTjZ-7" value="" style="shape=image;verticalLabelPosition=bottom;labelBackgroundColor=default;verticalAlign=top;aspect=fixed;imageAspect=0;image=data:image/png,iVBORw0KGgoAAAANSUhEUgAAAVQAAAF8CAYAAACQbUPuAAAmMElEQVR42uydbWwd15nfnzN3Ll8kUaRseSPXa5FSpCsHSCHmSxugQS5lBkYrozCNbJykQFZS427RXeySTgwrsSWZfkmcLLINVfRb1ysK+dBugSL0h80CwcriBdoPBQqYAhaILdoWaTuV5BdJlCyJL3PnLObeS4mk+HLv3Hk5M/P7AYJl8eXOnPPMf57/Oc85xxIAAAgEBBUAAEEFAEBQAQAQVAAAQFABABBUAAAEFQAAQQUAAAQVAABBBQBAUAEAoIZNE5jP1af2HZu7oZ6fn1ftlU6ztdO6Rf/i/v/1zo9pnfTx2Tf3vTb3uXrWcVTl+Wxp0bdbO/RPt/3Pd16ldcxG0QRmc+27haevf5z7b6t9rbWt/MwX/u78CK2UHi4/Xhiam839crWvbf2D8n/o+u/n/5pWwvKDT+Y+V6+s3XvqKC2ULrRr/dRXLACCCutz8eCu7rlb1o41H7Bb1g7ve2ipdPDRY4X9i8M69DeCCgGTb2s5HsT3QDJo26L+nP5GUCEkygvyeBDfA/Q3IKjY/XXsPjYwu/19odjdRYshqNBIx6j8D4IcGgCzaaQPt25vYzISQYWGsNXBIK0iJN/uL+I48ke0GIIKDbBwy9pT7/di+7Nh9/3EBiComeezb+57zXXDs4xg2EPYwPCOhxcbXozQcggqhGTpsP2JVtSnoogRQFCx+/X+zGz9lhHM4UKxu8tP32H7EVQIye5jA5PL1u1tR+lvBBUMsvvYQPobEFQI2MphA+lvQFChxuXHC0N+7B82MJn4Hd5Z2t+fPFl4mpZEUGEVVF4ditNCQnLs/iJaqz+jJRFUWO0Bu62+HKeFhOTY/SBjBhDU1HHlW4VvLx550QzY/mzY/btZrrK92KFFEVRY+mAsqB+ZZCXBfLsfRuwAgordX0F5VvXQomYTZB9h+xFUCMHuYwOTweXHC0P0N4IKCbD72EDzCaKag/5GUCFCy4YNpL8BQc2e3X+qcDBI+4cNNLy/Ax7eWdbfTxUO0sIIaqYpL6g/SdJQApjbJ2HGEiCoyRDUWfVYkqwlmNsnYcYSIKhJsH9fm59X7aE9vNj+TNj9RbxY8mKKlkZQs5mdOurZJFtMMK8voogpQFAzZ/ex/ebhzql9aYgpQFAzZ/eX2X5mf+Pv76cKB6Pob2w/gordD/uzmP2Nn7x6Lo2xBQhqZuw+NtAc5q+of0F/I6gQAh89Vtgfhf3DBhpi9yMa3qG/EdRM0rZF/Xmahxgg/rYvO9af0vIIajYesAV5PM1DDBB/27uOPkDLI6ip5+LBXd1zt6wdUX8uNjAbdn8RL8a8WKMHENRUk29rOZ4l64ndj6/N44w1BBVSa/ex/dmy+ybEGoIKqbX72P54iLqaA9uPoGL3I7egzP5GRetm6ygxh6BCii0Ys79R2n0ZIOYQVAiBC8XurjjtPjYwWrw2jtPu098IaqrZur3tqCnXgg3MVhtbKv8DegRBTRWOI39kjBXFBmarjS31FD2CoKaKhVvWHlOuBRsYvt03YXhnaX/TKwhqavjsm/tec10sKXY/3hikZxBU7D62H7uf0hhEUCHxdh/bHy6mVHMkIQYRVEiF3cf2h8emLa0vmXhdXgxi+xFU7D62P2FPlLkz6th+BBW7H7Ltp4cC7u9Zc9sU24+gJppr3y08bardXwQbGGxbmtzf2H4ENdHM31Z/Zvo1YgOz1Zb0N4Ka3Afstvqy8RYVG5iptqS/EdREcuVbhW87jrJNv05sYDbs/tL+9mKTHkNQk5WdLqgfYVWx+8QmggoZsfvYwGy2YZJiE0GFxNh9bH8wXH1q37Ek2P272bSysf0IKnYfy2ok83NyiBgFBBVLhe0PgPKs6iFGAUENw+4/VTiYJLu/1PZffrwwRA82xrXvFp5OYn9j+xHUZGQrC+pPknrtKq8O0YMN2v0ELN7A9iOoSbZ/jyX2AcMGZqrN6G8E1Wy7/63C10w46RIbGFl/fzuJdn9Zfz9VOEhPIqhmZqeOejbxGRc2MFNtleQhKgQVu48NxO4TswgqpN3uY/uzZfcX8WLWi116FEHF7mNl46NF/SdiF1aiaIJgmPvLwpw7qVrccjru57Np3rXrcX+3m46MKidi7dXzrc+db6VXm8emCZpn4We7v6YelJbcFi3yu3TcUy5fOXMK1mib1s06HTfzJRHpkBYvhvM/ev9/07tY/vjT/Lbcn1b+0iEiO9NxT5u6NB2b9rbZWYtZTwja7B/SswiqGYLaIgfu/M8OEelM/j1t3ubSsWlum85arC7Sor9KzyKosXP71V3dukMtP+lyj5fGJDww7Kq1hXvtvpX0gbJNtRhdghfDXizTwwhqrOQ32cfvfepEZHftv1hb7L5Rb4S1Y3PVWAYENVK73yaPr5kFdGNtsfuGsXtt97RmLAOCGpvdX8r2FeNU2H7sfpx4sbht7S9j+xFU8+z+SnYme5IK25+StuisrwIF24+gmmf3V7InueOp2P67tHUkVFBz905CNR3TgKBGavdXBvSXkmv7LaKk0gb5toQK6pfqf6Fj+xFUc+3+Mr+Y3KL/9k5sf2LbYGfjJXzYfgTVXLu/lB21iaqEsWkbgprINvA5KYrtR1Ajp267v5Lu5BX9e1Y3y7Y/kXa/ibI9vUntuFDs7uIpR1AjwfnF3td8/3BCi/6zbPsTd+/NxlhO5OF/23KUJx1Bjcruf6vp7GE3lpd7D4ndzbugpmMcQYW6LdGWAORwW7KK/rNq+xNn9zco3o80xhFUqMvu51QwG3MnrOg/i7Y/UffcGWAlSU6ppoa2EFSIxQolqOg/i7Y/MffcWn/xPrYfQU2X3V+WCSSn6D+Ltj8xdn9v8C9mbD+Cmhy7vywNSs4kVZZsf2KWmu4OqRQP24+gJsruL2V7Mor+27ZmR1A335eAew05brD9CGpy7P5KElD0n5rD6eqgpd3we41gz11sP4IaCuW/2jMUit1fZrHCGQsLPHPLwOSUZ/eVyU9HVLGSU6r8s73HUAAENVhsdSiaFND88dQs2H7j7f7uWqxEQbt8EwFAUINli/zzyD5rm4g8hBXmHtfgoWCK942MfQQ1A3b/Lwvf1i0qF/lDY2jRv2eFE7vZctLtfmf0L1sv9r1nACVAUAOy4fpHsXzunghtXdoscRrvLYTifeOfAQQVux8YixMPWGLuLe4JS2w/gppYu78UQ4v+02r7jbX7MZfUYfsR1PRYHUOL/ttTONtv5D2Z0v/YfgQ1NVbHwKL/tGaoRmGSQ8H2I6jN4PxV4WCsdn8pBhb9qySfBLoK3r0YZfcNG0PH9iOozQmGrZ8za/hBRAqGJfD3p0dQjbuXgoFVHth+BLUJu/UvjbumDrOK/tNk+426l4dqfW3eM/EIwoCg+rM4barNyAszqOg/LbbfKLvfae5KOWOfCQQVmsKgov802H5j7iHO4n1AUDOLQZNUabD9RtxDQnYbAwTVn52d12WjLzCC/TCzYPuNsfsJ2A/X+GcCQTWYz+X/GX+NhhR9J9n2G3HtO5JxYkMingkE1UzKW9R/lLI2Xyl2x5/ZJHkn/9ivfVOAxz+H+kBoPX/DoQ4VQfVHy/fPn5Mr8jeJuNiYx94sWySXT14fe9fsXXt8F5CcU2+9Z6H92IVplAFB9Y39g8mn5RP9uvlpVvxF/5u6kpelxn7NhYRMQn2iX688C4CgBiGq6qJ8R83qWaMvNOai/83b3MT1bazXvNPQ4v0leDHvxT5iiqAG68yeO/+385edR9SMfs/oC42x6D9ptj9Wu99Zm4gyWUyv6Akv5r3YRwHqbDOaoHGcX+x9TbbL0dBPQfVLWUR+JyK3ov/oG59YcuOTZIRVxwNaOh6IIUPdVBs3NdXql7WWT+Xn9rOTP+ZpJ0MNfwjg2ckf60vlrxs7BJCrzfznsP3GXWuMfVNXhnVTz3ixjZiSocbzMj+5d1zfp4pGXtynIvJ+9B97eTIn5QXz7f4X9sZQo77b3HpTdUWXcoOTfTzVZKjxPZiDk33qY/cZI1eQbI9nnC4Js/2xXKOhxfte7HoxjJgiqGaI6g/fHZm/6HxR3dCXjLu4ndEX/SfB9ke+dt/Q4n0vZr3Y9WKYJxnLb94QwEjh17pLP2HUhJWXO0/U/hsRl97OiWuorlqWyI5HImyMnIj0GjZuWtZaXVNv5IbOP8lTS4ZqbrY6dP5J9bH6rlETVrnoi/7bO821/ZFfm2Ez+pXa0o/VdxFTBDUZorpYs3pFTxhzUR3RWs5N28wV1EivbadZO0hRW4rlTzTG1ay+IyIz2bX9kdr97QadWEptKRlqGrhTs3pTzxhxQXuiy5hMtP2RXZMhe9UKtaVkqGnFmJrVW7WVVCEnaguzSj5536x39gO73fA3w17cQWqTERaf2lIy1HRiTM1qRNmTJ1yWZZbdj+RkAQP2p63Uljr6CGKKoKZbVE2pWY2o6N8k2x/JtXhtui1mMV2sLT0yOcoTh+XPzhCACTWrIU9SmWT7Q7f7nSKyL86A0lquyf+whyb/HU8XGWr2slUTalb3hFsjaZLtD1VMc/Ee/7xYW4qYkqFmntuv7upu6bDH9H2qN5YLuCUi/xjer5+5aMnNq/GGWluHlvseDrGG68vxjZuqK3oiNzj5FZ4kMlQQkfZjF6YrD8Rl/bNYDgUMeZ1529b4x1E33xfiNcQ1CeXFymX9M8QUQYVViLVmNcSdkEw4EbWlPaRriOkYby9GFj5ydlFbiuWHepKPOGpWQ9zp/8qHlszeUOmy+zHtvE9tKRkqNEgsNash7iYfquWO47Nz0R/dXaktvSjfQUwRVPDzzMZRs7opnPXnoVnuuD57d+3o7qjEdLG2lE1NsPwQgBuPumb1AxG5lHzbH4rdfyjC47rLWssV+RuOcSZDhSCz1ahrVncGfxx1HLY/8M/sjE5M79SWIqZkqBAOV091d2293nI2kprVgHf6167IxbejncF58JGyqKDShtZavWkEt0BtKRkqRMC2I9PXIqtZXdw1KSiRsKI9y8n7LBVkhEcxCUVtKRkqxMP864X9uQVd0ptVZ6gfFOBx1LdnlFz9fTTv8W0PucFtiBLB8c/qpp6Z/9TZ337swjTRjaBCTERSs/p+TVgTZPsDs/sR7LxPbSmWHwyhUrPq6COh1qx2B7O8UkW0J6n3GYGIach7x1JbiqCCiaJ6ZHI01JrVAAvZt9wfvqAG8hkhF+9TW4rlhwTg/Oe9fy33yb8PpWb1qohMmm/7A7H7X6qdFhs01JaSoUJy8B7U0GpWtzVfhxm27Q/E7j8UjphSW0qGCgmmfHLvW6HUrDa503+Ys/1Nz+6HtPM+taVkqJBwQqtZ3dPcWvYw61Gb+t2tIey8X9Za/V4fR0zJUCElVE4F2G6fC7Rmtcmd/j9536qcORW03X9gt8+1+yEc/0xtKYIK6R4CCLZmtYmi/zBsf1N2P+DiffWZ/vvc0ORBog7LD+kdAuhTF+U7gdWsNrFjfRg7+fv+nQHuvH+nthQxRVAhA6L63Pm/DbRm1WfRv2WL5PIB3le++jsbJsA9YNWMfo/aUiw/ZJTAalbnauOpDea9Nz6x5MYnwYRhxwNaOh5ocPw0V9tBqtnNoqktBTJUCKxm1ROkQuM/tnlbcJs/+/pdhebF1Gs7fan8dcQUyFDhbpIVRM3q72t/GuDyZE7KC83b/S/sbTA93lk77bWZB4jaUiBDhVVFKYia1Yca3+l/U1fzk1MN/47OJsW0rLX62H0GMQUyVFiXpmtWy7Xx1Ln6vt11RC6db25t/45Cuf4JqSaPf6a2FBBU8DME4L9m9VbtjP9y+La/IbvfZPG++kzGckPnnyQ6AMsPjQ4B+K9ZbXAf0WZsf0M/67PE625tKWIKCCr4FdVmalYbKJZvZra/7rX7O/wV71NbClh+CBzfNav/WBsC2IBLb+fEbVBXLUtkxyPl+jLmLzd4w9SWAhkqhIXvmtU6d733swa/rp/xcXortaVAhgqR0XDN6o3aJNU6LMyqyg5UjfDAbnfjzaob3HlfXdH/Nzc4+VV6GchQIRIarlnt2Hinf08YLasxu7+hmO5sQEzv1pYipkCGCtHTcM3qBjv9z1y05ObV+sJy8zYtnQ+uM+jawPHPlQPzrjhfpbYUEFSIfwhgZO9v9P3q32z8jTXrf6t527+u3W+geJ/aUsDyg1lDAEOTB+uqWc3VssZcc7Z/Xbu/wWfcEdJZPUttKSCoYKao1luzukHRfz0z9+t+z+6Ni/crtaWXnUeoLQUsPxhPXTWrH4jIJX+2f027v6M2EbXmkIPW8rH+r/Zz7/4FvQRkqJAI7B9MPq0vlb++bs3qztUzyXps/6pi2rm+mN6pLUVMgQwVksq6NatlEZm4dxOV9Wb72zq03Pfwitn9nIj0rj1uSm0pkKFCKsgNTn5Ffew+s2rNam71nf7btq49Rrr5vlW+ttaMPrWlgKBC6kT1h++OLHzk7FI39b1VqB33WvX1Ti9tadd1DR2oG/qS95neZ9MDgOWHdA4BjBR+re+XgXu+sKLo/8qHlszeUOvb/TWK96ktBTJUyEa2OnT+yVVrVvcszzRXs/bL/m2V8itqSwFBheyJ6mLN6ox+7+4/Li/Iv8faL/23VYr3qS0FLD9knntqVj8Vkffvtf3L7P5eEdm2OIagtXwqP7efnfwxrQlkqJBp7qlZ3X73RNKlFv/O3x+6K6bqpp6p1JYipkCGCrCcZTWr74joqyIX3676+gcfKYvyhHRfLXiv6FJucLKPVgMyVIBVWFazukdE5atW3/uj2qsTV5UD86q1pYgpkKECbMSdfVaV6rz9f6ph2v6vtKgy+5YCggrgbwhgZO9v9Gx1n1XVpv8+NzR5kFYBAPDJ3At7n/f+0BIAAAAZgUkpAAAEFQAAQQUAQFABAABBBQBAUAEAEFQAAAQVAAAQVAAABBUAAEEFAAAEFQAAQQUAQFABABBUAABAUAEAEFQAAAQVAABBBQAABBUAAEEFAEBQAQAAQQUAQFABABBUAAAEFQAAEFQAAAQVAABBBQBAUAEAAEEFAEBQAQAQVAAAQFABABBUAAAEFQAAQQUAAAQVAABBBQBAUAEAAEEFAEBQAQAQVAAABBUAABBUAAAEFQAAQQUAQFABAABBBQBAUAEAEFQAAEBQAQAQVIB1+Oixwn5aARBUgCb54NF94245N/HBo/sO0xqAoAL45MP+woAoq+j9XWvpoUUAQQXwTW7kTlBbeoL2AAQVwJ/VP6xFuhf/33HmxmkViANFE0CSuVDs7rLt9iktqrMS0Fqfe/jNt3tpGSBDBWg0gK22oUUxraYI2H1AUAF8ZaeWpYaW/pvWgt0HBBWgUWy7bWRZduoFtK3fomUgLhhDhURy8eCu7oW5tqnlwaxnHj7zdhetA2SoAA2wMNtyeuW/ac34KSCoAA1xobivb7GIf7mgMn4KCCpAQ+RyMrzav7suggoIKkDdVNbpr5KdVpnF8gOCClAvSlmrZqdK63O7StPXaCFAUAHq4PLjhaGlS0yX0tLulmghQFAB6uBCsbtrfnb17NRj7rai/hQQVIC6AnXlEtMV5Nvmz9JKEDcU9oPxrFbEvzyIKegHMlSAunDmWl5a7+vUnwKCClAHHz1W2K/FOrS+oLJCChBUgA1xHXVyw++hoB8MIZAx1P7iC31RXvSZ0k+MeYCKxaM9ttipPMPIkc8nSqWTsdV2Xiju68vZ1oaTTTvP/M7ouYBi8fleW1RXVvotrvtuvt2cqVLp51ORCWq1gXIDylK9WqRHiYr1yF4tuiSuTGnRE2WZH2u2MRrl0eLxw5ZlnUrv+1bPaLc8ENcL7MNHH5nQav0YM2mHfu/lmpOWPiWqVyzpVaKKMT8f0yIyJa4eF9ETZ0qvjkX12f3FE6PKUocSG/ciE+LKhIg77siN8XpfUKq+DKx1SFlyWNYpWzGiGURPa1ePlOX6aBRv6P4DJ6aUqO50mxj9xj+cfXkg6k+tLTHd8GXV2lb+L1/4u/ODcbaQ92JVlhqKO8GoqzddfVqkPBrmS7JYHOzKW11X0/YcaNcd3eilpDYQ0uFkvmW8zEqPOHJ9JExh/caBF7WkHM8FnDn7cl/k2Wn/l6bWWhW1PIDLTz585vxYjEI6nMSXqtevjusMlUo/nQg+O32hT1n22ZQ+D+fELQ+t9UKyVm+QYwN5q3UiuSm76lSW9aJtdU4Ui89zYFvCmD6wb7geMfWwWxfeit7aD3b1HzgxblnWqaQ6FCWqmLfyb/UXjw8TcQ21237vZdFfPDFSl6BW37q5X5tu7+u8+e68ZY8jqslhtXOi1rFX0w/+5sJ0tGL6fK9tdY7HPT4a2DNiWS/2F0+MEnmNtpsaXK3drJVimr5JFtWJqCaHTVtaX9J1vsyjrj/1MlPbskeTMFbaoDgcQlSDaTdr6Zs3vTPWqtO27DHvgSAMzOXiwV3dc7O5v6j3+1vb3UirD/JWZ+rEdKk4PFo8PkQU+hHVYwP3CKpt2SMpH/votqWT8SKD2WiJ6Upufa4iy1CrD416Is3tb1lqmKTDV8ONLBPUyrhpSsaENhr3KBaP9hAB5nGhuK9voyWmK9lVemc8jocmxU9Ipy1byVJ9JGueht4RVGWpw1m5eVtaDhMC5rHWOVFroqPbUNrLTtNfb3wn6UBQm2g3y8vYspCd3s00gnt5VIukU05llU342ena50StTmu7Phdh0AxkSBo6l44JQt1Z6v5K7X5OWgIr2q4sBQ2PriAmBLxMw7vxIJapOjIzlHO3TihLBR2APY1mRJWCY5FAFzFoV4+9WXoldKtr29Zooysk5mflbHTZhwwE9HxUl4KG9lBLbzDljpUXSMSLJWrLPeMRw0ASypy0DNhKVF+zWZojzkgYKy7Wsl9ehzez6KD2Emm6TKS2Cmuk9ifAezw+LJZ6sbFMcu3VGybzwaP7DtdbxL/sZebMRXKv1XI7/yJVWw49XJbrY1Esh67tJzBgWWrY93VbEnmJoSemcazIW9rPttiHm1lir0T12mJJj983yoLr9EUlpIvU1tKO9RdfGFVWbszPzSsRJqYM4EKxu0spNaIb77/pqE44tcXq8Z9suC+dKb0SaWVJzXmNFIuDo3mrc9RPZUJaS8PWb7eKjg0Vi8+P+q41tqTH8pvuxiGmy4X1J+Padf2Nh1qqDzmLn43OiVonHY8wE1e9fp1b1GK60j0tuDOHa8MMPjPz7OFpmuPODXgJo5+hA8tvsMQppkuz1drYISQwO7V8zii3tJm/Q78jM0Pxi8PJa9rVw/4yc5XZelQvy9euvyFBnzv2l41ZpqZdzZK5BGLbbSPa51jVwoJEuJOR8mH59RsmbPDs8WbpFZ4PXy9EJzpBNWnyQ4k74Sc1J2Ti4+LBXd2NFvEv5Q9/ez46V+JjjkG7ZmXQIVffpNb6RyKofsdkwnuTfM4BbQljYbb1ZBOWJAHi4BpVbaECLqfLCn60zk+GOmXWm+QkwZIgqkX8/tfEc2S0n3cQp8L6ZCoSyw/gl4aXmK4MWAtxAHPJqKA2XhIBzfNhf2Gg0SWmK4mqoB8AQa0T19VsABFPftrUijKl9bmoCvozPUQg+lwSV90hqHEEi6tPU0oSPZcfLwz5WWK6QlGx+xG4t2phO/jBTo+FX72msTJT58pYo+drQ3BcKHZ3zc9aTa8aYkIqtOfnDdfV42Upj5uwYAdBNcDCW5Y6dVdcZdx19VhZ5seD2FUKmrRBvpeYLhksyFfcxVu0ZuM4cn3Els6BxfXp1aOQdSXJwNojqPfgWfhicXBMZHMPb1izuHhwV7czp4Z0k7+n/Yvuza1fdZ+R3wobhDdIzZX1Vtfn35zCpSGo9QYNYmpadjTX8pIOYI/O/AMyI2Idcn61R+zvvYuo+npGSDZCd2M0AYSZnTazxHQpm/7ArcWqJ6p7R2hdQFAhc9lpUL9Ld6gdd/9PDZZP7SVLBQQVskQwR8N0PHDvCKy21SlEFRBUyAw6kPONROxH9P9f9fcjqoCgQmbyU5FAdibbtN29vaZoI6qAoEIWcF03kBVpukP+2bpft9Wp+dcL+2lxQFAhxYI6O6J0c0fUtHVoEUu1b/R9uVZdQlQBQYXUsqs0fc0p3+5rRlTth/TNurJYrToRVUBQIfWiarfNPaF8bplYLeivc2gAUQUEFdLOg7+5MK1ybtGPqN4t6G9MVK+e6u6i5QFBhVTyh789f65RUa1siLKsoL9+Ud1qt44jqoCgAqK6mJ12+d9SRYvsR1QBQYVMiGo937tWQX9jotoyRqsDggqpFlXR7pENM9QGx09XF1VVpPAfEFRINTvffGd0I1HVmyWQpava1n20OCCokFlRrbegvx6UqB5aGxBUyKyo1lvQX5/tZ+NxQFAhQ6KqxD299N8aKejfWFBdJqYAQYXs8PCZdw4vFdVNO9zNwdh9Xcp/7z0OogMEFbIpqpWC/s3B7KVanleDtCwgqJBZUW2/3y0F89vc0y3fP3+OVgUEFTJLx792m7boSumZBWdhmNYEBBWyHpRN1426Wkbaj0xP0ZqAoEKm0aKKzWannzvzHDUNCCpkm0D2MnX18LYj09doTUBQIdPk8u6BprJT0dO5P36X7BQQVAAR1dz4qSNMRAGCClBLMXubyE5LuSOTozQiIKiQeW6f6u7Rorr9/rwrLtkpxIpNE4Ap5G27qezUZokpIKjNUywOduVk62El0iWiJ86UXmUzjGQaJt/jp/POPJtIr0N/8YU+r321yLWyzI+VSj+nRhdBXeMmrM4xtaR28RsHXhQR/Ybr6rGyzI8TPMlAifT6O0XKPU0R//piqiz7bK2NxZK2X/YfOHFOXBl3xBktlX7K9oYI6tIHcbVCcPWEZaknLGmTavDoMUfKYwSPufgp6FdKz1xfWBii9RrL/JWo/WLJ/rzkB79x4MSMdmVMix4vy/WxUukkNbx+WzobmY/aryzrxbyVf6v/wAnG2Qxk4Vdf9GX3XS0jFPE3/YR0KksdsizrVN7qulosPt9LmyCodWez/cXjzAabFoha9frJTlliGoJtteyxYnGQ47cR1DofRMt6ka43rlcaz1AXZIjsNJSko9uWLWSpCCokOBL7Gnvo9TRF/ICgAqygUtCvG9uhX4vLRBSkQlAZW4FAaZGWRrPTkv2996g1rr/FeGZNFdRKuYVBVAuWIclou7H1+6YvMdVi9Rr2lDMe6uc15KOMz5flLxaP9hgUvD2N/4zmnCGzAreBl6J72vRTTJWoXrOuB0GNSuN8CWpOWgaMeflays+1MDNsVEYndbueyM+JcnXD4q0sGTBHGJ7vFQnmBNks4VfjLJ8iNmxCnVotWJ6g+5NLYwX9+mQylpiqzkeLx42YNMtbNjXXDevKYJeylK/+s7ToaT8Bk7c6R+MUVe+zbcv2VzbjCuu+jaG+DVGU0jM3nPnhGLLna/6TjnhXHD1aPH7Yb8LhyOeZXaJtS+eI8rGNpKelXobqU1zUE7bVOd5fPDYQR6Dkrc4p/xNkGkE1RU51feN7cS0xVeJO+M1SK0udi8eHo55z8D7vGwdOjFmWdcrn8zGTxfX8/cUX+voPnJhQljrk81dM2ZUxIsvfKZPVDRZyv/7GgRMzIjKuXV0LPjfASQPVJYuD/Jbqqw6wNzsm1Pz1VTLk0FaTKB8TbVZvf/GFUK7mTOkn4U0CWdIneqM409M3Ylpi6t17dfcynz1pWS/mpe3Fxd2dRPQ1LTKlxJ0KLou2eqtbV6oesaS32UocLRJHdtoVfcVO1R0pS/VqqbRbd3Oyosftqrg0uxSzInBPKGvRXpi9tLNZgfDE1MuQTRrstyzrl2Gt0+gvnjh9pvRy4PuN1l3Q70isp5hq0eeaFanF3Z0qf6u9SYLLogO+X1ePRe8EvPapbjEYB8G0oZ6wquKiZ7KT2Os3mv0NOdk6kKWZ0yYs0LrUU9BvwhJT7epMLXEtyzyLJnwMk5wpvTpm1QImMzv2aNcdDeBt1kMABdAXtt5QUF1xD8cvMNczI6hadIkN2f3oiozd8R2OXB/JQpbqWTeORzEo891gRZESXTKhiL9UOnlNu/p0JjrFLVNm5QNH5obvCGotYEYyECxsqGEIV091d21U0F+eV4PmPDAzQ2lPOrzsNNQJyNRmp/rkYlZ/Z2T8TOmV4TQvyfRummAxhy0bnnDqnm75/nlj4rGadLgpPghQzzjuzACR2fBLaNqRmTtZ/bKpRsed6UujqHp27UzpZbJTo1i/oD/yJaZ1cKb06pjrukfSKKYLrtPHWVJ+XkLOwNJ2s1a+hdMmqjUx5Yhh0+RU1t5QWot+ydQlpm+WXhlNl6guiimHVzaama7WbtZq1ubM2Zd7teu+lPRA0W75ScTUUNTqK6SScE6UJ6oL7sJXkp946DcW3JkexLTxdnPcmd7V2s1a2968Mrzgzu6qzm4mZzDee3N4LwMvUJjRN5P51wv71yroT8oppt7D5CUeXrbqbz+MeAVBu86Bfzj78gA2vyFtKW3UbnUtECgWB7tysnWgtlVen2lF7ZWArizrc8eiENFi8fnevJV/K0v25szZlwOrvS2f2ntY2+rUvcGop3Pfm0xkja8XE7bYh8WSPtM2YV8UUdfV42WZH4uizrT/wImpppdyGiOieqzedlP+gudojy12z901xNV19uG7RLm2uF/A4npoRz6fiOMt2188NqAs67BO+5Ewrkw5Mjcc5EPo/GrPqIh1z+or5egjaTl4r7oufck+FNV19uG/LJbt3+qOO6KvxWHpay+YoUjuOZg4nxDRNR3RE464U37aTZHIQ9SUf7V3Sq/IXpToUu57kxxnA4mGU08hUqoF/fdaQdPPiQKoB5smgCjpsO2+e21S5RRTFl0AGSpAI6x2Iui8M09pGyCoAD4CbkWG6p5OxjlRAAgqGJeh3j0dQik9Y+ISUwAEFYxn/vXCsvpMV8sI2SkgqAA+yOXdA0uzU9OXmAIgqGCu3V+6ft/Vw0lYYgqAoIKRKKmupqssMf3jd8lOAUEF8IsrMupZfS0ue9MCAAAAGSoAAIIKAICgAgAgqAAAgKACACCoAAAIKgAAIKgAAAgqAACCCgCAoAIAwIb8UwAAAP//7AV2UzKvVNAAAAAASUVORK5CYII=;" vertex="1" parent="1">
          <mxGeometry x="-70" y="770" width="143.16" height="160" as="geometry" />
        </mxCell>
      </root>
    </mxGraphModel>
  </diagram>
</mxfile>
